<svg width="46" height="17" viewBox="0 0 46 17" fill="none" xmlns="http://www.w3.org/2000/svg">
<path d="M37.4911 16.7105C34.8317 16.7105 32.6666 14.5454 32.6666 11.886C32.6666 9.22671 34.8317 7.06152 37.4911 7.06152C40.1504 7.06152 42.3156 9.22671 42.3156 11.886C42.3156 14.5454 40.1504 16.7105 37.4911 16.7105ZM37.4911 7.95096C35.3259 7.95096 33.565 9.71186 33.565 11.877C33.565 14.0422 35.3259 15.8031 37.4911 15.8031C39.6563 15.8031 41.4172 14.0422 41.4172 11.877C41.4172 9.71186 39.6563 7.95096 37.4911 7.95096Z" fill="white"/>
<path d="M8.36428 16.7105C5.70496 16.7105 3.53977 14.5454 3.53977 11.886C3.53977 9.22671 5.70496 7.06152 8.36428 7.06152C11.0236 7.06152 13.1888 9.22671 13.1888 11.886C13.1888 14.5454 11.0236 16.7105 8.36428 16.7105ZM8.36428 7.95096C6.19909 7.95096 4.43819 9.71186 4.43819 11.877C4.43819 14.0422 6.19909 15.8121 8.36428 15.8121C10.5295 15.8121 12.2904 14.0512 12.2904 11.886C12.2904 9.72084 10.5295 7.95096 8.36428 7.95096Z" fill="white"/>
<path d="M8.36422 14.4829C6.93573 14.4829 5.76778 13.315 5.76778 11.8865C5.76778 10.458 6.93573 9.29004 8.36422 9.29004C9.7927 9.29004 10.9606 10.458 10.9606 11.8865C10.9606 13.315 9.7927 14.4829 8.36422 14.4829ZM8.36422 10.1795C7.42986 10.1795 6.6662 10.9431 6.6662 11.8775C6.6662 12.8118 7.42986 13.5755 8.36422 13.5755C9.29857 13.5755 10.0622 12.8118 10.0622 11.8775C10.0622 10.9431 9.29857 10.1795 8.36422 10.1795Z" fill="white"/>
<path d="M37.4731 14.4829C36.0446 14.4829 34.8767 13.315 34.8767 11.8865C34.8767 10.458 36.0446 9.29004 37.4731 9.29004C38.9016 9.29004 40.0696 10.458 40.0696 11.8865C40.0696 13.315 38.9016 14.4829 37.4731 14.4829ZM37.4731 10.1795C36.5388 10.1795 35.7751 10.9431 35.7751 11.8775C35.7751 12.8118 36.5388 13.5755 37.4731 13.5755C38.4075 13.5755 39.1711 12.8118 39.1711 11.8775C39.1711 10.9431 38.4075 10.1795 37.4731 10.1795Z" fill="white"/>
<path d="M44.4717 14.4645H41.3003V13.5661H44.0225V11.8771C44.0225 11.8142 44.0315 11.7513 44.0585 11.6974L44.9928 9.56816L43.205 8.22952C41.2284 6.74713 38.7847 5.92956 36.3141 5.92956H32.5228C32.4329 5.92956 32.3431 5.90261 32.2712 5.84871L28.2912 3.14447C26.117 1.67106 23.5835 0.889434 20.9601 0.889434H11.5627L0.898419 4.15069V4.58194H1.43747C1.68903 4.58194 1.88668 4.77959 1.88668 5.03115V8.89435C1.88668 9.1459 1.68903 9.34356 1.43747 9.34356H0.898419V11.7962L2.24605 13.5661H4.546V14.4645H2.02144C1.8777 14.4645 1.75192 14.4017 1.66208 14.2849L0.0898419 12.2185C0.0269526 12.1376 0 12.0478 0 11.949V8.89435C0 8.64279 0.197652 8.44514 0.449209 8.44514H0.988261V5.48036H0.449209C0.197652 5.48036 0 5.2827 0 5.03115V3.81828C0 3.62063 0.125779 3.44993 0.314447 3.38704L11.365 0.0179681C11.4099 0.00898391 11.4548 0 11.4998 0H20.9601C23.7632 0 26.4764 0.83553 28.7943 2.40776L32.6575 5.03115H36.3141C38.9734 5.03115 41.6148 5.9116 43.744 7.51078L45.8194 9.06505C45.9901 9.19082 46.044 9.41543 45.9631 9.6041L44.9209 11.9759V14.0153C44.9209 14.2669 44.7233 14.4645 44.4717 14.4645Z" fill="white"/>
<path d="M27.24 13.5664H33.6727V14.4648H27.24V13.5664Z" fill="white"/>
<path d="M12.1736 13.5664H25.4432V14.4648H12.1736V13.5664Z" fill="white"/>
<path d="M3.38703 9.34365H1.43747C1.18591 9.34365 0.988256 9.146 0.988256 8.89444V5.03124C0.988256 4.77968 1.18591 4.58203 1.43747 4.58203H3.39602C3.5757 4.58203 3.73742 4.68984 3.80929 4.85156L4.75263 7.05268C4.80654 7.17846 4.79755 7.33119 4.73466 7.44799L3.79132 9.11006C3.70148 9.25381 3.54875 9.34365 3.38703 9.34365ZM1.88667 8.44523H3.12649L3.82726 7.20541L3.09954 5.48045H1.88667V8.44523Z" fill="white"/>
<path d="M29.7376 5.74971H22.9995C22.9725 5.74971 22.9545 5.74971 22.9276 5.74073L13.8985 4.34818L14.0332 3.45874L23.0354 4.85129H28.3361L27.9677 4.59075C25.7396 3.00055 23.1163 2.15604 20.3761 2.15604H12.3712L10.0173 2.84782L12.2454 3.18922L12.1106 4.07865L7.88805 3.43179C7.68141 3.39585 7.5197 3.22515 7.51071 3.01852C7.49275 2.81188 7.62751 2.61423 7.83414 2.56032L12.1915 1.28457C12.2364 1.27559 12.2723 1.2666 12.3173 1.2666H20.3851C23.3139 1.2666 26.117 2.16502 28.4978 3.86303L30.0071 4.94113C30.1688 5.05793 30.2317 5.25558 30.1778 5.44425C30.106 5.62393 29.9353 5.74971 29.7376 5.74971Z" fill="white"/>
<path d="M17.5371 4.91438C17.5101 4.91438 17.4921 4.91438 17.4652 4.90539L15.6324 4.62688C15.4168 4.59095 15.2551 4.40228 15.2551 4.18666V1.70702C15.2551 1.45546 15.4527 1.25781 15.7043 1.25781H17.5371C17.7886 1.25781 17.9863 1.45546 17.9863 1.70702V4.45618C17.9863 4.59095 17.9324 4.70774 17.8335 4.79758C17.7527 4.86946 17.6449 4.91438 17.5371 4.91438ZM16.1535 3.79135L17.0879 3.9351V2.15623H16.1535V3.79135Z" fill="white"/>
<path d="M32.0017 12.3267L17.3934 11.4553C17.2676 11.4463 17.1508 11.3834 17.07 11.2846L14.2939 7.78074C14.204 7.67293 14.1771 7.52918 14.213 7.39442C14.2489 7.25965 14.3388 7.15184 14.4646 7.08895L17.3664 5.78625C17.4473 5.75031 17.5282 5.74133 17.618 5.75031L31.849 7.90652L31.7142 8.79595L17.609 6.6667L15.363 7.67293L17.6539 10.5658L32.0646 11.4283L32.0017 12.3267Z" fill="white"/>
<path d="M42.7647 8.98438H45.5498V9.88279H42.7647V8.98438Z" fill="white"/>
</svg>
