<svg width="10" height="10" viewBox="0 0 10 10" fill="none" xmlns="http://www.w3.org/2000/svg">
<path d="M6.01015 9.1082C5.9277 9.12875 5.84362 9.147 5.76018 9.16237C5.54203 9.20294 5.39782 9.41274 5.43816 9.63108C5.45809 9.73849 5.5191 9.82796 5.60192 9.88636C5.68728 9.94644 5.79592 9.97357 5.90663 9.95298C6.00601 9.93454 6.10616 9.91285 6.20444 9.88832C6.41985 9.83471 6.55108 9.61648 6.49734 9.40117C6.44373 9.18568 6.2257 9.05455 6.01015 9.1082Z" fill="black"/>
<path d="M8.98288 3.71959C9.01104 3.80445 9.0648 3.87374 9.13271 3.92161C9.23339 3.99252 9.36515 4.01638 9.49088 3.97481C9.70167 3.90482 9.81588 3.67752 9.74614 3.46683C9.71437 3.37079 9.67912 3.27444 9.64156 3.18064C9.5591 2.97449 9.32527 2.87412 9.11901 2.95658C8.91297 3.039 8.81257 3.2729 8.89509 3.47911C8.92665 3.55796 8.9562 3.63889 8.98288 3.71959Z" fill="black"/>
<path d="M7.31649 8.53396C7.24558 8.58078 7.17238 8.62609 7.09865 8.66855C6.90628 8.77951 6.8404 9.0254 6.95132 9.21769C6.98143 9.26999 7.02155 9.31274 7.06774 9.34542C7.19175 9.43267 7.36017 9.44574 7.50039 9.36496C7.58806 9.3144 7.67522 9.26062 7.75968 9.20477C7.94485 9.08243 7.99582 8.83301 7.87342 8.64776C7.75104 8.46244 7.50173 8.41154 7.31649 8.53396Z" fill="black"/>
<path d="M9.99607 4.84229C9.98732 4.6204 9.80044 4.4477 9.57849 4.45637C9.35682 4.46512 9.18399 4.65207 9.1927 4.87386C9.19603 4.95867 9.19689 5.04474 9.19493 5.12945C9.19182 5.2686 9.25987 5.39263 9.36563 5.46718C9.42864 5.51155 9.5051 5.5384 9.58801 5.54029C9.8099 5.54521 9.99377 5.36922 9.9987 5.14723C10.0009 5.04601 10.0001 4.94345 9.99607 4.84229Z" fill="black"/>
<path d="M8.91743 7.47655C8.7395 7.34306 8.48778 7.3793 8.35453 7.55691C8.3035 7.62492 8.24976 7.69209 8.19473 7.75678C8.05092 7.92574 8.07123 8.17952 8.24019 8.32344C8.24982 8.3316 8.25956 8.33911 8.26966 8.34616C8.43763 8.46458 8.67108 8.43737 8.80689 8.27799C8.87261 8.20082 8.93667 8.12058 8.99765 8.03934C9.13093 7.86174 9.09486 7.60985 8.91743 7.47655Z" fill="black"/>
<path d="M9.50826 6.0234C9.29642 5.95698 9.07081 6.0749 9.00443 6.28675C8.97903 6.36768 8.95087 6.449 8.92047 6.52864C8.85372 6.70397 8.91768 6.89687 9.06428 7.00025C9.09117 7.01914 9.12079 7.03516 9.15297 7.04732C9.36039 7.12647 9.59265 7.02241 9.67172 6.81491C9.70781 6.72022 9.7413 6.62346 9.77159 6.52725C9.8379 6.31536 9.72006 6.08982 9.50826 6.0234Z" fill="black"/>
<path d="M4.2562 9.16585C3.89679 9.10132 3.55201 8.99143 3.22508 8.83816C3.22121 8.83614 3.21775 8.83384 3.21368 8.83199C3.13664 8.79573 3.05973 8.75688 2.98518 8.7163C2.98492 8.716 2.98445 8.7158 2.98404 8.71563C2.84726 8.64031 2.71377 8.55697 2.58408 8.46567C0.693027 7.13356 0.238341 4.51129 1.57054 2.62025C1.86022 2.20921 2.21078 1.86628 2.6016 1.59448C2.60642 1.59113 2.61123 1.5878 2.61601 1.58442C3.9932 0.635495 5.86321 0.571544 7.32557 1.54665L7.01149 2.00046C6.92417 2.12677 6.97789 2.21881 7.13075 2.20506L8.49505 2.08292C8.6481 2.06916 8.73963 1.93676 8.69847 1.78896L8.33211 0.468965C8.29109 0.320985 8.18608 0.303272 8.09868 0.429562L7.78387 0.884442C6.7107 0.164042 5.42353 -0.110657 4.14595 0.110882C4.01727 0.133152 3.8904 0.160409 3.76528 0.192138C3.76431 0.192309 3.76353 0.192417 3.76276 0.192589C3.75792 0.193771 3.75302 0.19534 3.74831 0.196652C2.64664 0.479562 1.68544 1.1221 0.999562 2.03887C0.993779 2.04573 0.987825 2.05243 0.982365 2.05989C0.959558 2.09061 0.936922 2.12204 0.91476 2.15347C0.878517 2.20497 0.842791 2.25777 0.808612 2.31056C0.804334 2.31692 0.801067 2.32339 0.797326 2.32982C0.231333 3.20688 -0.0416677 4.22086 0.00515092 5.25314C0.0052584 5.25654 0.00506493 5.25996 0.00515092 5.26344C0.0096866 5.36428 0.0176832 5.46651 0.0285387 5.56716C0.0291191 5.57365 0.0305593 5.5798 0.0316557 5.58629C0.0428766 5.68749 0.0569566 5.78893 0.0746049 5.89035C0.253969 6.92513 0.742103 7.85628 1.47355 8.58081C1.47525 8.58251 1.47701 8.58436 1.47873 8.58612C1.47933 8.58678 1.48 8.58713 1.48058 8.58775C1.6771 8.78158 1.89086 8.96086 2.12101 9.12296C2.72334 9.54738 3.39404 9.82793 4.11433 9.95718C4.33288 9.99646 4.54165 9.85097 4.58086 9.63253C4.62005 9.41393 4.47469 9.20499 4.2562 9.16585Z" fill="black"/>
<path d="M4.75337 1.78809C4.57359 1.78809 4.42798 1.93383 4.42798 2.11334V5.35382L7.39165 6.88587C7.43935 6.91057 7.49042 6.9222 7.54068 6.9222C7.6584 6.9222 7.77209 6.8581 7.82989 6.74625C7.91233 6.58662 7.84995 6.39051 7.69032 6.30808L5.07839 4.95773V2.11334C5.07837 1.93383 4.93292 1.78809 4.75337 1.78809Z" fill="black"/>
</svg>
