<svg width="137" height="41" viewBox="0 0 137 41" fill="none" xmlns="http://www.w3.org/2000/svg">
<g clip-path="url(#clip0_94_1387)">
<path d="M44.8353 29.3799C44.8353 33.2241 44.8353 37.0683 44.8353 40.9564C42.7328 40.9564 40.6882 40.9564 38.5421 40.9564C38.5421 40.7079 38.5421 40.4594 38.5421 40.2109C38.5421 32.771 38.5856 25.331 38.5276 17.8765C38.4841 12.0444 42.5587 7.55707 47.8514 6.82623C53.4921 6.03692 58.2192 8.53639 60.2783 14.0031C60.6698 15.0262 60.8438 16.181 60.8873 17.2918C60.9598 19.192 60.9453 21.1068 60.8003 23.007C60.5538 26.1642 59.4372 28.9121 56.5372 30.5492C54.2316 31.8501 51.694 32.2009 49.1129 31.9817C47.6049 31.8501 46.4304 30.8562 45.4008 29.7745C45.2558 29.6284 45.1688 29.4237 45.0528 29.2483C44.9658 29.2922 44.8933 29.336 44.8353 29.3799ZM44.8353 19.2651C44.8353 20.4637 44.8208 21.6622 44.8498 22.8608C44.8498 23.1678 44.9223 23.4893 45.0528 23.7524C46.0533 25.7257 48.2574 26.7343 50.621 26.325C52.651 25.9742 54.3621 24.3079 54.5651 22.2031C54.7391 20.3906 54.6521 18.5489 54.6521 16.7218C54.6521 16.4587 54.5651 16.181 54.4926 15.9179C53.3906 11.9421 48.7214 11.3428 46.2999 13.3453C45.3573 14.1346 44.6758 15.0555 44.8063 16.4294C44.9078 17.3795 44.8353 18.3296 44.8353 19.2651Z" fill="white"/>
<path d="M99.0524 22.6269C99.5019 21.0337 99.9369 19.5282 100.372 18.0227C101.169 15.2747 101.952 12.5121 102.75 9.76419C103.011 8.88718 103.258 7.99556 103.533 7.11855C103.577 6.97239 103.751 6.75313 103.881 6.75313C105.752 6.7239 107.637 6.73852 109.638 6.73852C109.348 7.68861 109.101 8.56561 108.826 9.44262C108.173 11.5474 107.506 13.6669 106.854 15.7717C106.056 18.3735 105.259 20.9752 104.447 23.577C103.432 26.8219 102.402 30.0669 101.372 33.3264C100.894 34.8173 100.459 36.3374 99.9369 37.8137C99.2409 39.8016 97.5879 41.0148 95.4418 41.0148C93.6873 41.0148 91.9182 41.0002 90.1637 41.0148C89.6271 41.0148 89.3661 40.9125 89.3951 40.2694C89.4531 38.8369 89.3951 37.3899 89.3806 35.9574C89.3806 35.5774 89.4821 35.402 89.9171 35.4166C91.1062 35.4458 92.3097 35.4166 93.4987 35.4312C94.7893 35.4458 95.3113 35.0658 95.4563 33.531C95.6158 31.8355 95.1373 30.2715 94.5863 28.7221C93.6293 26.0473 92.7157 23.3578 91.7877 20.6683C91.1642 18.8704 90.5697 17.0726 89.9607 15.2747C89.0616 12.6291 88.1481 9.98344 87.2346 7.3378C87.1766 7.17702 87.1621 7.00162 87.1041 6.75313C87.8436 6.75313 88.5396 6.75313 89.2356 6.75313C90.5842 6.75313 91.9327 6.76775 93.2812 6.75313C93.6003 6.75313 93.7308 6.84083 93.8323 7.17702C94.2528 8.58023 94.7603 9.96882 95.2098 11.372C95.9203 13.5207 96.6018 15.684 97.3124 17.8473C97.8199 19.3966 98.3564 20.9314 98.8784 22.4661C98.9074 22.4808 98.9509 22.51 99.0524 22.6269Z" fill="white"/>
<path d="M63.8744 31.3237C63.8744 29.7451 63.8599 28.2103 63.8889 26.6755C63.8889 26.5001 64.0339 26.3101 64.1499 26.1786C65.7449 24.4538 67.3545 22.7436 68.9495 21.0335C71.2116 18.5925 73.4591 16.1515 75.7067 13.7105C76.1997 13.1697 76.6927 12.6288 77.2872 11.9857C76.9247 11.9565 76.7072 11.9272 76.4897 11.9272C73.3576 11.9126 70.2255 11.9126 67.0934 11.8834C65.4259 11.8688 64.4834 10.9187 64.4544 9.25236C64.4399 8.44844 64.4544 7.64452 64.4544 6.76751C64.6574 6.7529 64.8459 6.73828 65.0344 6.73828C71.1971 6.73828 77.3597 6.7529 83.5224 6.73828C83.9574 6.73828 84.0879 6.91368 84.0734 7.29372C84.0734 8.71154 84.0589 10.1294 84.0589 11.5472C84.0589 12.0003 83.8269 12.2634 83.5369 12.585C82.4494 13.7397 81.4344 14.9529 80.3613 16.1076C79.0128 17.5547 77.6208 18.9725 76.2722 20.4196C74.5902 22.232 72.9226 24.0591 71.2406 25.8862C71.1681 25.9739 71.0956 26.0616 70.9651 26.2517C71.2696 26.2809 71.4871 26.3247 71.7191 26.3247C75.1557 26.3247 78.6068 26.3247 82.0434 26.3247C82.5654 26.3247 83.1019 26.3247 83.6239 26.2955C83.9429 26.2809 84.0879 26.3978 84.0879 26.734C84.0734 28.2541 84.0879 29.7597 84.0879 31.3383C77.3307 31.3237 70.6461 31.3237 63.8744 31.3237Z" fill="white"/>
<path d="M9.91829 26.4563C9.91829 28.1372 9.91829 29.7158 9.91829 31.3383C9.71528 31.3529 9.52678 31.3821 9.33827 31.3821C7.36622 31.3821 5.37966 31.3967 3.4076 31.3821C1.31954 31.3821 0 30.0666 0 27.9618C0 18.8702 0 9.76395 0 0.672323C0 0.511539 0.0290009 0.365371 0.0435013 0.116887C1.60955 0.248437 3.19009 -0.219299 4.64014 0.64309C5.75667 1.31546 6.32219 2.32402 6.33669 3.62491C6.35119 4.70655 6.33669 5.78819 6.33669 6.94291C7.69973 6.94291 9.03376 6.94291 10.3533 6.94291C10.8753 9.92473 9.39627 12.1465 6.38019 12.2488C6.38019 16.9554 6.38019 21.6766 6.38019 26.4709C7.54022 26.4563 8.70025 26.4563 9.91829 26.4563Z" fill="white"/>
<path d="M25.4483 6.78223C25.4483 9.25246 25.4483 11.5911 25.4483 14.0175C24.2302 14.0175 23.0412 14.0614 21.8667 14.0029C19.8511 13.9006 18.4881 15.5961 18.5171 17.4232C18.5751 21.8082 18.5316 26.2079 18.5316 30.5929C18.5316 30.8268 18.5316 31.0607 18.5316 31.353C18.3286 31.3676 18.1691 31.3968 17.9951 31.3968C16.255 31.3968 14.515 31.3822 12.7749 31.4115C12.2964 31.4115 12.1949 31.2507 12.1949 30.7976C12.2094 26.0763 12.1949 21.3551 12.2094 16.6193C12.2239 11.8689 15.4865 7.82002 20.1266 7.03071C21.8377 6.73838 23.6212 6.85531 25.4483 6.78223Z" fill="white"/>
<path d="M35.497 31.3527C33.409 31.3527 31.3354 31.3527 29.2328 31.3527C29.2328 23.2551 29.2328 15.2158 29.2328 7.11816C31.3209 7.11816 33.38 7.11816 35.497 7.11816C35.497 15.1866 35.497 23.2404 35.497 31.3527Z" fill="white"/>
<path d="M137 27.1285C134.274 27.1285 131.635 27.1431 128.996 27.1139C128.561 27.1139 128.416 27.187 128.43 27.6547C128.459 28.8094 129.112 29.8034 130.112 30.0957C131.171 30.4027 132.215 29.9349 132.838 28.8825C132.925 28.7363 133.114 28.5902 133.259 28.5902C134.404 28.5609 135.564 28.5756 136.782 28.5756C136.594 29.628 136.13 30.4757 135.477 31.192C133.665 33.1798 131.432 33.9107 128.851 33.0921C126.342 32.3028 124.849 30.4904 124.515 27.9032C124.312 26.3977 124.269 24.8483 124.689 23.3281C125.545 20.2586 128.387 18.4169 131.664 18.797C134.564 19.1331 136.957 21.8665 137.015 24.9068C137.015 25.623 137 26.3538 137 27.1285ZM128.546 24.3806C130.054 24.3806 131.533 24.3806 132.998 24.3806C132.998 23.2258 131.997 22.2611 130.779 22.2319C129.619 22.2027 128.575 23.182 128.546 24.3806Z" fill="white"/>
<path d="M115.844 23.0213C114.64 23.0213 113.509 23.0213 112.378 23.0213C112.074 22.1881 112.509 20.9603 113.306 20.2295C114.205 19.4109 115.307 19.1186 116.467 18.9724C118.106 18.7532 119.687 18.8701 121.224 19.5717C122.456 20.1418 123.21 21.1065 123.326 22.4074C123.544 24.7315 123.573 27.0847 123.022 29.3796C122.456 31.7329 120.832 33.1653 118.439 33.3115C117.352 33.3846 116.264 33.3115 115.177 33.2092C114.147 33.1215 113.35 32.5368 112.77 31.7036C111.334 29.6281 111.117 27.7717 112.697 26.1493C113.524 25.2869 114.568 24.8191 115.713 24.5853C116.67 24.3953 117.627 24.1906 118.57 24.0006C119.092 23.8983 119.556 23.7083 119.585 23.0651C119.6 22.5682 119.15 22.1443 118.454 22.0858C117.83 22.042 117.207 22.0712 116.583 22.1297C116.119 22.1735 115.829 22.4659 115.844 23.0213ZM119.73 26.3247C118.845 26.5585 118.12 26.7924 117.381 26.9386C116.54 27.0994 115.873 27.4794 115.51 28.2833C115.148 29.0872 115.684 30.125 116.511 30.2566C118.323 30.5489 119.919 29.2919 120.049 27.4502C120.093 26.9824 120.049 26.5293 119.73 26.3247Z" fill="white"/>
<path d="M29.2618 0C31.2774 0 33.2495 0 35.2215 0.0146168C35.3375 0.0146168 35.5405 0.204635 35.5405 0.306952C35.555 2.03173 35.555 3.75651 35.555 5.52513C33.438 5.52513 31.3789 5.52513 29.2618 5.52513C29.2618 3.71266 29.2618 1.88556 29.2618 0Z" fill="white"/>
<path d="M108.956 33.1799C107.782 33.1799 106.723 33.1799 105.578 33.1799C105.578 32.2445 105.563 31.3529 105.592 30.4612C105.592 30.3589 105.795 30.1689 105.911 30.1689C106.81 30.1397 107.709 30.1397 108.608 30.1689C108.724 30.1689 108.942 30.3443 108.942 30.4466C108.956 31.3382 108.956 32.2445 108.956 33.1799Z" fill="white"/>
</g>
<defs>
<clipPath id="clip0_94_1387">
<rect width="137" height="41" fill="white"/>
</clipPath>
</defs>
</svg>
