<svg width="37" height="26" viewBox="0 0 37 26" fill="none" xmlns="http://www.w3.org/2000/svg">
<path d="M0.119419 9.26104C0.22673 9.12334 0.391663 9.04279 0.566433 9.04279H2.36418C2.56039 9.04279 2.74274 9.14425 2.84587 9.31085L6.21548 14.7531H7.77716C8.08989 14.7531 8.34345 15.0062 8.34345 15.3183C8.34345 15.6304 8.08989 15.8835 7.77716 15.8835H5.89971C5.70349 15.8835 5.52115 15.7821 5.41801 15.6155L2.0484 10.1732H1.29446L2.80942 16.1267C2.83221 16.2165 2.83264 16.3105 2.81055 16.4004L1.86896 20.236H3.55897L5.3061 17.5937C5.41094 17.4352 5.58847 17.3398 5.77874 17.3398H14.9707C15.193 17.3398 15.3949 17.4699 15.4866 17.672C15.4924 17.6848 16.0761 18.9601 17.0469 20.2102C17.8964 21.304 19.2265 22.6079 20.7392 22.6079H26.5994C27.9114 22.6079 29.2024 22.3122 30.2344 21.7754C31.1237 21.3126 31.7392 20.7033 31.9447 20.0886L27.5765 19.0981C27.3912 19.0561 27.2395 18.9242 27.1723 18.7469L25.9491 15.5188C25.8833 15.3451 25.9071 15.1503 26.0128 14.9975C26.1186 14.8449 26.2927 14.7536 26.4787 14.7536H29.4063C27.9771 13.6045 25.5893 12.363 21.9427 12.363C19.6753 12.363 17.8493 12.9045 16.662 13.9289C15.7804 14.6896 15.5484 15.463 15.5474 15.4662C15.4805 15.7125 15.2565 15.8835 15.0008 15.8835H10.0424C9.72971 15.8835 9.47616 15.6304 9.47616 15.3183C9.47616 15.0062 9.72971 14.7531 10.0424 14.7531H14.615C14.9776 13.9729 16.0546 12.3201 18.8649 11.591V11.5152C18.8649 10.2241 19.9173 9.17357 21.2109 9.17357H22.3643V6.57938L8.57187 5.18217C8.2607 5.15066 8.03404 4.87335 8.06568 4.56276C8.09725 4.25218 8.37544 4.02532 8.68626 4.05753L21.1778 5.32298L16.2224 0.990398C15.9872 0.78473 15.9635 0.427585 16.1696 0.19281C16.3756 -0.042037 16.7334 -0.0656343 16.9687 0.140104L23.0839 5.48668L35.6441 4.77769C35.9553 4.75988 36.2238 4.99847 36.2415 5.31005C36.2592 5.62176 36.0203 5.88861 35.7081 5.90628L23.4967 6.59556V9.17357H24.5975C25.9201 9.17357 26.996 10.2475 26.996 11.5675V12.1113C27.2972 12.2253 27.593 12.3492 27.882 12.4852C29.4262 13.2116 30.7449 14.2403 31.6955 15.4599C32.9227 17.0342 33.4385 18.8275 33.0753 20.2569C32.8269 21.2342 32.0039 22.1295 30.7578 22.7778C29.6919 23.3323 28.3965 23.663 27.0669 23.7264V24.8696H27.1689L28.5074 24.5632C28.8121 24.4936 29.116 24.6835 29.1859 24.9878C29.2558 25.2921 29.0653 25.5952 28.7605 25.665L27.3595 25.9857C27.3181 25.9952 27.2756 26 27.233 26H19.7616C19.7208 26 19.6801 25.9956 19.6402 25.9869L18.2724 25.6872C17.9669 25.6203 17.7737 25.3188 17.8407 25.014C17.9077 24.709 18.2099 24.5167 18.5152 24.583L19.823 24.8696H20.2714V23.7096C17.298 23.3467 15.1991 19.6254 14.6155 18.4703H6.08347L4.33634 21.1126C4.2315 21.2711 4.05397 21.3665 3.8637 21.3665H1.14709C0.973167 21.3665 0.808945 21.2867 0.701561 21.1502C0.594181 21.0135 0.555676 20.8354 0.597084 20.6667L1.67678 16.2684L0.0174179 9.74719C-0.0255508 9.57805 0.0119705 9.39867 0.119282 9.26104H0.119419ZM25.8635 11.5675C25.8635 10.8708 25.2956 10.304 24.5976 10.304H21.2109C20.5933 10.304 20.083 10.7673 20.0079 11.3637C20.5915 11.2798 21.2342 11.2325 21.9427 11.2325C23.3258 11.2325 24.6373 11.4037 25.8636 11.7417V11.5675L25.8635 11.5675ZM30.8016 16.1539C30.7374 16.0716 30.663 15.9806 30.5801 15.8841H27.2983L28.124 18.063L32.0412 18.9514C31.9511 18.0647 31.5212 17.077 30.8017 16.154L30.8016 16.1539ZM25.9344 24.8694V23.7383H21.4041V24.8694H25.9344Z" fill="white"/>
</svg>
