<svg width="24" height="24" viewBox="0 0 24 24" fill="none" xmlns="http://www.w3.org/2000/svg">
<path d="M12.4445 15.9158C12.2911 15.9158 12.1667 16.0325 12.1667 16.1763C12.1667 16.3201 12.2911 16.4368 12.4445 16.4368C12.5978 16.4368 12.7222 16.3201 12.7222 16.1763C12.7222 16.0325 12.5978 15.9158 12.4445 15.9158Z" fill="white"/>
<path d="M17.8086 7.40255C17.1891 7.14297 16.3837 7 15.5408 7C14.6979 7 13.8925 7.14297 13.273 7.40255C12.9069 7.55595 12.6274 7.74342 12.4444 7.95378C12.2615 7.74342 11.982 7.55597 11.6159 7.40257C10.9964 7.14297 10.191 7 9.34809 7C8.50515 7 7.69975 7.14297 7.08028 7.40255C6.38365 7.69447 6 8.10959 6 8.57143V14.8571C6 15.319 6.38365 15.7341 7.08028 16.026C7.65642 16.2674 8.39346 16.4078 9.17187 16.4263V16.4286C9.17187 17.3244 10.5788 18 12.4444 18C14.3101 18 15.717 17.3244 15.717 16.4286V16.4263C16.4954 16.4078 17.2325 16.2674 17.8086 16.026C18.5052 15.7341 18.8889 15.319 18.8889 14.8571V8.57143C18.8889 8.10959 18.5052 7.69447 17.8086 7.40255ZM18.3854 13.2857C18.3854 13.5093 18.0923 13.771 17.6205 13.9687C17.1099 14.1827 16.4243 14.3121 15.717 14.3307V13.2857C15.717 13.285 15.717 13.2842 15.717 13.2835C16.4954 13.265 17.2324 13.1246 17.8086 12.8832C18.0348 12.7884 18.2277 12.6806 18.3854 12.5625L18.3854 13.2857ZM12.1927 10.1429C12.1927 10.3664 11.8996 10.6281 11.4278 10.8259C10.8748 11.0576 10.1168 11.1905 9.34809 11.1905C8.57939 11.1905 7.82136 11.0576 7.26837 10.8259C6.79657 10.6281 6.50347 10.3664 6.50347 10.1429V9.41963C6.66124 9.53775 6.85414 9.64555 7.08028 9.74031C7.69975 9.99988 8.50515 10.1429 9.34809 10.1429C10.191 10.1429 10.9964 9.99988 11.6159 9.74031C11.842 9.64555 12.0349 9.53775 12.1927 9.41963V10.1429ZM7.08028 11.3117C7.69975 11.5713 8.50515 11.7143 9.34809 11.7143C10.191 11.7143 10.9964 11.5713 11.6159 11.3117C11.842 11.217 12.0349 11.1092 12.1927 10.9911V11.7189C11.5415 11.7419 10.9169 11.8531 10.4118 12.0382C9.90508 12.2238 9.54049 12.4714 9.34222 12.7618C8.57554 12.7611 7.81995 12.6284 7.26837 12.3973C6.79657 12.1996 6.50347 11.9379 6.50347 11.7143V10.9911C6.66124 11.1092 6.85414 11.217 7.08028 11.3117ZM6.50347 12.5625C6.66124 12.6806 6.85414 12.7884 7.08028 12.8832C7.65645 13.1246 8.39351 13.265 9.17195 13.2835C9.17195 13.2842 9.1719 13.285 9.1719 13.2857V14.3307C8.4646 14.3121 7.77904 14.1827 7.2684 13.9687C6.79657 13.771 6.50347 13.5093 6.50347 13.2857V12.5625ZM9.70198 13.157C9.88854 12.7053 10.9653 12.2381 12.4444 12.2381C13.9235 12.2381 15.0003 12.7053 15.1867 13.1565C15.2048 13.2005 15.2135 13.2428 15.2135 13.2857C15.2135 13.516 14.9407 13.7718 14.4836 13.9699C13.943 14.2043 13.2188 14.3333 12.4444 14.3333C11.6701 14.3333 10.9459 14.2043 10.4053 13.9699C9.9482 13.7718 9.67535 13.516 9.67535 13.2857C9.67535 13.2428 9.68413 13.2005 9.70198 13.157ZM18.3854 11.7143C18.3854 11.9379 18.0923 12.1996 17.6205 12.3973C17.069 12.6284 16.3134 12.7611 15.5467 12.7618C15.3486 12.4716 14.984 12.2239 14.4771 12.0382C13.972 11.853 13.3474 11.7419 12.6962 11.7189V10.9911C12.8539 11.1092 13.0468 11.217 13.273 11.3117C13.8925 11.5713 14.6979 11.7143 15.5408 11.7143C16.3837 11.7143 17.1891 11.5713 17.8086 11.3117C18.0347 11.217 18.2277 11.1092 18.3854 10.9911V11.7143ZM18.3854 10.1429C18.3854 10.3664 18.0923 10.6281 17.6205 10.8259C17.0675 11.0576 16.3095 11.1905 15.5408 11.1905C14.7721 11.1905 14.0141 11.0576 13.4611 10.8259C12.9893 10.6281 12.6962 10.3664 12.6962 10.1429V9.41963C12.8539 9.53775 13.0468 9.64555 13.273 9.74031C13.8925 9.99988 14.6979 10.1429 15.5408 10.1429C16.3837 10.1429 17.1891 9.99988 17.8086 9.74031C18.0347 9.64555 18.2277 9.53775 18.3854 9.41963V10.1429ZM13.4611 7.88843C14.0141 7.6567 14.7721 7.52381 15.5408 7.52381C16.3095 7.52381 17.0675 7.6567 17.6205 7.88843C18.0923 8.08615 18.3854 8.34784 18.3854 8.57143C18.3854 8.79502 18.0923 9.05671 17.6205 9.25442C17.0675 9.48616 16.3095 9.61905 15.5408 9.61905C14.7721 9.61905 14.0141 9.48616 13.4611 9.25442C12.9893 9.05671 12.6962 8.79502 12.6962 8.57143C12.6962 8.34784 12.9893 8.08615 13.4611 7.88843ZM7.26837 7.88843C7.82136 7.6567 8.57939 7.52381 9.34809 7.52381C10.1168 7.52381 10.8748 7.6567 11.4278 7.88843C11.8996 8.08615 12.1927 8.34784 12.1927 8.57143C12.1927 8.79502 11.8996 9.05671 11.4278 9.25442C10.8748 9.48616 10.1168 9.61905 9.34809 9.61905C8.57939 9.61905 7.82136 9.48616 7.26837 9.25442C6.79657 9.05671 6.50347 8.79502 6.50347 8.57143C6.50347 8.34784 6.79657 8.08615 7.26837 7.88843ZM7.26837 15.5401C6.79657 15.3424 6.50347 15.0807 6.50347 14.8571V14.1339C6.66124 14.252 6.85414 14.3598 7.08028 14.4546C7.65642 14.696 8.39346 14.8364 9.17187 14.8549V15.9022C8.46457 15.8836 7.77902 15.7541 7.26837 15.5401ZM14.4836 17.1127C13.943 17.3471 13.2188 17.4762 12.4444 17.4762C11.6701 17.4762 10.9459 17.3471 10.4053 17.1127C9.9482 16.9146 9.67535 16.6588 9.67535 16.4286V15.7206C9.73237 15.7635 9.79538 15.8062 9.86526 15.8483C10.2562 16.0836 10.7881 16.2577 11.4035 16.3517C11.4159 16.3536 11.4282 16.3545 11.4403 16.3545C11.5632 16.3545 11.6707 16.2608 11.6891 16.1306C11.7093 15.9875 11.6141 15.8544 11.4766 15.8334C10.3067 15.6547 9.67535 15.1971 9.67535 14.8571V14.1469C10.2451 14.5806 11.2509 14.8571 12.4444 14.8571C13.638 14.8571 14.6438 14.5806 15.2135 14.1469V14.8571C15.2135 15.1971 14.5822 15.6547 13.4123 15.8334C13.2747 15.8544 13.1796 15.9875 13.1998 16.1306C13.2182 16.2608 13.3257 16.3545 13.4485 16.3545C13.4607 16.3545 13.473 16.3536 13.4854 16.3517C14.1008 16.2577 14.6327 16.0836 15.0236 15.8483C15.0935 15.8062 15.1565 15.7635 15.2135 15.7206V16.4286C15.2135 16.6588 14.9407 16.9146 14.4836 17.1127ZM17.6205 15.5401C17.1099 15.7541 16.4243 15.8836 15.717 15.9022V14.8549C16.4954 14.8364 17.2325 14.696 17.8086 14.4546C18.0347 14.3598 18.2277 14.252 18.3854 14.1339V14.8571C18.3854 15.0807 18.0923 15.3424 17.6205 15.5401Z" fill="white"/>
<path d="M20.2909 3.41044C15.5828 -1.13681 8.11859 -1.13681 3.41046 3.41044C-1.25097 8.2368 -1.11728 15.9281 3.70907 20.5896C8.4172 25.1368 15.8814 25.1368 20.5895 20.5896C25.251 15.7632 25.1173 8.07188 20.2909 3.41044ZM20.0185 20.0185L20.0145 20.0145C15.5842 24.4408 8.40453 24.4375 3.97825 20.0072C-0.448027 15.5769 -0.444752 8.39726 3.98556 3.97097C8.41587 -0.455314 15.5955 -0.45204 20.0218 3.97823C22.1479 6.10626 23.3413 8.99186 23.3394 12C23.3395 15.0075 22.145 17.8918 20.0185 20.0185Z" fill="white"/>
</svg>
