<svg width="24" height="24" viewBox="0 0 24 24" fill="none" xmlns="http://www.w3.org/2000/svg">
<path d="M11.2047 11.7591C11.187 11.6708 10.5794 8.63267 10.5601 8.5364C10.53 8.38578 10.3977 8.27734 10.2441 8.27734H9.5996C9.44598 8.27734 9.3137 8.38578 9.2836 8.5364C9.26403 8.63431 8.65579 11.6755 8.63907 11.7591C8.60416 11.9336 8.71736 12.1034 8.89188 12.1383C9.0664 12.1732 9.23619 12.06 9.27108 11.8855L9.47707 10.8555H10.3667L10.5726 11.8855C10.6076 12.0601 10.7774 12.1732 10.9518 12.1383C11.1264 12.1034 11.2396 11.9336 11.2047 11.7591ZM9.60598 10.2109L9.86379 8.92188H9.97993L10.2377 10.2109H9.60598Z" fill="white"/>
<path d="M16.3672 10.8555H15.4004V10.5332C15.4004 10.3552 15.2561 10.2109 15.0781 10.2109C14.9001 10.2109 14.7559 10.3552 14.7559 10.5332V10.8555H13.7891C13.6111 10.8555 13.4668 10.9998 13.4668 11.1777C13.4668 11.3557 13.6111 11.5 13.7891 11.5H13.8671C14.0507 12.0932 14.3271 12.5486 14.6314 12.9135C14.3837 13.1399 14.1332 13.3257 13.91 13.5042C13.771 13.6154 13.7485 13.8182 13.8597 13.9572C13.9709 14.0962 14.1738 14.1186 14.3127 14.0075C14.5371 13.8279 14.8061 13.6284 15.0781 13.3788C15.3504 13.6286 15.6199 13.8285 15.8436 14.0075C15.9826 14.1187 16.1854 14.0961 16.2965 13.9572C16.4077 13.8182 16.3852 13.6154 16.2462 13.5042C16.0236 13.3261 15.7728 13.1402 15.5249 12.9135C15.8291 12.5486 16.1056 12.0932 16.2892 11.5H16.3672C16.5452 11.5 16.6895 11.3557 16.6895 11.1777C16.6895 10.9998 16.5452 10.8555 16.3672 10.8555ZM15.0781 12.4398C14.8724 12.1816 14.6873 11.8734 14.5478 11.4979H15.6084C15.4689 11.8734 15.2838 12.1816 15.0781 12.4398Z" fill="white"/>
<path d="M17.0332 7.95508H12.384L12.2458 6.84687C12.1855 6.36407 11.7731 6 11.2865 6H7.9668C7.43371 6 7 6.43371 7 6.9668V14.0781C7 14.6112 7.43371 15.0449 7.9668 15.0449H10.6842L10.8206 16.1531C10.8808 16.635 11.2932 17 11.7799 17H17.0332C17.5663 17 18 16.5663 18 16.0332V8.92188C18 8.38878 17.5663 7.95508 17.0332 7.95508ZM7.9668 14.4004C7.7891 14.4004 7.64453 14.2558 7.64453 14.0781V6.9668C7.64453 6.7891 7.7891 6.64453 7.9668 6.64453H11.2865C11.4487 6.64453 11.5862 6.76587 11.6062 6.92671C11.653 7.30131 12.4916 14.0288 12.5379 14.4004H7.9668ZM11.4413 15.9204L11.3336 15.0449H12.1982L11.4413 15.9204ZM17.3555 16.0332C17.3555 16.2109 17.2109 16.3555 17.0332 16.3555H11.9172L13.1441 14.9364C13.2069 14.8655 13.235 14.7715 13.222 14.678L12.4643 8.59961H17.0332C17.2109 8.59961 17.3555 8.74418 17.3555 8.92188V16.0332Z" fill="white"/>
<path d="M20.2909 3.41044C15.5828 -1.13681 8.11859 -1.13681 3.41046 3.41044C-1.25097 8.2368 -1.11728 15.9281 3.70907 20.5896C8.4172 25.1368 15.8814 25.1368 20.5895 20.5896C25.251 15.7632 25.1173 8.07188 20.2909 3.41044ZM20.0185 20.0185L20.0145 20.0145C15.5842 24.4408 8.40453 24.4375 3.97825 20.0072C-0.448027 15.5769 -0.444752 8.39726 3.98556 3.97097C8.41587 -0.455314 15.5955 -0.45204 20.0218 3.97823C22.1479 6.10626 23.3413 8.99186 23.3394 12C23.3395 15.0075 22.145 17.8918 20.0185 20.0185Z" fill="white"/>
</svg>
