<svg width="24" height="24" viewBox="0 0 24 24" fill="none" xmlns="http://www.w3.org/2000/svg">
<path d="M20.2909 3.41044C15.5828 -1.13681 8.11859 -1.13681 3.41046 3.41044C-1.25097 8.2368 -1.11728 15.9281 3.70907 20.5896C8.4172 25.1368 15.8814 25.1368 20.5895 20.5896C25.251 15.7632 25.1173 8.07188 20.2909 3.41044ZM20.0185 20.0185L20.0145 20.0145C15.5842 24.4408 8.40453 24.4375 3.97825 20.0072C-0.448027 15.5769 -0.444752 8.39726 3.98556 3.97097C8.41587 -0.455314 15.5955 -0.45204 20.0218 3.97823C22.1479 6.10626 23.3413 8.99186 23.3394 12C23.3395 15.0075 22.145 17.8918 20.0185 20.0185Z" fill="white"/>
<path d="M12.3847 11.3077C13.0821 11.3077 13.686 11.0462 14.1795 10.5302C14.6729 10.0143 14.9231 9.38303 14.9231 8.65376C14.9231 7.92475 14.673 7.29342 14.1794 6.77735C13.6859 6.26153 13.082 6 12.3847 6C11.6871 6 11.0833 6.26153 10.5899 6.77743C10.0964 7.29334 9.84619 7.92467 9.84619 8.65376C9.84619 9.38303 10.0964 10.0144 10.5899 10.5303C11.0835 11.0461 11.6874 11.3077 12.3847 11.3077ZM11.0267 7.23399C11.4053 6.83813 11.8495 6.6457 12.3847 6.6457C12.9198 6.6457 13.364 6.83813 13.7427 7.23399C14.1214 7.62994 14.3055 8.09439 14.3055 8.65376C14.3055 9.2133 14.1214 9.67767 13.7427 10.0736C13.364 10.4696 12.9198 10.662 12.3847 10.662C11.8496 10.662 11.4055 10.4695 11.0267 10.0736C10.6479 9.67776 10.4638 9.2133 10.4638 8.65376C10.4638 8.09439 10.6479 7.62994 11.0267 7.23399Z" fill="white"/>
<path d="M16.9782 14.4984C16.9636 14.281 16.9342 14.0438 16.8908 13.7933C16.847 13.5409 16.7906 13.3023 16.7231 13.0843C16.6533 12.8589 16.5586 12.6363 16.4413 12.4231C16.3198 12.2017 16.1769 12.0089 16.0166 11.8503C15.8489 11.6844 15.6437 11.5509 15.4063 11.4536C15.1698 11.3568 14.9076 11.3078 14.6272 11.3078C14.5171 11.3078 14.4106 11.3545 14.205 11.493C14.0784 11.5784 13.9303 11.6772 13.7651 11.7864C13.6237 11.8796 13.4323 11.9669 13.1959 12.0459C12.9652 12.1231 12.7309 12.1623 12.4997 12.1623C12.2686 12.1623 12.0343 12.1231 11.8035 12.0459C11.5673 11.9669 11.3758 11.8797 11.2347 11.7865C11.071 11.6783 10.9229 11.5795 10.7944 11.493C10.5889 11.3544 10.4824 11.3077 10.3723 11.3077C10.0918 11.3077 9.82973 11.3568 9.59328 11.4537C9.35608 11.5508 9.15074 11.6843 8.98293 11.8504C8.8226 12.0091 8.67973 12.2018 8.55825 12.4231C8.44114 12.6363 8.34632 12.8588 8.27653 13.0844C8.20913 13.3024 8.15275 13.5409 8.10897 13.7933C8.06551 14.0434 8.03613 14.2807 8.02156 14.4987C8.00724 14.7118 8 14.9336 8 15.1577C8 15.7402 8.17901 16.2119 8.532 16.5597C8.88063 16.9029 9.34184 17.0769 9.90289 17.0769H15.0971C15.658 17.0769 16.1192 16.9029 16.4679 16.5597C16.821 16.2121 17 15.7403 17 15.1576C16.9999 14.9327 16.9926 14.7109 16.9782 14.4984ZM16.0321 16.0858C15.8017 16.3127 15.4959 16.4229 15.097 16.4229H9.90289C9.50398 16.4229 9.19815 16.3127 8.96787 16.0859C8.74195 15.8634 8.63216 15.5597 8.63216 15.1577C8.63216 14.9486 8.63882 14.7421 8.65216 14.5439C8.66516 14.3494 8.69174 14.1358 8.73117 13.9088C8.7701 13.6846 8.81964 13.4742 8.87857 13.2838C8.93511 13.1011 9.01223 12.9203 9.10786 12.7461C9.19913 12.5801 9.30415 12.4376 9.42003 12.3228C9.52842 12.2155 9.66504 12.1276 9.82602 12.0617C9.97491 12.0007 10.1422 11.9674 10.3239 11.9623C10.346 11.9745 10.3854 11.9978 10.4493 12.0408C10.5792 12.1285 10.729 12.2284 10.8946 12.3378C11.0813 12.4609 11.3218 12.5721 11.6091 12.6681C11.9028 12.7664 12.2024 12.8162 12.4998 12.8162C12.7971 12.8162 13.0968 12.7664 13.3903 12.6682C13.6779 12.5721 13.9183 12.4609 14.1052 12.3377C14.2747 12.2256 14.4203 12.1285 14.5502 12.0408C14.6141 11.9979 14.6535 11.9745 14.6756 11.9623C14.8574 11.9674 15.0247 12.0007 15.1736 12.0617C15.3345 12.1276 15.4712 12.2156 15.5796 12.3228C15.6954 12.4375 15.8005 12.58 15.8917 12.7462C15.9874 12.9203 16.0646 13.1012 16.1211 13.2837C16.1801 13.4744 16.2297 13.6847 16.2686 13.9087C16.3079 14.1361 16.3346 14.3499 16.3476 14.544V14.5441C16.361 14.7416 16.3678 14.948 16.3678 15.1577C16.3678 15.5598 16.258 15.8634 16.0321 16.0858Z" fill="white"/>
</svg>
