<svg width="45" height="29" viewBox="0 0 45 29" fill="none" xmlns="http://www.w3.org/2000/svg">
<path d="M1.95675 28.2686C1.66107 28.2688 1.37739 28.1521 1.16804 27.944C0.958688 27.7359 0.840796 27.4535 0.840271 27.1588L0.840271 1.38125C0.840271 1.08614 0.957899 0.803126 1.16728 0.594455C1.37666 0.385785 1.66064 0.268555 1.95675 0.268555L43.0791 0.268555C43.3752 0.268555 43.6592 0.385785 43.8685 0.594455C44.0779 0.803126 44.1956 1.08614 44.1956 1.38125V27.1618C44.1937 27.4557 44.0753 27.7369 43.8661 27.9441C43.6569 28.1513 43.374 28.2676 43.0791 28.2676L1.95675 28.2686Z" fill="white"/>
<path d="M13.5693 4.86093C13.1002 4.83287 12.6305 4.90427 12.1912 5.07043C11.7519 5.23659 11.3529 5.49373 11.0206 5.82487C10.6883 6.15602 10.4303 6.55363 10.2636 6.99147C10.0969 7.42931 10.0252 7.89742 10.0534 8.36488V14.7142C10.1729 15.1199 10.425 15.4742 10.7696 15.7209C11.1142 15.9675 11.5315 16.0924 11.9555 16.0757C12.1821 16.0891 12.4091 16.0566 12.6228 15.9803C12.8365 15.904 13.0326 15.7854 13.1991 15.6317C13.3657 15.478 13.4993 15.2922 13.5921 15.0857C13.6848 14.8792 13.7346 14.6561 13.7387 14.4299V11.2093H16.5502V14.3855C16.5502 16.1626 14.2716 17.063 12.6182 17.063C11.7145 17.0757 10.8301 16.8015 10.093 16.2801V23.2969H14.5629C15.4483 23.2521 16.2855 22.8817 16.9126 22.2572C17.5397 21.6328 17.9122 20.7987 17.9579 19.9164V4.86093H13.5693Z" fill="#1174CE"/>
<path d="M10.0518 8.36481V14.7142C10.1716 15.12 10.424 15.4743 10.769 15.7208C11.1139 15.9673 11.5317 16.0919 11.9558 16.0747C12.1824 16.088 12.4094 16.0556 12.6231 15.9793C12.8369 15.903 13.0329 15.7844 13.1995 15.6306C13.366 15.4769 13.4997 15.2912 13.5924 15.0847C13.6851 14.8781 13.735 14.6551 13.739 14.4288V11.2083H16.5505V14.3844C16.5505 16.1616 14.272 17.062 12.6186 17.062C11.7148 17.0746 10.8304 16.8004 10.0934 16.2791V23.2958H14.5632C15.4486 23.2511 16.2858 22.8806 16.913 22.2562C17.5401 21.6317 17.9125 20.7976 17.9582 19.9153V4.85889" fill="#0F549D"/>
<path d="M16.5086 11.2119V14.3881C16.5086 16.1652 14.2301 17.0657 12.5767 17.0657C11.6733 17.0791 10.7889 16.806 10.0515 16.2857V23.2956H14.5214C15.4069 23.2505 16.2441 22.8797 16.8711 22.2548C17.4981 21.63 17.8702 20.7956 17.9154 19.913" fill="#02375E"/>
<path d="M29.2147 15.9962H31.1594C31.4119 15.9962 31.654 15.8963 31.8326 15.7183C32.0111 15.5404 32.1114 15.2991 32.1114 15.0474C32.1114 14.7958 32.0111 14.5545 31.8326 14.3765C31.654 14.1986 31.4119 14.0986 31.1594 14.0986H29.2147V15.9962Z" fill="#146643"/>
<path d="M31.4091 4.86147C30.9421 4.82851 30.4736 4.89518 30.0346 5.05706C29.5956 5.21893 29.1963 5.47226 28.8633 5.80016C28.5304 6.12805 28.2714 6.52295 28.1038 6.95851C27.9362 7.39406 27.8637 7.86024 27.8912 8.32593V11.2108H33.1061C33.4684 11.2108 33.8159 11.3543 34.0721 11.6096C34.3282 11.8649 34.4722 12.2112 34.4722 12.5723C34.4722 12.9334 34.3282 13.2797 34.0721 13.5351C33.8159 13.7904 33.4684 13.9338 33.1061 13.9338C33.2907 13.9226 33.4758 13.9479 33.6506 14.0083C33.8255 14.0687 33.9866 14.1629 34.1247 14.2856C34.2628 14.4083 34.3752 14.557 34.4554 14.7232C34.5356 14.8894 34.5821 15.0697 34.592 15.2539C34.5849 15.4389 34.5403 15.6206 34.461 15.7881C34.3817 15.9556 34.2694 16.1055 34.1306 16.2287C33.9919 16.352 33.8297 16.446 33.6536 16.5053C33.4776 16.5647 33.2914 16.588 33.1061 16.5739H27.8496V23.2994H32.3195C33.205 23.2544 34.0422 22.8835 34.6692 22.2587C35.2962 21.6338 35.6683 20.7994 35.7135 19.9169V4.86147H31.4091Z" fill="#1BCC38"/>
<path d="M27.8496 8.36432V11.2078H33.0644C33.4268 11.2078 33.7742 11.3512 34.0304 11.6065C34.2866 11.8619 34.4306 12.2082 34.4306 12.5693C34.4306 12.9303 34.2866 13.2767 34.0304 13.532C33.7742 13.7873 33.4268 13.9308 33.0644 13.9308C33.2491 13.9195 33.4342 13.9449 33.609 14.0052C33.7839 14.0656 33.945 14.1599 34.0831 14.2826C34.2212 14.4053 34.3336 14.554 34.4138 14.7201C34.494 14.8863 34.5405 15.0667 34.5504 15.2508C34.5433 15.4358 34.4987 15.6176 34.4194 15.7851C34.3401 15.9526 34.2278 16.1024 34.089 16.2257C33.9503 16.3489 33.7881 16.443 33.612 16.5023C33.436 16.5616 33.2497 16.5849 33.0644 16.5708H27.8496V23.2963H32.3195C33.205 23.2513 34.0422 22.8805 34.6692 22.2556C35.2962 21.6308 35.6683 20.7963 35.7135 19.9138V4.8584" fill="#329947"/>
<path d="M34.4306 12.5723C34.425 12.9313 34.2793 13.2742 34.0245 13.5281C33.7697 13.782 33.4257 13.9272 33.0654 13.9328C33.2499 13.9216 33.4347 13.9468 33.6094 14.007C33.784 14.0672 33.945 14.1612 34.0831 14.2835C34.2212 14.4059 34.3336 14.5543 34.414 14.7201C34.4944 14.8859 34.5411 15.066 34.5514 15.2498C34.5442 15.4349 34.4997 15.6166 34.4204 15.7841C34.3411 15.9516 34.2288 16.1015 34.09 16.2247C33.9513 16.3479 33.7891 16.442 33.613 16.5013C33.437 16.5606 33.2507 16.5839 33.0654 16.5699H27.8496V23.2934H32.3195C33.204 23.2485 34.0405 22.8785 34.6673 22.2549C35.2941 21.6313 35.6668 20.7983 35.7135 19.9168" fill="#146643"/>
<path d="M32.0708 12.7381C32.0612 12.4895 31.9579 12.2537 31.7814 12.0778C31.6049 11.9018 31.3682 11.7988 31.1188 11.7893H29.2147V13.6454H31.1594C31.4001 13.6429 31.6303 13.5465 31.8007 13.3769C31.971 13.2073 32.068 12.978 32.0708 12.7381Z" fill="#146643"/>
<path d="M22.4268 4.86157C21.9602 4.82893 21.492 4.89578 21.0534 5.05766C20.6148 5.21955 20.2158 5.47275 19.8831 5.80039C19.5504 6.12803 19.2916 6.52259 19.124 6.95775C18.9564 7.39292 18.8837 7.8587 18.9109 8.32405V11.8714C19.4049 11.4372 20.0357 11.1889 20.6941 11.1695H25.4126V12.1568C24.5155 11.9481 23.6008 11.8238 22.6804 11.7855C22.4031 11.7855 22.1286 11.84 21.8725 11.9457C21.6164 12.0514 21.3836 12.2064 21.1876 12.4018C20.9916 12.5971 20.8361 12.8291 20.73 13.0843C20.6239 13.3396 20.5693 13.6132 20.5693 13.8895C20.5693 14.1658 20.6239 14.4394 20.73 14.6946C20.8361 14.9499 20.9916 15.1818 21.1876 15.3772C21.3836 15.5726 21.6164 15.7276 21.8725 15.8333C22.1286 15.939 22.4031 15.9934 22.6804 15.9934C23.5998 15.9737 24.515 15.8633 25.4126 15.6637V16.571H20.6941C20.031 16.5794 19.391 16.3289 18.9109 15.873V23.2936H23.3788C24.2643 23.2485 25.1016 22.8777 25.7285 22.2529C26.3555 21.628 26.7276 20.7936 26.7728 19.9111V4.86157H22.4268Z" fill="#E20E37"/>
<path d="M18.9089 8.36432V11.9117C19.4029 11.4775 20.0338 11.2292 20.6921 11.2097H25.4077V12.197C24.5106 11.9884 23.5958 11.8641 22.6754 11.8258C22.1155 11.8258 21.5786 12.0475 21.1827 12.442C20.7867 12.8366 20.5643 13.3718 20.5643 13.9298C20.5643 14.4878 20.7867 15.0229 21.1827 15.4175C21.5786 15.812 22.1155 16.0337 22.6754 16.0337C23.5949 16.014 24.5101 15.9035 25.4077 15.704V16.5698H20.6921C20.0286 16.5774 19.3885 16.3258 18.9089 15.8688V23.2894H23.3788C24.2643 23.2444 25.1016 22.8735 25.7285 22.2487C26.3555 21.6239 26.7276 20.7894 26.7728 19.9069V4.8584" fill="#B41F36"/>
<path d="M25.4077 11.2119V12.1992C24.5106 11.9906 23.5958 11.8663 22.6754 11.828C22.1155 11.828 21.5786 12.0497 21.1827 12.4442C20.7867 12.8388 20.5643 13.3739 20.5643 13.9319C20.5643 14.4899 20.7867 15.0251 21.1827 15.4197C21.5786 15.8142 22.1155 16.0359 22.6754 16.0359C23.5949 16.0162 24.5101 15.9057 25.4077 15.7061V16.572H20.6921C20.0285 16.5794 19.3884 16.3274 18.9089 15.87V23.2965H23.3788C24.2643 23.2515 25.1016 22.8807 25.7285 22.2558C26.3555 21.631 26.7276 20.7965 26.7728 19.914" fill="#720A1E"/>
</svg>
