<svg width="31" height="21" viewBox="0 0 31 21" fill="none" xmlns="http://www.w3.org/2000/svg">
<path d="M17.7594 11.4813C17.7594 11.7329 17.9638 11.9387 18.2136 11.9387H19.3491C19.5353 11.9387 19.7079 11.8381 19.8033 11.6734C19.8941 11.5088 19.8941 11.3075 19.8033 11.1474L17.4142 6.98033C17.178 6.56865 16.742 6.3125 16.2696 6.3125H14.8025C14.3165 6.3125 13.9168 6.71045 13.9168 7.20446V11.4081C13.9168 11.7009 14.153 11.9342 14.4391 11.9342H16.097C16.3468 11.9342 16.5512 11.7283 16.5512 11.4767C16.5512 11.2252 16.3468 11.0193 16.097 11.0193H14.8252V7.22733H16.2741C16.4195 7.22733 16.5603 7.30509 16.6329 7.43775L18.6905 11.0239H18.2181C17.9638 11.0239 17.7594 11.2297 17.7594 11.4813Z" fill="white"/>
<path d="M23.4869 15.6118C22.5103 15.6118 21.7155 16.4123 21.7155 17.3957C21.7155 18.3792 22.5103 19.1797 23.4869 19.1797C24.4634 19.1797 25.2583 18.3792 25.2583 17.3957C25.2583 16.4123 24.468 15.6118 23.4869 15.6118ZM23.4869 18.2648C23.01 18.2648 22.6239 17.876 22.6239 17.3957C22.6239 16.9155 23.01 16.5267 23.4869 16.5267C23.9638 16.5267 24.3499 16.9155 24.3499 17.3957C24.3499 17.876 23.9638 18.2648 23.4869 18.2648Z" fill="white"/>
<path d="M15.1704 12.9355C14.9206 12.9355 14.7162 13.1414 14.7162 13.393C14.7162 13.6445 14.9206 13.8504 15.1704 13.8504H16.8464C17.0962 13.8504 17.3006 13.6445 17.3006 13.393C17.3006 13.1414 17.0962 12.9355 16.8464 12.9355H15.1704Z" fill="white"/>
<path d="M1.93945 16.9333H0.903866V15.5474H19.0311C19.281 15.5474 19.4853 15.3415 19.4853 15.09C19.4853 14.8384 19.281 14.6325 19.0311 14.6325H0.903866V11.9338H12.2908C12.6768 11.9338 12.9902 11.6182 12.9902 11.2294V7.01655C12.9902 6.62775 12.6768 6.31213 12.2908 6.31213H0.903866V5.60771H8.9569C9.20671 5.60771 9.4111 5.40187 9.4111 5.15029C9.4111 4.89871 9.20671 4.69287 8.9569 4.69287H0.508708C0.227102 4.69287 0 4.92158 0 5.20518V6.76954V11.4764V15.09V17.3313C0 17.6149 0.227102 17.8436 0.508708 17.8436H1.93945C2.18926 17.8436 2.39365 17.6378 2.39365 17.3862C2.39365 17.1346 2.18926 16.9333 1.93945 16.9333ZM12.0818 11.0235H6.8176V7.23154H12.0818V11.0235ZM5.90919 7.22696V11.0189H0.903866V7.22696H5.90919Z" fill="white"/>
<path d="M30.9358 15.2411L30.6951 12.9266C30.5861 11.9019 29.7776 11.1152 28.7738 11.0283V10.2507L29.169 10.4336C29.228 10.4611 29.2962 10.4748 29.3597 10.4748C29.5323 10.4748 29.6959 10.3742 29.7731 10.2095C29.8775 9.98079 29.7776 9.70634 29.5505 9.60114L27.4748 8.64513C27.2477 8.53993 26.9752 8.64056 26.8707 8.86927C26.7662 9.09798 26.8662 9.37243 27.0933 9.47763L27.8654 9.83442V11.0191H23.8684C23.7594 11.0191 23.6595 10.9597 23.605 10.8636L21.0842 6.46783C20.4574 5.37003 19.2855 4.68848 18.0274 4.68848H11.0735C10.8237 4.68848 10.6193 4.89431 10.6193 5.14589C10.6193 5.39747 10.8237 5.60331 11.0735 5.60331H18.0274C18.695 5.60331 19.3309 5.86404 19.8124 6.30773H18.9903C18.7677 6.30773 18.5633 6.42666 18.4498 6.61878C18.3408 6.81089 18.3408 7.05332 18.4498 7.24544L20.9206 11.5543C21.0524 11.783 21.2976 11.9248 21.5565 11.9248H23.8639H28.3105H28.5831C29.1962 11.9248 29.7095 12.3868 29.7776 12.9997C29.5914 12.9266 29.387 12.89 29.1781 12.89H27.8018C27.5566 12.89 27.3249 13.0043 27.175 13.201C27.0251 13.3977 26.9752 13.6493 27.0388 13.8917L27.0615 13.9832C27.3067 14.9026 28.1379 15.543 29.0827 15.543H30.0411C30.0683 15.8769 30.0819 16.2154 30.0819 16.5493V16.5722C30.0819 16.7689 29.923 16.9244 29.7322 16.9244H27.0342C26.8071 15.1496 25.2992 13.7728 23.4778 13.7728C21.6565 13.7728 20.1485 15.1496 19.9214 16.9244H4.05606C3.80624 16.9244 3.60185 17.1302 3.60185 17.3818C3.60185 17.6334 3.80624 17.8392 4.05606 17.8392H19.9305C20.153 19.6186 21.661 21 23.4869 21C25.3128 21 26.8207 19.6186 27.0433 17.8392H29.7413C30.4317 17.8392 30.9994 17.272 30.9994 16.5767V16.5539C31.004 16.1239 30.9813 15.6756 30.9358 15.2411ZM19.4899 7.22714H20.471L22.6421 11.0191H21.661L19.4899 7.22714ZM23.4869 20.0943C22.0107 20.0943 20.8071 18.8867 20.8071 17.3955C20.8071 15.9043 22.0062 14.6968 23.4869 14.6968C24.9676 14.6968 26.1667 15.9043 26.1667 17.3955C26.1667 18.8867 24.9676 20.0943 23.4869 20.0943ZM29.0918 14.6327C28.5785 14.6327 28.1243 14.2988 27.9653 13.8094H29.1871C29.5778 13.8094 29.9048 14.1067 29.9457 14.4955L29.9593 14.6327H29.0918Z" fill="white"/>
<path d="M22.851 5.06801C22.6057 5.1412 22.4377 5.36533 22.4377 5.62606C22.4377 5.87764 22.6103 6.10635 22.851 6.17954C23.6368 6.40825 24.2681 7.04406 24.4998 7.83996C24.5724 8.08697 24.795 8.25621 25.0539 8.25621C25.3037 8.25621 25.5308 8.08239 25.6035 7.83996C25.8306 7.04863 26.4619 6.41282 27.2477 6.17954C27.493 6.10635 27.661 5.88222 27.661 5.62606C27.661 5.36991 27.4884 5.14577 27.2477 5.07259C26.4619 4.84388 25.8306 4.20807 25.6035 3.41674C25.5308 3.16973 25.3082 3.00049 25.0493 3.00049C24.7995 3.00049 24.5724 3.17431 24.4998 3.41674C24.2681 4.2035 23.6368 4.83931 22.851 5.06801ZM25.0493 4.41848C25.34 4.91707 25.7534 5.33332 26.2484 5.62606C25.7534 5.91881 25.34 6.33506 25.0493 6.83364C24.7586 6.33506 24.3453 5.91881 23.8502 5.62606C24.3408 5.33332 24.7586 4.91249 25.0493 4.41848Z" fill="white"/>
<path d="M20.4483 2.47005C20.9479 2.61643 21.3431 3.01895 21.4884 3.51754C21.5565 3.74625 21.7655 3.90634 22.0062 3.90634C22.2424 3.90634 22.4559 3.74625 22.5194 3.51754C22.6648 3.01895 23.0645 2.61643 23.5596 2.47005C23.7867 2.40144 23.9456 2.19103 23.9456 1.95317C23.9456 1.71531 23.7867 1.50033 23.5596 1.43629C23.0645 1.28992 22.6648 0.887389 22.5194 0.388804C22.4513 0.160096 22.2424 0 22.0017 0C21.7655 0 21.552 0.160096 21.4884 0.388804C21.3431 0.887389 20.9434 1.28992 20.4483 1.43629C20.2212 1.5049 20.0622 1.71531 20.0577 1.95774C20.0622 2.19103 20.2212 2.40601 20.4483 2.47005ZM22.0062 1.37683C22.1652 1.59639 22.3559 1.79307 22.5785 1.95317C22.3605 2.11327 22.1652 2.30538 22.0062 2.52952C21.8472 2.30996 21.6565 2.11327 21.4339 1.95317C21.6565 1.79307 21.8472 1.60096 22.0062 1.37683Z" fill="white"/>
</svg>
