<svg width="85" height="24" viewBox="0 0 85 24" fill="none" xmlns="http://www.w3.org/2000/svg">
<path d="M26.1097 16.973C26.1097 19.1938 26.1097 21.4147 26.1097 23.6609C24.8853 23.6609 23.6946 23.6609 22.4449 23.6609C22.4449 23.5173 22.4449 23.3737 22.4449 23.2302C22.4449 18.9321 22.4702 14.6339 22.4364 10.3274C22.4111 6.95809 24.7839 4.3657 27.8661 3.94349C31.1509 3.4875 33.9037 4.93147 35.1028 8.08962C35.3308 8.68072 35.4321 9.34782 35.4575 9.98958C35.4997 11.0873 35.4913 12.1935 35.4068 13.2913C35.2633 15.1153 34.6131 16.7028 32.9242 17.6485C31.5816 18.4001 30.1038 18.6027 28.6007 18.4761C27.7225 18.4001 27.0385 17.8259 26.439 17.201C26.3546 17.1165 26.3039 16.9983 26.2363 16.897C26.1857 16.9223 26.1435 16.9477 26.1097 16.973ZM26.1097 11.1296C26.1097 11.822 26.1012 12.5144 26.1181 13.2068C26.1181 13.3842 26.1603 13.57 26.2363 13.7219C26.819 14.8619 28.1025 15.4446 29.4789 15.2081C30.6611 15.0055 31.6576 14.0428 31.7758 12.8269C31.8771 11.7798 31.8264 10.7158 31.8264 9.66026C31.8264 9.50826 31.7758 9.34782 31.7336 9.19582C31.0918 6.89898 28.3727 6.55277 26.9625 7.70963C26.4137 8.16562 26.0168 8.69761 26.0928 9.49137C26.1519 10.0402 26.1097 10.5891 26.1097 11.1296Z" fill="white"/>
<path d="M57.6828 13.0717C57.9446 12.1513 58.1979 11.2815 58.4512 10.4118C58.9157 8.82425 59.3717 7.22828 59.8361 5.64076C59.9881 5.1341 60.1316 4.619 60.2921 4.11235C60.3174 4.02791 60.4188 3.90124 60.4948 3.90124C61.5841 3.88435 62.6818 3.8928 63.8471 3.8928C63.6782 4.44167 63.5347 4.94833 63.3742 5.45499C62.9943 6.67096 62.6058 7.89538 62.2258 9.11135C61.7614 10.6144 61.297 12.1175 60.8241 13.6206C60.233 15.4952 59.6334 17.3698 59.0339 19.2529C58.7552 20.1142 58.5019 20.9924 58.1979 21.8453C57.7926 22.9937 56.8299 23.6946 55.5802 23.6946C54.5584 23.6946 53.5282 23.6862 52.5065 23.6946C52.194 23.6946 52.042 23.6355 52.0589 23.2639C52.0927 22.4364 52.0589 21.6004 52.0505 20.7729C52.0505 20.5533 52.1096 20.452 52.3629 20.4605C53.0553 20.4773 53.7562 20.4605 54.4487 20.4689C55.2002 20.4773 55.5042 20.2578 55.5886 19.3711C55.6815 18.3916 55.4029 17.4881 55.082 16.593C54.5247 15.0477 53.9927 13.4939 53.4522 11.9402C53.0891 10.9015 52.7429 9.86289 52.3883 8.82425C51.8647 7.29584 51.3327 5.76742 50.8007 4.23901C50.7669 4.14613 50.7585 4.04479 50.7247 3.90124C51.1554 3.90124 51.5607 3.90124 51.966 3.90124C52.7514 3.90124 53.5367 3.90969 54.322 3.90124C54.5078 3.90124 54.5838 3.95191 54.6429 4.14613C54.8878 4.95677 55.1833 5.75898 55.4451 6.56963C55.8588 7.81094 56.2557 9.06069 56.6695 10.3104C56.965 11.2055 57.2775 12.0922 57.5815 12.9788C57.5984 12.9873 57.6237 13.0042 57.6828 13.0717Z" fill="#40C1FB"/>
<path d="M37.197 18.0961C37.197 17.1841 37.1886 16.2975 37.2054 15.4108C37.2054 15.3095 37.2899 15.1997 37.3574 15.1237C38.2863 14.1273 39.2236 13.1393 40.1525 12.1513C41.4698 10.7411 42.7787 9.33093 44.0875 7.92074C44.3746 7.6083 44.6617 7.29586 45.0079 6.92431C44.7968 6.90743 44.6702 6.89054 44.5435 6.89054C42.7195 6.88209 40.8956 6.88209 39.0716 6.8652C38.1005 6.85676 37.5517 6.30788 37.5348 5.34524C37.5263 4.8808 37.5348 4.41637 37.5348 3.90971C37.653 3.90127 37.7628 3.89282 37.8725 3.89282C41.4614 3.89282 45.0502 3.90127 48.639 3.89282C48.8923 3.89282 48.9683 3.99415 48.9599 4.2137C48.9599 5.0328 48.9514 5.85189 48.9514 6.67099C48.9514 6.93276 48.8163 7.08476 48.6474 7.27053C48.0141 7.93763 47.423 8.6385 46.7981 9.3056C46.0128 10.1416 45.2022 10.9607 44.4168 11.7967C43.4373 12.8437 42.4662 13.8993 41.4867 14.9548C41.4445 15.0055 41.4022 15.0561 41.3262 15.1659C41.5036 15.1828 41.6302 15.2081 41.7653 15.2081C43.7666 15.2081 45.7764 15.2081 47.7777 15.2081C48.0817 15.2081 48.3941 15.2081 48.6981 15.1913C48.8839 15.1828 48.9683 15.2504 48.9683 15.4446C48.9599 16.3228 48.9683 17.1925 48.9683 18.1045C45.0333 18.0961 41.1405 18.0961 37.197 18.0961Z" fill="#40C1FB"/>
<path d="M5.77588 15.2841C5.77588 16.2552 5.77588 17.1672 5.77588 18.1045C5.65766 18.1129 5.54788 18.1298 5.43811 18.1298C4.28969 18.1298 3.13282 18.1383 1.9844 18.1298C0.768428 18.1298 0 17.3698 0 16.1539C0 10.9015 0 5.64076 0 0.388422C0 0.295535 0.0168885 0.211092 0.0253328 0.0675398C0.937314 0.143538 1.85774 -0.126678 2.70217 0.371534C3.35237 0.75997 3.6817 1.34262 3.69015 2.09416C3.69859 2.71904 3.69015 3.34392 3.69015 4.01101C4.48391 4.01101 5.26078 4.01101 6.02921 4.01101C6.3332 5.73364 5.47189 7.01717 3.71548 7.07628C3.71548 9.79534 3.71548 12.5228 3.71548 15.2926C4.39102 15.2841 5.06656 15.2841 5.77588 15.2841Z" fill="white"/>
<path d="M14.8197 3.91815C14.8197 5.34523 14.8197 6.69632 14.8197 8.09806C14.1104 8.09806 13.4179 8.1234 12.734 8.08962C11.5602 8.03051 10.7664 9.01005 10.7833 10.0656C10.8171 12.5989 10.7918 15.1406 10.7918 17.6739C10.7918 17.809 10.7918 17.9441 10.7918 18.113C10.6735 18.1214 10.5807 18.1383 10.4793 18.1383C9.46602 18.1383 8.45271 18.1299 7.43939 18.1467C7.16073 18.1467 7.10162 18.0539 7.10162 17.7921C7.11007 15.0646 7.10162 12.3371 7.11007 9.60114C7.11851 6.85676 9.01847 4.51769 11.7206 4.0617C12.7171 3.89282 13.7557 3.96037 14.8197 3.91815Z" fill="white"/>
<path d="M20.6715 18.113C19.4556 18.113 18.248 18.113 17.0236 18.113C17.0236 13.4348 17.0236 8.79049 17.0236 4.11237C18.2396 4.11237 19.4387 4.11237 20.6715 4.11237C20.6715 8.7736 20.6715 13.4264 20.6715 18.113Z" fill="white"/>
<path d="M84.9916 15.6725C83.404 15.6725 81.8672 15.681 80.3303 15.6641C80.077 15.6641 79.9926 15.7063 80.001 15.9765C80.0179 16.6436 80.3979 17.2178 80.9805 17.3867C81.597 17.5641 82.205 17.2938 82.5681 16.6859C82.6187 16.6014 82.7285 16.517 82.8129 16.517C83.48 16.5001 84.1556 16.5085 84.8649 16.5085C84.7551 17.1165 84.4849 17.6063 84.1049 18.0201C83.0494 19.1685 81.749 19.5907 80.2459 19.1178C78.785 18.6618 77.9153 17.6147 77.7211 16.1201C77.6028 15.2503 77.5775 14.3552 77.8224 13.477C78.3206 11.7037 79.9757 10.6398 81.8841 10.8593C83.5729 11.0535 84.9662 12.6326 85 14.389C85 14.8028 84.9916 15.225 84.9916 15.6725ZM80.0686 14.085C80.9468 14.085 81.8081 14.085 82.6609 14.085C82.6609 13.4179 82.0783 12.8606 81.369 12.8437C80.6934 12.8268 80.0854 13.3926 80.0686 14.085Z" fill="white"/>
<path d="M72.6714 13.2997C71.9705 13.2997 71.3118 13.2997 70.6532 13.2997C70.4758 12.8184 70.7292 12.1091 71.1936 11.6869C71.7171 11.214 72.3589 11.0451 73.0345 10.9607C73.9887 10.834 74.9091 10.9016 75.8042 11.3069C76.5219 11.6362 76.961 12.1935 77.0286 12.9451C77.1553 14.2877 77.1721 15.6472 76.8513 16.973C76.5219 18.3325 75.5762 19.16 74.1829 19.2445C73.5496 19.2867 72.9162 19.2445 72.2829 19.1854C71.6834 19.1347 71.2189 18.7969 70.8812 18.3156C70.0452 17.1165 69.9185 16.0441 70.839 15.1068C71.3203 14.6086 71.9283 14.3384 72.5954 14.2033C73.1527 14.0935 73.71 13.9753 74.2589 13.8655C74.5629 13.8064 74.8331 13.6966 74.85 13.3251C74.8584 13.038 74.5966 12.7931 74.1913 12.7593C73.8282 12.734 73.4651 12.7508 73.102 12.7846C72.8318 12.81 72.6629 12.9788 72.6714 13.2997ZM74.9344 15.2081C74.4193 15.3432 73.9971 15.4783 73.5664 15.5628C73.0767 15.6557 72.6882 15.8752 72.4771 16.3397C72.266 16.8041 72.5785 17.4036 73.0598 17.4796C74.1153 17.6485 75.0442 16.9223 75.1202 15.8583C75.1455 15.5881 75.1286 15.3263 74.9344 15.2081Z" fill="white"/>
<path d="M66.8026 17.1925C66.1102 15.9428 65.4347 14.7268 64.7591 13.5108C64.3707 12.81 63.9991 12.0922 63.5769 11.4082C62.7494 10.0571 63.1463 8.08961 64.3453 7.03408C65.5106 6.01232 67.1657 5.80122 68.5084 6.51054C69.8679 7.2283 70.6279 8.70604 70.4252 10.2345C70.3408 10.8847 69.9946 11.4167 69.6906 11.974C68.7532 13.6882 67.8244 15.4023 66.8871 17.1081C66.8786 17.1334 66.8533 17.1419 66.8026 17.1925ZM66.8026 7.49851C65.5106 7.49851 64.5311 8.49494 64.5311 9.79536C64.5396 10.9944 65.5782 12.0246 66.7857 12.0162C68.0186 12.0078 69.0572 10.9776 69.0488 9.76158C69.0404 8.50338 68.0439 7.49851 66.8026 7.49851Z" fill="white"/>
<path d="M17.0405 0C18.2143 0 19.3627 0 20.5111 0.00844427C20.5787 0.00844427 20.6969 0.11822 20.6969 0.17733C20.7053 1.17375 20.7053 2.17018 20.7053 3.19193C19.4725 3.19193 18.2734 3.19193 17.0405 3.19193C17.0405 2.14484 17.0405 1.08931 17.0405 0Z" fill="white"/>
<path d="M67.8159 19.1685C67.132 19.1685 66.5155 19.1685 65.8484 19.1685C65.8484 18.628 65.84 18.1129 65.8569 17.5978C65.8569 17.5387 65.9751 17.429 66.0426 17.429C66.5662 17.4121 67.0897 17.4121 67.6133 17.429C67.6808 17.429 67.8075 17.5303 67.8075 17.5894C67.8244 18.1045 67.8159 18.628 67.8159 19.1685Z" fill="white"/>
</svg>
