<svg width="44" height="29" viewBox="0 0 44 29" fill="none" xmlns="http://www.w3.org/2000/svg">
<path d="M1.76125 28.2686C1.46558 28.2688 1.18189 28.1521 0.972543 27.944C0.763192 27.7359 0.6453 27.4535 0.644775 27.1588L0.644775 1.38125C0.644775 1.08614 0.762404 0.803126 0.971783 0.594455C1.18116 0.385785 1.46514 0.268555 1.76125 0.268555L42.8836 0.268555C43.1797 0.268555 43.4637 0.385785 43.673 0.594455C43.8824 0.803126 44.0001 1.08614 44.0001 1.38125V27.1618C43.9982 27.4557 43.8798 27.7369 43.6706 27.9441C43.4614 28.1513 43.1785 28.2676 42.8836 28.2676L1.76125 28.2686Z" fill="white"/>
<path d="M37.1813 14.4819C37.1813 16.8312 36.2449 19.0843 34.578 20.7455C32.9112 22.4067 30.6504 23.34 28.2931 23.34C25.9358 23.34 23.6751 22.4067 22.0082 20.7455C20.3413 19.0843 19.4049 16.8312 19.4049 14.4819C19.4049 12.1326 20.3413 9.87948 22.0082 8.21826C23.6751 6.55704 25.9358 5.62378 28.2931 5.62378C30.6504 5.62378 32.9112 6.55704 34.578 8.21826C36.2449 9.87948 37.1813 12.1326 37.1813 14.4819Z" fill="#FFB600"/>
<path d="M28.2931 5.62378C30.6482 5.63107 32.9047 6.56667 34.5699 8.22631C36.2352 9.88595 37.174 12.1348 37.1813 14.4819C37.1813 16.8312 36.2449 19.0843 34.578 20.7455C32.9112 22.4067 30.6504 23.34 28.2931 23.34C25.9358 23.34 23.6751 22.4067 22.0082 20.7455C20.3413 19.0843 19.4049 16.8312 19.4049 14.4819" fill="#F7981D"/>
<path d="M28.2931 5.62378C30.6481 5.63107 32.9046 6.56667 34.5699 8.22631C36.2352 9.88595 37.174 12.1348 37.1813 14.4819C37.1822 15.6454 36.9529 16.7977 36.5066 17.8728C36.0602 18.9479 35.4056 19.9248 34.58 20.7475C33.7545 21.5703 32.7743 22.2227 31.6955 22.6676C30.6168 23.1124 29.4606 23.3409 28.2931 23.34" fill="#FF8500"/>
<path d="M16.3477 5.62378C15.1805 5.63026 14.026 5.8658 12.9501 6.31695C11.8742 6.7681 10.8981 7.42603 10.0773 8.25317C8.41975 9.92364 7.49591 12.1819 7.50905 14.5313C7.52219 16.8806 8.47122 19.1285 10.1474 20.7804C11.8235 22.4324 14.0895 23.3531 16.4468 23.34C18.6528 23.3309 20.7785 22.5139 22.4195 21.0445C22.7403 20.7554 23.0384 20.4422 23.3111 20.1076H21.4734C21.2388 19.8228 21.0189 19.5262 20.8146 19.219H23.9619C24.1619 18.9226 24.335 18.6091 24.4791 18.282H20.2965C20.1429 17.9817 20.0169 17.6681 19.92 17.3451H24.8109C25.1137 16.4368 25.2741 15.4873 25.2865 14.5303C25.2728 13.901 25.2098 13.2738 25.0982 12.6544H19.6397C19.6957 12.337 19.7742 12.0239 19.8745 11.7174H24.7654C24.6685 11.3944 24.5425 11.0808 24.3889 10.7805H20.248C20.4021 10.4585 20.5748 10.1457 20.7651 9.84353H23.9134C23.7207 9.50164 23.4835 9.1866 23.2081 8.90657H21.4734C21.7467 8.58751 22.0448 8.2904 22.365 8.018C20.7414 6.52319 18.6066 5.70218 16.3963 5.72251C16.3953 5.62378 16.3953 5.62378 16.3477 5.62378Z" fill="#FF5050"/>
<path d="M7.55365 14.4829C7.55274 15.6464 7.78202 16.7987 8.22837 17.8739C8.67472 18.949 9.32939 19.9258 10.1549 20.7486C10.9804 21.5713 11.9606 22.2238 13.0394 22.6686C14.1182 23.1134 15.2744 23.3419 16.4419 23.341C18.6475 23.3317 20.7729 22.5147 22.4136 21.0455C22.7344 20.7564 23.0325 20.4432 23.3052 20.1086H21.4734C21.2388 19.8238 21.0189 19.5272 20.8146 19.22H23.962C24.162 18.9237 24.335 18.6101 24.4791 18.2831H20.2965C20.1429 17.9827 20.0169 17.6691 19.9201 17.3461H24.811C25.1118 16.4385 25.2705 15.4901 25.2815 14.5343C25.2678 13.905 25.2049 13.2778 25.0933 12.6584H19.6397C19.6958 12.341 19.7742 12.0279 19.8745 11.7214H24.7654C24.6685 11.3984 24.5425 11.0848 24.3889 10.7845H20.251C20.4051 10.4625 20.5778 10.1497 20.7681 9.84753H23.9154C23.7227 9.50564 23.4855 9.1906 23.2101 8.91057H21.4734C21.7465 8.58946 22.0446 8.29036 22.365 8.01607C20.7417 6.52055 18.6069 5.69882 16.3963 5.71861H16.3487" fill="#E52836"/>
<path d="M16.4468 23.3411C18.6528 23.332 20.7785 22.515 22.4195 21.0456C22.7403 20.7565 23.0384 20.4432 23.3111 20.1086H21.4744C21.2397 19.8238 21.0199 19.5272 20.8156 19.22H23.9629C24.1629 18.9237 24.336 18.6101 24.4801 18.2831H20.2975C20.1439 17.9827 20.0179 17.6691 19.921 17.3461H24.8119C25.1127 16.4385 25.2715 15.4901 25.2825 14.5343C25.2688 13.9051 25.2059 13.2779 25.0943 12.6584H19.6397C19.6957 12.341 19.7742 12.0279 19.8745 11.7215H24.7683C24.6715 11.3985 24.5455 11.0849 24.3919 10.7845H20.2509C20.4051 10.4626 20.5778 10.1497 20.768 9.84755H23.9154C23.7226 9.50567 23.4855 9.19063 23.21 8.9106H21.4744C21.7475 8.58949 22.0456 8.29039 22.366 8.0161C20.7419 6.51987 18.6059 5.69809 16.3943 5.71864H16.3477" fill="#CB2026"/>
<path d="M19.5922 16.7309L19.7338 15.9341C19.6566 15.9542 19.5782 15.9697 19.499 15.9805C19.1701 15.9805 19.1226 15.793 19.1701 15.6992L19.4525 14.0593H19.9696L20.1113 13.1707H19.6407L19.7338 12.6079H18.7937C18.7937 12.6079 18.229 15.7011 18.229 16.0763C18.2149 16.1802 18.2242 16.2859 18.2562 16.3857C18.2883 16.4855 18.3424 16.577 18.4144 16.6533C18.4865 16.7297 18.5747 16.789 18.6727 16.827C18.7707 16.8651 18.876 16.8808 18.9809 16.8731C19.1927 16.8709 19.4013 16.8224 19.5922 16.7309Z" fill="white"/>
<path d="M19.924 15.2323C19.9 15.4537 19.926 15.6776 20.0002 15.8876C20.0743 16.0976 20.1947 16.2884 20.3525 16.446C20.5104 16.6035 20.7016 16.7239 20.9122 16.7982C21.1228 16.8724 21.3474 16.8988 21.5695 16.8752C21.906 16.8968 22.2433 16.8487 22.5602 16.734L22.7484 15.8455C22.4352 15.9827 22.0995 16.062 21.7577 16.0794C20.7225 16.0794 20.9137 15.3301 20.9137 15.3301H22.8415C22.9085 15.0533 22.9558 14.7723 22.9832 14.4889C22.9969 14.3065 22.9708 14.1233 22.9069 13.9519C22.8429 13.7804 22.7425 13.6248 22.6126 13.4956C22.4827 13.3664 22.3263 13.2667 22.1541 13.2033C21.982 13.1399 21.7981 13.1144 21.6151 13.1284C20.6274 13.0297 19.924 14.0594 19.924 15.2323ZM21.5695 13.8728C22.0866 13.8728 21.9925 14.4849 21.9925 14.5294H20.9563C20.9563 14.483 21.0504 13.8728 21.5675 13.8728H21.5695Z" fill="white"/>
<path d="M27.5402 16.727L27.7284 15.6953C27.4783 15.8206 27.2074 15.8995 26.929 15.9283C26.2702 15.9283 25.9888 15.4129 25.9888 14.8501C25.9888 13.7256 26.5535 13.1155 27.2113 13.1155C27.514 13.1262 27.8071 13.2239 28.0553 13.3968L28.197 12.4095C27.8522 12.2715 27.4864 12.1924 27.1152 12.1755C26.0334 12.1755 24.9516 13.1125 24.9516 14.8936C24.9516 16.0655 25.5163 16.8623 26.6446 16.8623C26.946 16.8478 27.2449 16.8011 27.5362 16.7231L27.5402 16.727Z" fill="white"/>
<path d="M14.415 13.0326C14.0308 13.0298 13.6491 13.0933 13.2866 13.2202L13.1449 14.017C13.4749 13.8893 13.8263 13.8257 14.1802 13.8294C14.5091 13.8294 14.7944 13.8758 14.7944 14.1572C14.7944 14.3448 14.7478 14.3912 14.7478 14.3912H14.3248C13.5254 14.3912 12.6318 14.719 12.6318 15.7971C12.6124 15.9249 12.6209 16.0555 12.6568 16.1797C12.6927 16.304 12.7551 16.419 12.8398 16.517C12.9245 16.615 13.0294 16.6936 13.1474 16.7474C13.2654 16.8012 13.3936 16.829 13.5234 16.8288C13.8965 16.8241 14.2526 16.6726 14.514 16.4072L14.4675 16.7824H15.3115L15.688 14.2046C15.6989 14.0394 15.6726 13.8738 15.611 13.72C15.5494 13.5663 15.4541 13.4282 15.3321 13.3158C15.2101 13.2035 15.0644 13.1197 14.9057 13.0708C14.747 13.0218 14.5794 13.0087 14.415 13.0326ZM14.6032 15.1415C14.6032 15.2827 14.5041 16.0301 13.9444 16.0301C13.8946 16.0315 13.845 16.0227 13.7987 16.0043C13.7525 15.9859 13.7104 15.9583 13.6752 15.9232C13.6399 15.8881 13.6123 15.8462 13.5938 15.8001C13.5754 15.754 13.5666 15.7046 13.568 15.6549C13.568 15.4209 13.7096 15.0922 14.412 15.0922C14.475 15.1165 14.5409 15.1321 14.6081 15.1386L14.6032 15.1415Z" fill="white"/>
<path d="M16.5825 16.8247C16.7585 16.8551 16.9391 16.8461 17.1112 16.7984C17.2833 16.7506 17.4426 16.6654 17.5776 16.5488C17.7126 16.4322 17.8199 16.2872 17.8918 16.1242C17.9637 15.9612 17.9983 15.7844 17.9932 15.6064C17.9932 14.4345 16.8648 14.6694 16.8648 14.2005C16.8648 13.9665 17.0531 13.8727 17.382 13.8727C17.5236 13.8727 18.0407 13.9191 18.0407 13.9191L18.1824 13.0779C17.8905 13.0078 17.591 12.9746 17.2908 12.9792C16.5855 12.9792 15.8801 13.2606 15.8801 14.1975C15.8801 15.2756 17.056 15.1848 17.056 15.6034C17.056 15.8848 16.7271 15.9312 16.4913 15.9312C16.2048 15.9236 15.9207 15.8761 15.6473 15.79L15.4997 16.6342C15.5472 16.7329 15.783 16.8247 16.5825 16.8247Z" fill="white"/>
<path d="M35.3466 12.2793L35.1584 13.545C35.0484 13.4118 34.9129 13.3018 34.7599 13.2212C34.6068 13.1407 34.4392 13.0914 34.2668 13.0761C33.4227 13.0761 32.6678 14.1078 32.6678 15.3261C32.6678 16.0755 33.0443 16.8732 33.8438 16.8732C34.0099 16.8726 34.1743 16.8391 34.3273 16.7747C34.4804 16.7103 34.619 16.6163 34.7354 16.4981L34.6888 16.8258H35.6289L36.3343 12.3267L35.3466 12.2793ZM34.9236 14.7634C34.9236 15.2787 34.6888 15.9353 34.1717 15.9353C33.8428 15.9353 33.6545 15.6539 33.6545 15.1859C33.6545 14.4366 33.9834 13.9676 34.4065 13.9676C34.7393 13.9676 34.9236 14.2016 34.9236 14.7643V14.7634Z" fill="white"/>
<path d="M9.29125 16.7785L9.85593 13.4038L9.955 16.7785H10.6138L11.8353 13.4038L11.3191 16.7785H12.3098L13.0558 12.2793H11.5034L10.5633 15.0438L10.5167 12.2793H9.15157L8.39966 16.7785H9.29125Z" fill="white"/>
<path d="M23.8728 16.7754C24.1551 15.2283 24.2017 13.9635 24.8634 14.1975C24.9168 13.8234 25.0278 13.4598 25.1923 13.1194H25.0041C24.5811 13.1194 24.2522 13.6821 24.2522 13.6821L24.3513 13.1668H23.4597L22.8375 16.8247H23.8728V16.7754Z" fill="white"/>
<path d="M29.6989 13.0335C29.3147 13.0307 28.933 13.0942 28.5705 13.2211L28.4289 14.0179C28.7588 13.8902 29.1102 13.8266 29.4641 13.8303C29.793 13.8303 30.0783 13.8767 30.0783 14.1581C30.0783 14.3457 30.0317 14.3921 30.0317 14.3921H29.6087C28.8093 14.3921 27.9157 14.7199 27.9157 15.798C27.8961 15.9259 27.9045 16.0565 27.9404 16.1808C27.9762 16.3051 28.0386 16.4203 28.1233 16.5183C28.208 16.6163 28.313 16.6949 28.4311 16.7487C28.5491 16.8024 28.6775 16.8301 28.8073 16.8297C29.1804 16.825 29.5365 16.6735 29.798 16.4082L29.7514 16.7833H30.5954L30.9719 14.2055C30.9858 14.0395 30.9616 13.8726 30.9011 13.7173C30.8406 13.5621 30.7453 13.4227 30.6226 13.3097C30.4998 13.1967 30.3528 13.1131 30.1927 13.0652C30.0327 13.0174 29.8638 13.0065 29.6989 13.0335ZM29.9337 15.1424C29.9337 15.2836 29.8346 16.031 29.2749 16.031C29.2251 16.0324 29.1755 16.0236 29.1292 16.0052C29.0829 15.9868 29.0409 15.9593 29.0056 15.9241C28.9704 15.889 28.9427 15.8471 28.9243 15.801C28.9059 15.7549 28.8971 15.7055 28.8984 15.6558C28.8984 15.4218 29.0401 15.0931 29.7425 15.0931C29.8921 15.1385 29.8921 15.1385 29.9386 15.1385L29.9337 15.1424Z" fill="white"/>
<path d="M31.7733 16.7754C32.0556 15.2283 32.1022 13.9635 32.764 14.1975C32.8174 13.8234 32.9283 13.4598 33.0928 13.1194H32.9046C32.4816 13.1194 32.1527 13.6821 32.1527 13.6821L32.2518 13.1668H31.3602L30.746 16.8198H31.7812L31.7733 16.7754Z" fill="white"/>
<path d="M18.1359 16.0753C18.1217 16.1792 18.131 16.2849 18.1631 16.3847C18.1952 16.4845 18.2492 16.576 18.3213 16.6523C18.3933 16.7287 18.4816 16.788 18.5796 16.8261C18.6776 16.8641 18.7829 16.8798 18.8878 16.8721C19.1301 16.8731 19.37 16.825 19.5931 16.7309L19.7348 15.9341C19.6575 15.9542 19.5791 15.9697 19.5 15.9805C19.1711 15.9805 19.1236 15.793 19.1711 15.6992L19.4535 14.0593H19.9706L20.1122 13.1707H19.6407L19.7398 12.6079" fill="#DCE5E5"/>
<path d="M20.3916 15.2323C20.3916 16.5445 20.8146 16.8723 21.5675 16.8723C21.904 16.8939 22.2413 16.8458 22.5582 16.7311L22.7464 15.8425C22.4332 15.9798 22.0975 16.059 21.7557 16.0765C20.7205 16.0765 20.9117 15.3271 20.9117 15.3271H22.8395C22.9065 15.0504 22.9538 14.7693 22.9812 14.4859C22.9944 14.3039 22.968 14.1211 22.9039 13.9501C22.8398 13.7791 22.7395 13.6238 22.6097 13.495C22.48 13.3661 22.3239 13.2667 22.152 13.2034C21.9802 13.1402 21.7967 13.1146 21.6141 13.1284C20.6264 13.0297 20.3916 14.0594 20.3916 15.2323ZM21.5675 13.8728C22.0846 13.8728 22.1817 14.4849 22.1817 14.5294H20.9563C20.9563 14.483 21.0553 13.8728 21.5685 13.8728H21.5675Z" fill="#DCE5E5"/>
<path d="M27.5402 16.727L27.7284 15.6953C27.4783 15.8206 27.2074 15.8995 26.929 15.9283C26.2702 15.9283 25.9888 15.4129 25.9888 14.8501C25.9888 13.7256 26.5535 13.1155 27.2113 13.1155C27.514 13.1262 27.8071 13.2239 28.0554 13.3968L28.197 12.4095C27.8522 12.2715 27.4865 12.1924 27.1152 12.1755C26.0334 12.1755 25.4222 13.1125 25.4222 14.8936C25.4222 16.0655 25.5212 16.8623 26.6447 16.8623C26.9472 16.8493 27.2474 16.804 27.5402 16.727Z" fill="#DCE5E5"/>
<path d="M13.1499 14.0593C13.4798 13.9316 13.8312 13.868 14.1851 13.8717C14.514 13.8717 14.7993 13.9181 14.7993 14.1995C14.7993 14.3871 14.7528 14.4335 14.7528 14.4335H14.3297C13.5303 14.4335 12.6367 14.7612 12.6367 15.8394C12.6171 15.9673 12.6255 16.0979 12.6614 16.2222C12.6972 16.3465 12.7596 16.4616 12.8443 16.5597C12.929 16.6577 13.034 16.7363 13.1521 16.79C13.2702 16.8438 13.3985 16.8715 13.5283 16.8711C13.9014 16.8665 14.2576 16.7149 14.519 16.4495L14.4724 16.8247H15.3164L15.6929 14.2469C15.6929 13.1687 14.7528 13.1223 14.3763 13.1223L13.1499 14.0593ZM15.0817 15.1374C14.9804 15.3659 14.8246 15.5662 14.628 15.7211C14.4313 15.8759 14.1997 15.9806 13.9533 16.026C13.9035 16.0273 13.8539 16.0186 13.8076 16.0002C13.7613 15.9818 13.7193 15.9542 13.6841 15.9191C13.6488 15.884 13.6211 15.8421 13.6027 15.796C13.5843 15.7498 13.5755 15.7004 13.5768 15.6508C13.5768 15.4168 13.7185 15.088 14.4209 15.088C14.6387 15.1223 14.8591 15.1378 15.0797 15.1344L15.0817 15.1374Z" fill="#DCE5E5"/>
<path d="M15.5473 16.7328C15.9017 16.8149 16.2657 16.8481 16.6291 16.8316C16.8051 16.8619 16.9857 16.8529 17.1578 16.8052C17.3299 16.7575 17.4892 16.6722 17.6242 16.5556C17.7592 16.4391 17.8665 16.294 17.9384 16.131C18.0103 15.9681 18.0449 15.7912 18.0398 15.6132C18.0398 14.4413 16.9114 14.6763 16.9114 14.2073C16.9114 13.9733 17.0997 13.8795 17.4286 13.8795C17.5702 13.8795 18.0874 13.9259 18.0874 13.9259L18.229 13.0847C17.9372 13.0146 17.6376 12.9815 17.3374 12.986C16.6321 12.986 16.3973 13.2674 16.3973 14.2043C16.3973 15.2825 17.1026 15.1916 17.1026 15.6103C17.1026 15.8916 16.7737 15.9381 16.538 15.9381" fill="#DCE5E5"/>
<path d="M35.1584 13.545C35.0484 13.4118 34.913 13.3017 34.7599 13.2212C34.6068 13.1407 34.4392 13.0913 34.2668 13.076C33.4228 13.076 33.1385 14.1078 33.1385 15.3261C33.1385 16.0755 33.0394 16.8732 33.8438 16.8732C34.0099 16.8726 34.1743 16.8391 34.3273 16.7747C34.4804 16.7103 34.6191 16.6163 34.7354 16.498L34.6888 16.8258H35.629L36.3343 12.3267L35.1584 13.545ZM35.1109 14.7633C35.1109 15.2787 34.6878 15.9353 34.1707 15.9353C33.8418 15.9353 33.6536 15.6539 33.6536 15.1859C33.6536 14.4365 33.9825 13.9676 34.4055 13.9676C34.506 13.9687 34.6051 13.9909 34.6964 14.0326C34.7878 14.0743 34.8693 14.1347 34.9358 14.2097C35.0023 14.2848 35.0522 14.373 35.0824 14.4685C35.1125 14.5641 35.1222 14.6648 35.1109 14.7643V14.7633Z" fill="#DCE5E5"/>
<path d="M9.29125 16.7785L9.85593 13.4038L9.955 16.7785H10.6138L11.8353 13.4038L11.3191 16.7785H12.3098L13.0558 12.2793H11.8798L10.5623 15.0438L10.5157 12.2793H9.99858L8.39966 16.7785H9.29125Z" fill="#DCE5E5"/>
<path d="M22.8841 16.7754H23.8748C24.1571 15.2283 24.2037 13.9635 24.8654 14.1975C24.9182 13.8235 25.0285 13.4599 25.1923 13.1194H25.0041C24.5811 13.1194 24.2522 13.6821 24.2522 13.6821L24.3513 13.1668" fill="#DCE5E5"/>
<path d="M28.4338 14.0593C28.7638 13.9316 29.1151 13.868 29.469 13.8717C29.7979 13.8717 30.0832 13.9181 30.0832 14.1995C30.0832 14.3871 30.0367 14.4335 30.0367 14.4335H29.6137C28.8142 14.4335 27.9206 14.7612 27.9206 15.8394C27.9011 15.9673 27.9095 16.0979 27.9453 16.2222C27.9812 16.3465 28.0436 16.4616 28.1283 16.5597C28.213 16.6577 28.318 16.7363 28.436 16.79C28.5541 16.8438 28.6824 16.8715 28.8122 16.8711C29.1854 16.8665 29.5415 16.7149 29.8029 16.4495L29.7563 16.8247H30.6004L30.9768 14.2469C30.9768 13.1687 30.0367 13.1223 29.6602 13.1223L28.4338 14.0593ZM30.3656 15.1374C30.2643 15.3659 30.1086 15.5662 29.9119 15.7211C29.7153 15.8759 29.4837 15.9806 29.2372 16.026C29.1874 16.0273 29.1379 16.0186 29.0916 16.0002C29.0453 15.9818 29.0032 15.9542 28.968 15.9191C28.9328 15.884 28.9051 15.8421 28.8866 15.796C28.8682 15.7498 28.8594 15.7004 28.8608 15.6508C28.8608 15.4168 29.0024 15.088 29.7048 15.088C29.9228 15.121 30.1431 15.1365 30.3636 15.1344L30.3656 15.1374Z" fill="#DCE5E5"/>
<path d="M30.7846 16.7754H31.7753C32.0576 15.2283 32.1042 13.9635 32.7659 14.1975C32.8187 13.8235 32.929 13.4599 33.0928 13.1194H32.9046C32.4816 13.1194 32.1527 13.6821 32.1527 13.6821L32.2518 13.1668" fill="#DCE5E5"/>
</svg>
