<svg width="165" height="28" viewBox="0 0 165 28" fill="none" xmlns="http://www.w3.org/2000/svg">
<path d="M27.7713 25.9669C27.7804 26.1657 27.7731 26.3648 27.7495 26.5624C27.7299 26.7172 27.6702 26.8641 27.5764 26.9881C27.4827 27.1121 27.3584 27.2088 27.2159 27.2685H26.5511C26.4929 27.252 26.4377 27.226 26.3878 27.1913C26.21 27.0648 26.0857 26.8753 26.0393 26.6604C25.9855 26.3917 25.9636 26.1175 25.9739 25.8436C25.9629 23.1963 25.9593 20.549 25.963 17.9017C25.9523 13.346 25.945 8.79775 25.9412 4.25681C25.9412 4.05832 25.9413 3.84841 25.9304 3.65033C25.9277 3.6061 25.9126 3.56356 25.8868 3.52779C25.8571 3.49714 25.817 3.479 25.7746 3.47696C25.7322 3.47492 25.6906 3.48912 25.6581 3.51677C25.6119 3.55023 25.5682 3.5871 25.5274 3.62705C25.1789 3.95786 24.8082 4.28867 24.4597 4.63091C23.1633 5.89943 21.8669 7.1569 20.5596 8.42541C19.6661 9.29695 18.7731 10.1791 17.857 11.0286C17.0942 11.7343 16.3754 12.4846 15.6345 13.1907C15.3077 13.5105 14.9697 13.8197 14.6321 14.1174V14.1284C14.5549 14.2126 14.4621 14.2805 14.359 14.3283C14.2558 14.3761 14.1444 14.4028 14.031 14.4069C13.9177 14.411 13.8047 14.3924 13.6984 14.3522C13.5922 14.312 13.4948 14.2509 13.4119 14.1725C13.3128 14.0939 13.2185 14.0092 13.1296 13.9189C12.6177 13.4337 12.1054 12.9387 11.5935 12.4519C10.3517 11.2387 9.1025 10.0253 7.84588 8.81178C6.89797 7.89613 5.92868 6.98047 4.98198 6.06523C4.68793 5.78955 4.40477 5.51389 4.1212 5.22677C3.51131 4.64194 2.89013 4.0575 2.26894 3.46163C2.2036 3.40649 2.13825 3.35137 2.06202 3.29624C2.04023 3.27418 2.01845 3.27419 1.98578 3.26316C1.94497 3.26535 1.90623 3.28201 1.87636 3.31025C1.84649 3.33848 1.82739 3.37646 1.82242 3.41753C1.81153 3.46164 1.81153 3.51677 1.80064 3.57191V3.84758C1.81153 7.59798 1.76797 11.3374 1.83331 15.0767C1.89866 18.6617 1.85509 22.2357 1.88776 25.8207C1.88776 26.0413 1.88777 26.2618 1.87688 26.4828C1.86535 26.6856 1.78889 26.8792 1.65906 27.0341C1.58318 27.1316 1.4867 27.2108 1.3767 27.2657H0.592159C0.476972 27.2071 0.376139 27.1233 0.297008 27.0203C0.217877 26.9173 0.162441 26.7977 0.134741 26.6702C0.0982199 26.5489 0.083465 26.4219 0.0911769 26.2953C0.080286 26.0306 0.0802828 25.777 0.0802828 25.523C0.0802828 18.1444 0.073028 10.7649 0.0585068 3.38445C0.0585068 2.69016 0.0149394 2.00567 0.00404854 1.31056C-0.00679777 1.12611 0.00416835 0.941003 0.0367186 0.759194C0.0639967 0.590136 0.139744 0.432923 0.254539 0.307089C0.409793 0.128265 0.62846 0.0186972 0.863047 0.0021795C1.09763 -0.0143382 1.32918 0.0635274 1.50739 0.218872C1.57273 0.285034 1.63808 0.341388 1.70342 0.406324C2.14995 0.825351 2.60777 1.25582 3.04341 1.67485C4.22003 2.82206 5.38575 3.95825 6.56237 5.09444C7.49011 5.98803 8.39244 6.90329 9.34035 7.77484C10.0378 8.41481 10.6912 9.09849 11.3777 9.73805C12.1296 10.4323 12.8484 11.1389 13.5785 11.856C13.6386 11.9206 13.7042 11.9796 13.7745 12.0325C13.7988 12.0601 13.8282 12.0825 13.8611 12.0985C13.894 12.1146 13.9296 12.1239 13.966 12.126C14.0025 12.128 14.0389 12.1227 14.0734 12.1105C14.1078 12.0982 14.1395 12.0792 14.1666 12.0545C14.2281 12.0156 14.2832 11.9673 14.33 11.9112C14.962 11.3047 15.5937 10.7088 16.2258 10.1023C17.4569 8.91101 18.6863 7.68661 19.9408 6.50836C20.6265 5.85736 21.2808 5.18471 21.9782 4.54514C22.8608 3.73976 23.6885 2.87966 24.5492 2.0412L26.0526 0.618306C26.1405 0.525702 26.2393 0.444245 26.3466 0.375714C26.454 0.302641 26.5774 0.257203 26.706 0.243375C26.817 0.22911 26.9297 0.237248 27.0375 0.267305C27.1454 0.297362 27.2463 0.348761 27.3344 0.418514C27.4225 0.488266 27.4961 0.574982 27.551 0.673694C27.6058 0.772406 27.6408 0.881157 27.654 0.993635C27.6724 1.12139 27.6797 1.25054 27.6757 1.37958C27.6975 4.05996 27.7302 6.74034 27.7411 9.43175C27.752 11.6931 27.7411 13.9544 27.7411 16.2264H27.7629C27.7604 19.47 27.7713 22.7242 27.7713 25.9669Z" fill="#FF0000"/>
<path d="M59.5617 0.700722C59.712 0.857931 59.7952 1.06879 59.7932 1.28763C59.7911 1.50647 59.704 1.7157 59.5508 1.87001C59.3656 2.07952 59.1369 2.27841 58.9296 2.47649C58.7118 2.67497 58.4939 2.86244 58.2866 3.06133L54.2348 6.85585C53.7012 7.34104 53.178 7.83603 52.6552 8.3449C51.9034 9.05104 51.1519 9.7678 50.4 10.4739L47.23 13.452C46.7725 13.8821 46.7181 13.7828 46.7181 14.6875C46.7071 18.1401 46.6962 21.5927 46.6854 25.0451C46.6944 25.4807 46.6652 25.9163 46.5983 26.3467C46.5728 26.5141 46.5011 26.6709 46.3914 26.7988C46.3133 26.887 46.2176 26.9572 46.1105 27.0047C46.0034 27.0523 45.8875 27.0761 45.7706 27.0745C45.5694 27.0771 45.3747 27.0022 45.2261 26.865C45.1335 26.7902 45.0576 26.6965 45.0032 26.59C44.9488 26.4835 44.9171 26.3667 44.9102 26.247C44.8919 26.0639 44.8846 25.8798 44.8884 25.6957V21.2616H44.9102C44.9102 19.949 44.8993 18.6253 44.9211 17.3348C44.932 16.5514 44.9647 15.7685 44.9865 14.9852C44.981 14.9118 44.981 14.8381 44.9865 14.7647C45.029 14.5001 44.9911 14.2287 44.8779 13.9864C44.7646 13.7441 44.5814 13.5424 44.3524 13.4079C44.2253 13.31 44.1052 13.2032 43.993 13.0881C42.751 11.9078 41.5199 10.7386 40.278 9.5693C39.3409 8.68673 38.3934 7.81559 37.4544 6.93303C36.4863 6.0284 35.5259 5.12379 34.5566 4.21957C33.7499 3.48076 32.9553 2.74154 32.1598 2.00232C32.0227 1.88382 31.8986 1.75073 31.7895 1.60536C31.6661 1.43733 31.6059 1.23027 31.6196 1.02134C31.6333 0.812398 31.72 0.615229 31.8643 0.465185C32.0085 0.315141 32.2009 0.222031 32.4068 0.202552C32.6127 0.183072 32.8187 0.238506 32.9879 0.358895C33.2929 0.590462 33.5651 0.8551 33.8487 1.10913C34.9818 2.17916 36.1257 3.24919 37.2588 4.30819C38.2067 5.19076 39.1433 6.0619 40.0823 6.94447C41.0214 7.82704 41.9564 8.7092 42.9059 9.58074C43.734 10.3641 44.5726 11.1359 45.4116 11.9193C45.7819 12.2611 45.8363 12.2611 46.2183 11.9082C47.2425 10.9375 48.2755 9.96669 49.3125 9.00856L53.7104 4.87017L56.5647 2.20082C57.0547 1.73768 57.5452 1.28515 58.0353 0.822018C58.143 0.724188 58.2557 0.632174 58.3729 0.546348C58.546 0.410433 58.7647 0.34822 58.9823 0.372929C59.2 0.397639 59.3996 0.507337 59.5387 0.678686C59.5391 0.684612 59.5417 0.690156 59.5459 0.694241C59.5502 0.698326 59.5558 0.700634 59.5617 0.700722Z" fill="#FF0000"/>
<path d="M92.1897 25.4908C92.3237 25.6591 92.3922 25.8713 92.3821 26.0873C92.3721 26.3032 92.2843 26.5079 92.1353 26.6628C91.9863 26.8176 91.7864 26.9118 91.5735 26.9276C91.3606 26.9433 91.1493 26.8795 90.9796 26.7483C90.9225 26.7037 90.868 26.6559 90.8163 26.605C90.2717 26.0973 89.7377 25.579 89.1931 25.0718L86.0662 22.1268C84.9985 21.1119 83.9308 20.108 82.8631 19.1045C82.0564 18.3433 81.24 17.5934 80.4336 16.8322C80.1069 16.5234 79.7802 16.2032 79.4531 15.8834C79.1481 15.6078 78.8319 15.3321 78.5253 15.056C78.4398 14.974 78.3388 14.9102 78.2284 14.8685C78.118 14.8268 78.0005 14.8081 77.8828 14.8134C77.5016 14.8134 77.12 14.7914 76.7497 14.8244C76.2596 14.8685 75.7816 14.8796 75.2899 14.8796C73.503 14.8906 71.7165 14.8906 69.93 14.9127C68.6336 14.9237 67.3372 15.0119 66.0408 14.9899C65.968 14.9878 65.8952 14.9915 65.8229 15.0009H65.8012C65.7124 15.0061 65.6291 15.0456 65.5683 15.1113C65.5075 15.177 65.4739 15.2637 65.4744 15.3537C65.4563 15.5554 65.449 15.7578 65.4526 15.9602C65.4418 19.1593 65.4309 22.3469 65.42 25.546C65.4239 25.8375 65.4057 26.1288 65.3655 26.4175C65.3546 26.4837 65.3437 26.54 65.3329 26.5939C65.2841 26.7779 65.1721 26.9382 65.017 27.046H63.9731C63.8809 26.9842 63.803 26.903 63.7447 26.8078C63.6864 26.7126 63.6491 26.6058 63.6355 26.4947C63.6174 26.3484 63.6101 26.201 63.6137 26.0536C63.6246 24.0459 63.581 22.0275 63.6573 20.0198C63.7226 18.1223 63.6899 16.2253 63.7226 14.3278C63.7226 14.1955 63.7226 14.0742 63.7335 13.9419C63.749 13.7393 63.8355 13.5491 63.9773 13.4054C64.1192 13.2618 64.3071 13.1742 64.5072 13.1586C64.6705 13.1475 64.8339 13.1475 64.9973 13.1475C69.0713 13.0152 73.1452 13.1034 77.2192 13.0152C80.0734 12.949 82.9172 12.9931 85.7706 12.938C86.9193 12.9293 88.0247 12.4932 88.8765 11.7128C89.3414 11.2743 89.6962 10.7298 89.9115 10.1245C90.2078 9.3548 90.3557 8.53479 90.3472 7.70876V6.89195C90.3531 6.04897 90.1595 5.21681 89.7824 4.46518C89.4776 3.8177 88.9979 3.27085 88.3989 2.88791C87.5844 2.33402 86.6238 2.04181 85.6427 2.04946H64.9097C64.6759 2.05858 64.4419 2.04008 64.2123 1.99432C64.098 1.98758 63.9861 1.95776 63.8833 1.90663C63.7805 1.8555 63.6888 1.78408 63.6137 1.69657C63.5385 1.60906 63.4814 1.50722 63.4457 1.39704C63.4099 1.28687 63.3963 1.17058 63.4056 1.05499C63.4206 0.820849 63.5267 0.602285 63.7006 0.447191C63.8745 0.292097 64.102 0.213121 64.3333 0.227557C64.5294 0.21653 64.7367 0.227557 64.9323 0.227557H75.3254C78.7899 0.227557 82.254 0.21653 85.7185 0.227557C86.5978 0.223409 87.4689 0.399048 88.2795 0.743974C89.0901 1.0889 89.8235 1.596 90.4359 2.23487C91.1799 2.99344 91.6972 3.94931 91.9284 4.99244C92.4422 6.96735 92.3084 9.0578 91.5472 10.9491C91.2381 11.7042 90.7786 12.3867 90.1976 12.9542C89.6165 13.5216 88.9263 13.9618 88.1698 14.2474C87.3148 14.596 86.4007 14.7722 85.4789 14.766C84.2914 14.766 83.093 14.7661 81.9055 14.7771C81.7422 14.7771 81.5788 14.7771 81.4154 14.7881C81.3801 14.786 81.3448 14.7942 81.3139 14.8118C81.283 14.8294 81.2578 14.8556 81.2412 14.8873C81.2252 14.9205 81.2208 14.9582 81.2288 14.9943C81.2367 15.0303 81.2564 15.0626 81.2847 15.0858C81.3808 15.1978 81.4826 15.3045 81.5897 15.4056C82.7336 16.4865 83.8776 17.5712 85.0215 18.6598L88.8454 22.2999C89.8369 23.2266 90.8284 24.1639 91.8194 25.1016C91.9511 25.223 92.0749 25.353 92.1897 25.4908Z" fill="#FF0000"/>
<path d="M98.3559 11.3275C98.443 14.1292 98.4321 16.9199 98.4648 19.7109C98.4648 21.619 98.4648 23.5165 98.4539 25.4139V25.9653C98.4502 26.1769 98.3671 26.3792 98.2213 26.5309C98.0756 26.6826 97.8782 26.7724 97.6694 26.7821C97.4494 26.8006 97.2307 26.7332 97.0581 26.5937C96.8856 26.4542 96.7724 26.2532 96.7416 26.0318C96.7235 25.9226 96.7162 25.8118 96.7198 25.701C96.7634 23.9694 96.6218 22.2373 96.6327 20.5057C96.6327 18.0679 96.6763 15.6411 96.5891 13.2144C96.4681 9.44192 96.5565 5.65884 96.502 1.87494C96.502 1.69851 96.502 1.51104 96.5129 1.32358C96.5278 1.11338 96.6154 0.915261 96.7604 0.764111C96.9054 0.612961 97.0985 0.518509 97.3056 0.497414C97.5127 0.47632 97.7205 0.529926 97.8923 0.648797C98.0642 0.767669 98.1891 0.944151 98.245 1.14714C98.3085 1.37669 98.3342 1.61526 98.3212 1.85328C98.3321 3.93616 98.3321 6.01171 98.343 8.09663C98.3454 9.17687 98.3232 10.2579 98.3559 11.3275Z" fill="#FF0000"/>
<path d="M132.346 11.0418C132.106 9.37243 131.559 7.76347 130.732 6.29856C130.044 5.07452 129.108 4.01088 127.987 3.1767C125.865 1.59153 123.292 0.747572 120.655 0.772C117.888 0.794054 115.132 0.760984 112.375 0.8492C110.229 0.915362 108.083 0.871251 105.937 0.882278C105.737 0.872901 105.536 0.880284 105.337 0.904339C105.119 0.926071 104.917 1.02789 104.768 1.19053C104.62 1.35317 104.535 1.56533 104.531 1.78689V2.1177C104.487 6.02248 104.541 9.92728 104.454 13.8321C104.367 17.5935 104.422 21.3549 104.411 25.1164C104.411 25.2818 104.411 25.4472 104.422 25.6126C104.418 25.8345 104.5 26.0492 104.651 26.2102C104.802 26.3712 105.009 26.4656 105.228 26.4731C105.427 26.497 105.627 26.5044 105.827 26.4951H113.344V26.4841H120.753C121.369 26.4844 121.984 26.4401 122.594 26.3518C123.795 26.2087 124.968 25.8781 126.069 25.3716C128.175 24.4431 129.899 22.8064 130.95 20.7387C131.954 18.7283 132.498 16.5149 132.543 14.2625C132.576 13.1851 132.51 12.1069 132.346 11.0418ZM130.178 17.892C129.872 19.041 129.35 20.1196 128.642 21.069C128.013 21.8942 127.241 22.5969 126.365 23.1429C125.089 23.9128 123.667 24.4014 122.192 24.5768C121.73 24.6358 121.264 24.6616 120.798 24.654C116.233 24.654 111.668 24.6577 107.104 24.6651C106.908 24.6651 106.712 24.6651 106.516 24.654C106.472 24.6572 106.429 24.6513 106.388 24.6366C106.347 24.6219 106.309 24.5988 106.278 24.5688C106.246 24.5388 106.221 24.5025 106.204 24.4621C106.186 24.4217 106.178 24.3782 106.178 24.3343V24.3012C106.167 24.2096 106.167 24.1171 106.178 24.0255C106.22 23.6262 106.234 23.2245 106.221 22.8231V13.6789L106.254 13.6899V9.85089C106.276 7.67789 106.305 5.5049 106.341 3.3319C106.352 2.76013 106.396 2.72542 106.962 2.70336C111.647 2.57104 116.331 2.62618 121.027 2.60413C122.768 2.61792 124.474 3.10967 125.962 4.02702C127.107 4.69332 128.096 5.6036 128.86 6.69491C129.623 7.78622 130.144 9.03249 130.385 10.3475C130.9 12.844 130.829 15.4279 130.178 17.8916L130.178 17.892Z" fill="#FF0000"/>
<path d="M139.08 23.8385C139.026 24.5888 139.201 24.6108 139.788 24.6108C144.386 24.6108 148.984 24.6145 153.58 24.6219H163.32C163.527 24.6219 163.723 24.6218 163.919 24.6329C164.155 24.6416 164.382 24.731 164.562 24.8865C164.696 24.9842 164.798 25.1208 164.855 25.2783C164.911 25.4358 164.919 25.6069 164.878 25.7691C164.848 25.9323 164.769 26.0824 164.652 26.1988C164.535 26.3153 164.386 26.3925 164.224 26.4201C163.985 26.4421 163.756 26.4532 163.516 26.4532H151.129V26.4311H138.907C138.689 26.4311 138.471 26.4421 138.254 26.4201C138.235 26.4218 138.216 26.4179 138.199 26.409C137.955 26.3925 137.728 26.2787 137.566 26.0926C137.405 25.9065 137.323 25.6633 137.338 25.4162C137.328 25.0078 137.338 24.6108 137.338 24.2028C137.349 22.4491 137.317 20.695 137.371 18.9413C137.469 15.5107 137.404 12.0801 137.492 8.64944C137.547 6.49836 137.514 4.33665 137.557 2.18557C137.554 2.01985 137.561 1.8541 137.579 1.68936C137.596 1.49726 137.68 1.31752 137.816 1.18215C137.951 1.04677 138.13 0.964561 138.32 0.950148C138.515 0.926289 138.712 0.918906 138.908 0.928088C141.675 0.917061 144.432 0.961162 147.188 0.906027C152.581 0.783505 157.974 0.861933 163.366 0.828852C163.566 0.817791 163.766 0.817791 163.965 0.828852C164.073 0.830108 164.179 0.848724 164.281 0.883991C164.443 0.933752 164.587 1.03018 164.695 1.16148C164.804 1.29278 164.872 1.45324 164.891 1.62321C164.923 1.85716 164.861 2.09402 164.72 2.28211C164.579 2.47019 164.37 2.5942 164.14 2.62705C163.941 2.65109 163.741 2.65847 163.541 2.64911L154.673 2.67117L140.27 2.68219C140.052 2.68219 139.834 2.6822 139.617 2.70425C139.535 2.7066 139.457 2.74139 139.4 2.80117C139.343 2.86094 139.311 2.94095 139.312 3.02404C139.288 3.16975 139.281 3.31772 139.29 3.46511L139.257 12.3998C139.257 13.0615 139.29 13.106 139.966 13.106C144.161 13.106 148.343 13.0619 152.527 13.1391C156.296 13.2052 160.066 13.1832 163.835 13.2163C163.996 13.209 164.157 13.2239 164.314 13.2604C164.51 13.3043 164.684 13.4148 164.809 13.5734C164.934 13.732 165.001 13.9292 165 14.1319C165.001 14.3649 164.915 14.5898 164.76 14.7615C164.604 14.9333 164.39 15.0394 164.161 15.0586C164.052 15.0586 163.943 15.0696 163.834 15.0696C159.695 15.0586 155.543 15.1027 151.393 15.0145C147.623 14.9373 143.854 14.9924 140.085 14.9373C139.888 14.9373 139.692 14.9483 139.496 14.9593C139.422 14.964 139.351 14.9953 139.298 15.0476C139.244 15.1 139.21 15.17 139.202 15.2452C139.181 15.443 139.17 15.6417 139.17 15.8407L139.137 22.5251C139.14 22.9636 139.121 23.402 139.08 23.8385Z" fill="#FF0000"/>
</svg>
