<svg width="45" height="29" viewBox="0 0 45 29" fill="none" xmlns="http://www.w3.org/2000/svg">
<path d="M1.91997 28.2686C1.62421 28.2686 1.34053 28.1516 1.13121 27.9434C0.921883 27.7351 0.804023 27.4526 0.803498 27.1578V1.38125C0.803367 1.23509 0.832157 1.09034 0.888219 0.955286C0.944281 0.820229 1.02651 0.697515 1.13022 0.594166C1.23392 0.490817 1.35705 0.408862 1.49256 0.352989C1.62808 0.297117 1.77332 0.268425 1.91997 0.268555H43.0423C43.3384 0.268555 43.6224 0.385785 43.8318 0.594456C44.0412 0.803126 44.1588 1.08614 44.1588 1.38125V27.1578C44.158 27.4524 44.04 27.7347 43.8307 27.9427C43.6214 28.1507 43.3379 28.2676 43.0423 28.2676L1.91997 28.2686Z" fill="white"/>
<path d="M32.2788 12.525H30.4035C30.3427 12.5356 30.2856 12.5614 30.2374 12.5999C30.1893 12.6384 30.1517 12.6883 30.1281 12.7452L29.3553 17.583C29.3522 17.6054 29.3543 17.6282 29.3615 17.6496C29.3688 17.671 29.3809 17.6905 29.3969 17.7065C29.4129 17.7224 29.4325 17.7345 29.454 17.7417C29.4755 17.7489 29.4983 17.751 29.5208 17.7479H30.5114C30.5339 17.751 30.5568 17.7489 30.5783 17.7417C30.5998 17.7345 30.6193 17.7224 30.6353 17.7065C30.6514 17.6905 30.6635 17.671 30.6707 17.6496C30.6779 17.6282 30.68 17.6054 30.6769 17.583L30.8978 16.2057C30.9058 16.1404 30.939 16.0808 30.9905 16.0397C31.042 15.9985 31.1075 15.9791 31.1732 15.9855H31.7805C32.0431 16.0175 32.3095 15.995 32.563 15.9194C32.8164 15.8439 33.0515 15.7169 33.2534 15.5465C33.4553 15.3761 33.6196 15.1659 33.7361 14.9292C33.8525 14.6924 33.9186 14.4343 33.9302 14.1708C33.9851 13.9655 33.9938 13.7506 33.9556 13.5415C33.9174 13.3324 33.8333 13.1343 33.7093 12.9614C33.2967 12.6535 32.7897 12.4979 32.2748 12.5211L32.2788 12.525ZM32.4997 14.3377C32.3887 14.9982 31.8924 14.9982 31.3961 14.9982H31.0652L31.2861 13.7335C31.2861 13.6782 31.3416 13.6229 31.4516 13.6229H31.5625C31.8934 13.6229 32.2253 13.6229 32.3897 13.8431C32.5007 13.8983 32.5007 14.0632 32.5007 14.3367" fill="#139AD6"/>
<path d="M18.7612 12.525H16.8859C16.8251 12.5356 16.768 12.5613 16.7198 12.5998C16.6717 12.6383 16.6341 12.6883 16.6105 12.7451L15.8378 17.5829C15.8346 17.6053 15.8368 17.6281 15.844 17.6495C15.8512 17.671 15.8633 17.6904 15.8793 17.7064C15.8953 17.7224 15.9149 17.7344 15.9364 17.7416C15.9579 17.7488 15.9807 17.7509 16.0032 17.7478H16.8859C16.9467 17.7372 17.0038 17.7114 17.0519 17.6729C17.1001 17.6345 17.1377 17.5845 17.1613 17.5276L17.3822 16.2076C17.3902 16.1423 17.4234 16.0828 17.4749 16.0416C17.5264 16.0005 17.5919 15.981 17.6576 15.9874H18.2649C18.5275 16.0194 18.7939 15.9969 19.0474 15.9214C19.3008 15.8458 19.5359 15.7188 19.7378 15.5484C19.9397 15.378 20.104 15.1678 20.2205 14.9311C20.3369 14.6944 20.403 14.4362 20.4146 14.1728C20.4695 13.9674 20.4782 13.7525 20.44 13.5434C20.4018 13.3343 20.3177 13.1362 20.1937 12.9633C19.7854 12.6472 19.2753 12.4906 18.7592 12.523L18.7612 12.525ZM18.9801 14.3376C18.8692 14.9982 18.3729 14.9982 17.8765 14.9982H17.6031L17.824 13.7334C17.824 13.6781 17.8795 13.6228 17.9895 13.6228H18.1004C18.4313 13.6228 18.7632 13.6228 18.9276 13.843C18.9722 13.9164 19.0002 13.9985 19.0098 14.0838C19.0194 14.169 19.0103 14.2553 18.9831 14.3367" fill="#263B80"/>
<path d="M24.4446 14.2835H23.562C23.5065 14.2835 23.3965 14.3388 23.3965 14.394L23.341 14.6685L23.2856 14.5579C23.1504 14.4206 22.9861 14.315 22.8048 14.2489C22.6235 14.1828 22.4297 14.1578 22.2374 14.1759C21.7371 14.1895 21.2577 14.3792 20.8842 14.7114C20.5107 15.0435 20.2671 15.4966 20.1967 15.9905C20.145 16.2301 20.1479 16.4783 20.2051 16.7166C20.2624 16.955 20.3726 17.1775 20.5276 17.3678C20.6731 17.5257 20.8535 17.6477 21.0545 17.7241C21.2555 17.8005 21.4716 17.8293 21.6856 17.8082C21.9194 17.8137 22.152 17.773 22.3699 17.6882C22.5877 17.6035 22.7865 17.4765 22.9547 17.3145L22.8992 17.586C22.8961 17.6084 22.8982 17.6312 22.9054 17.6526C22.9126 17.674 22.9247 17.6935 22.9407 17.7095C22.9568 17.7255 22.9763 17.7375 22.9978 17.7447C23.0193 17.7519 23.0422 17.754 23.0646 17.7509H23.8899C23.9507 17.7403 24.0078 17.7145 24.0559 17.676C24.1041 17.6375 24.1417 17.5876 24.1653 17.5307L24.6606 14.4513C24.6051 14.396 24.4952 14.2864 24.4397 14.2864L24.4446 14.2835ZM23.1766 16.0498C23.1333 16.2957 23.0046 16.5186 22.813 16.6795C22.6213 16.8403 22.379 16.9288 22.1285 16.9295C21.9054 16.9353 21.6884 16.8566 21.5212 16.7093C21.4017 16.5103 21.3442 16.2804 21.3558 16.0488C21.3738 15.8728 21.4393 15.7049 21.5453 15.563C21.6513 15.421 21.7939 15.3103 21.9579 15.2426C22.1219 15.1749 22.3013 15.1527 22.4769 15.1783C22.6526 15.204 22.818 15.2765 22.9557 15.3883C23.1097 15.5731 23.1885 15.8088 23.1766 16.0488" fill="#263B80"/>
<path d="M37.9077 14.2835H37.025C36.9696 14.2835 36.8596 14.3388 36.8596 14.394L36.8041 14.6685L36.7486 14.5579C36.6135 14.4206 36.4492 14.315 36.2679 14.2489C36.0866 14.1828 35.8927 14.1578 35.7005 14.1759C35.2001 14.1895 34.7208 14.3792 34.3473 14.7114C33.9737 15.0435 33.7302 15.4966 33.6598 15.9905C33.6081 16.2301 33.611 16.4783 33.6682 16.7166C33.7255 16.955 33.8357 17.1775 33.9906 17.3678C34.1362 17.5257 34.3166 17.6477 34.5176 17.7241C34.7186 17.8005 34.9346 17.8293 35.1487 17.8082C35.3825 17.8137 35.6151 17.773 35.8329 17.6882C36.0508 17.6035 36.2496 17.4765 36.4178 17.3145L36.3623 17.589C36.3592 17.6114 36.3613 17.6342 36.3685 17.6556C36.3757 17.677 36.3878 17.6965 36.4038 17.7124C36.4199 17.7284 36.4394 17.7405 36.4609 17.7477C36.4824 17.7549 36.5053 17.757 36.5277 17.7539H37.3529C37.4137 17.7432 37.4708 17.7175 37.519 17.679C37.5671 17.6405 37.6047 17.5905 37.6283 17.5337L38.1237 14.4543C38.0682 14.399 38.0127 14.2894 37.9037 14.2894L37.9077 14.2835ZM36.6407 16.0498C36.5974 16.2957 36.4687 16.5186 36.277 16.6795C36.0854 16.8403 35.8431 16.9288 35.5925 16.9295C35.3694 16.9353 35.1524 16.8566 34.9853 16.7093C34.8658 16.5103 34.8082 16.2804 34.8198 16.0488C34.8379 15.8728 34.9034 15.7049 35.0094 15.563C35.1154 15.421 35.258 15.3103 35.422 15.2426C35.586 15.1749 35.7653 15.1527 35.941 15.1783C36.1167 15.204 36.2821 15.2765 36.4197 15.3883C36.5175 15.4646 36.5906 15.5679 36.6299 15.6854C36.6692 15.8028 36.6729 15.9292 36.6407 16.0488" fill="#139AD6"/>
<path d="M29.2454 14.2834H28.3072C28.2645 14.2843 28.2224 14.2946 28.1842 14.3137C28.146 14.3329 28.1125 14.3603 28.0863 14.394L26.8728 16.264L26.321 14.5046C26.3011 14.4498 26.2628 14.4034 26.2126 14.3734C26.1625 14.3434 26.1035 14.3315 26.0456 14.3397H25.1629C25.0519 14.3397 24.9974 14.4503 24.9974 14.5599L25.9881 17.4744L25.0499 18.7945C24.9945 18.905 25.0499 19.0689 25.1609 19.0689H26.0436C26.0863 19.0681 26.1284 19.0578 26.1666 19.0386C26.2049 19.0195 26.2383 18.9921 26.2645 18.9583L29.2989 14.6142C29.4643 14.4493 29.3544 14.2844 29.2434 14.2844" fill="#263B80"/>
<path d="M38.9549 12.689L38.1831 17.6324C38.18 17.6548 38.1821 17.6776 38.1893 17.699C38.1965 17.7204 38.2086 17.7399 38.2247 17.7559C38.2407 17.7719 38.2602 17.7839 38.2817 17.7911C38.3032 17.7983 38.3261 17.8004 38.3486 17.7973H39.1213C39.1821 17.7867 39.2392 17.7609 39.2873 17.7224C39.3355 17.6839 39.3731 17.6339 39.3967 17.5771L40.1694 12.7393C40.1725 12.7169 40.1704 12.6941 40.1632 12.6727C40.156 12.6513 40.1439 12.6318 40.1279 12.6158C40.1118 12.5998 40.0923 12.5878 40.0708 12.5806C40.0493 12.5734 40.0264 12.5713 40.004 12.5744H39.1213C39.0658 12.5191 39.0103 12.5744 38.9558 12.685" fill="#139AD6"/>
<path d="M11.7503 10.8742C11.4661 10.6265 11.1334 10.4403 10.7732 10.3275C10.4131 10.2146 10.0333 10.1776 9.65803 10.2186H6.89607C6.8074 10.2318 6.7243 10.2698 6.65643 10.3281C6.58856 10.3865 6.53871 10.4629 6.51268 10.5484L5.41008 17.7468C5.40365 17.8123 5.42316 17.8776 5.46444 17.9289C5.50572 17.9802 5.5655 18.0134 5.631 18.0213H7.34088L7.78271 15.3269V15.4375C7.80874 15.352 7.85859 15.2756 7.92646 15.2173C7.99432 15.1589 8.07743 15.1209 8.1661 15.1078H8.99627C9.74745 15.1894 10.5011 14.977 11.0981 14.5154C11.6951 14.0537 12.0888 13.379 12.1961 12.6336V12.4687C12.2458 12.1866 12.2316 11.897 12.1544 11.6211C12.0773 11.3452 11.9392 11.09 11.7503 10.8742Z" fill="#263B80"/>
<path d="M12.1396 12.4688V12.6336C12.0422 13.3836 11.6511 14.0647 11.0516 14.5282C10.4521 14.9918 9.6929 15.2001 8.93979 15.1078H8.11259C8.02392 15.121 7.94082 15.159 7.87295 15.2173C7.80508 15.2757 7.75524 15.3521 7.72921 15.4376L7.17444 18.7875C7.17075 18.8173 7.17392 18.8475 7.18372 18.8759C7.19351 18.9043 7.20968 18.9301 7.23097 18.9513C7.25227 18.9726 7.27815 18.9887 7.30663 18.9984C7.33512 19.0082 7.36546 19.0114 7.39535 19.0077H8.82884C8.90766 19.0133 8.98562 18.9884 9.04651 18.9382C9.1074 18.888 9.14653 18.8164 9.15576 18.7381V18.6829L9.43116 16.9788V16.8682C9.4392 16.7883 9.47838 16.7148 9.54027 16.6635C9.60215 16.6122 9.6818 16.5871 9.76204 16.5937H9.98791C10.3146 16.6339 10.646 16.6085 10.9627 16.5191C11.2794 16.4297 11.575 16.278 11.832 16.073C12.089 15.868 12.3022 15.6139 12.4592 15.3256C12.6162 15.0372 12.7136 14.7205 12.7459 14.394C12.8207 14.1153 12.8349 13.8239 12.7874 13.5394C12.7399 13.2548 12.6318 12.9837 12.4705 12.7442C12.4009 12.6128 12.282 12.5141 12.1396 12.4697" fill="#139AD6"/>
<path d="M11.7543 12.3038C11.6988 12.3038 11.6433 12.2485 11.5888 12.2485C11.5589 12.2525 11.5284 12.2495 11.4997 12.24C11.471 12.2304 11.4449 12.2144 11.4234 12.1932C11.1875 12.1453 10.9466 12.1268 10.7062 12.1379H8.55642C8.52644 12.1339 8.49594 12.1368 8.46726 12.1464C8.43859 12.156 8.41249 12.172 8.39098 12.1932C8.34067 12.2193 8.29858 12.2587 8.26937 12.3071C8.24017 12.3556 8.225 12.4111 8.22554 12.4677L7.78271 15.3308V15.4414C7.80874 15.3559 7.85859 15.2796 7.92646 15.2212C7.99433 15.1628 8.07743 15.1248 8.1661 15.1117H8.99627C9.74789 15.1929 10.5018 14.9799 11.0987 14.5175C11.6956 14.055 12.0887 13.3795 12.1951 12.6335C12.1911 12.6036 12.194 12.5733 12.2037 12.5447C12.2133 12.5161 12.2293 12.4901 12.2506 12.4686C12.1396 12.4134 12.0852 12.3581 11.9752 12.3581C11.8098 12.3028 11.8098 12.3028 11.7543 12.3028" fill="#232C65"/>
</svg>
