<svg width="109" height="109" viewBox="0 0 109 109" fill="none" xmlns="http://www.w3.org/2000/svg">
<path fill-rule="evenodd" clip-rule="evenodd" d="M54.4885 0.000214623C41.8814 0.00123663 29.6648 4.37341 19.92 12.372C10.1752 20.3705 3.5052 31.5005 1.04648 43.8655C-1.41225 56.2305 0.492394 69.0654 6.43594 80.1835C12.3795 91.3016 21.9941 100.015 33.6417 104.839C45.2894 109.663 58.2494 110.299 70.3135 106.639C82.3775 102.979 92.7992 95.249 99.803 84.7664C106.807 74.2838 109.959 61.697 108.723 49.1506C107.487 36.6043 101.939 24.8747 93.0248 15.9603C87.976 10.8839 81.9702 6.85937 75.3554 4.1198C68.7406 1.38023 61.6481 -0.0199446 54.4885 0.000214623ZM19.3811 89.6073C11.2555 81.4837 6.19812 70.7939 5.07067 59.3595C3.94321 47.925 6.81543 36.4534 13.1979 26.8993C19.5805 17.3451 29.0783 10.2996 40.0732 6.96329C51.0681 3.62698 62.8798 4.20632 73.4954 8.60251C84.111 12.9987 92.8738 20.9397 98.2908 31.0725C103.708 41.2054 105.444 52.903 103.203 64.1723C100.962 75.4415 94.8825 85.5851 86.001 92.8746C77.1195 100.164 65.9853 104.149 54.4953 104.149C47.9721 104.167 41.5099 102.892 35.4831 100.395C29.4562 97.8994 23.9845 94.2326 19.3845 89.6073H19.3811Z" fill="#1A1818"/>
<path fill-rule="evenodd" clip-rule="evenodd" d="M103.256 32.6999C98.7832 22.4512 91.2134 13.8604 81.6094 8.13258C72.0053 2.4048 60.8491 -0.172336 49.7059 0.762786C40.9861 1.58806 32.5917 4.49384 25.2278 9.23615C17.864 13.9785 11.7458 20.4188 7.38711 28.016C5.70441 30.973 4.35911 34.1096 3.37662 37.3669C0.467989 46.7299 0.111705 56.6998 2.34457 66.2465C4.57744 75.7933 9.31852 84.5709 16.0781 91.6727L18.6462 93.6558C9.53734 84.3925 3.82969 72.3203 2.45139 59.4021C1.49745 48.811 3.82011 38.1826 9.10491 28.9548C14.1239 20.2431 21.5001 13.1251 30.3851 8.4196C38.2486 4.38565 47.006 2.41001 55.8398 2.67709C64.6737 2.94417 73.2959 5.44528 80.9014 9.94692C89.0073 14.7166 95.7172 21.5332 100.358 29.7134C103.705 35.441 105.981 41.7297 107.076 48.2722C106.691 42.9046 105.401 37.6407 103.26 32.7033L103.256 32.6999Z" fill="white"/>
<path fill-rule="evenodd" clip-rule="evenodd" d="M104.773 58.3121C105.575 47.7874 103.124 37.2704 97.7523 28.1846C95.7113 25.0891 92.2521 20.6841 89.7996 17.7588C96.6028 23.7072 101.684 31.3731 104.513 39.9559C107.342 48.5387 107.814 57.7236 105.881 66.5514C103.948 75.3792 99.6802 83.5262 93.5234 90.1414C87.3666 96.7566 79.5466 101.597 70.8801 104.158C61.3633 107.271 51.1448 107.537 41.4786 104.925C31.8124 102.313 23.1191 96.9358 16.4654 89.4533C14.063 86.8505 11.9728 83.976 10.2372 80.8882C9.53648 79.8677 10.3154 79.1875 10.8937 79.9256C15.3123 87.4158 21.5856 93.6416 29.1091 98.0031C36.6327 102.365 45.1526 104.715 53.8483 104.827C62.5439 104.94 71.122 102.811 78.7558 98.6451C86.3895 94.4795 92.8217 88.418 97.4325 81.0446C98.7626 81.2147 99.1335 80.3031 98.3919 79.4459C102.231 73.0358 104.419 65.7729 104.759 58.3087L104.773 58.3121Z" fill="white"/>
<path fill-rule="evenodd" clip-rule="evenodd" d="M8.52332 77.7117C5.3793 71.0824 3.68395 63.8593 3.55023 56.5234C4.27672 64.0639 6.43926 71.3958 9.92129 78.1234C10.4417 79.0895 9.5267 79.9023 8.52665 77.7151L8.52332 77.7117Z" fill="white"/>
<path fill-rule="evenodd" clip-rule="evenodd" d="M54.9649 63.9831L96.423 80.6507C97.0863 80.9636 98.4435 81.7358 98.9231 80.9909C99.2939 80.4296 99.3074 80.2493 98.1985 79.256L98.0219 79.467L63.2579 49.9891L56.135 4.21101C55.9003 3.27219 55.7949 2.89453 54.999 2.89453C54.3187 2.89453 54.2404 3.81975 54.1214 4.17011L46.7671 49.4516L11.8026 77.2287C11.2686 77.6471 10.282 77.841 9.45886 76.3579L10.4794 78.9125L12.2992 81.2493C12.0825 80.8451 11.9363 80.4069 11.8672 79.9534L12.0917 79.3139L54.9512 63.9865L54.9649 63.9831Z" fill="#1A1818"/>
<path fill-rule="evenodd" clip-rule="evenodd" d="M97.0285 80.0663L55.8697 55.4933V64.3374L55.0432 64.0245L54.1621 64.2796L54.1451 55.0955L11.1835 78.5662L48.7299 51.4592L46.3182 49.8469L46.7671 49.4353L46.8863 48.7549L46.9236 48.561L49.213 50.068L54.1384 4.34764C54.2167 3.50406 54.5125 2.91895 55.0567 2.91895C55.7778 2.91895 55.9378 3.93946 55.9378 4.52453L56.3323 53.0443L63.098 49.0509L63.2579 49.9897L63.9042 50.5374L61.615 51.9455C61.615 51.9455 96.3958 78.2395 97.4945 79.1001C98.5932 79.9607 97.4945 80.4302 97.0285 80.039V80.0663ZM53.3831 54.5954L51.23 53.1667L41.2533 60.776L53.3867 54.5954H53.3831ZM58.9549 53.5205L57.176 54.5954L96.634 79.2464L58.9686 53.5205H58.9549ZM51.4035 51.585L54.067 53.3028L55.1589 3.84418L51.417 51.585H51.4035Z" fill="white"/>
</svg>
