<svg width="104" height="104" viewBox="0 0 104 104" fill="none" xmlns="http://www.w3.org/2000/svg">
<path d="M51.7289 0C41.4979 0 31.4966 3.03384 22.9899 8.71789C14.4831 14.4019 7.85288 22.4809 3.93764 31.9331C0.0224067 41.3853 -1.00199 51.7863 0.993981 61.8207C2.98995 71.8551 7.91664 81.0723 15.1511 88.3067C22.3855 95.5411 31.6027 100.468 41.6371 102.464C51.6715 104.46 62.0724 103.435 71.5247 99.5201C80.9769 95.6049 89.0558 88.9747 94.7399 80.4679C100.424 71.9611 103.458 61.9599 103.458 51.7289C103.458 38.0095 98.0078 24.8521 88.3067 15.151C78.6057 5.44999 65.4482 0 51.7289 0ZM51.7289 100.871C42.0094 100.871 32.5083 97.9891 24.4268 92.5893C16.3454 87.1895 10.0467 79.5145 6.3272 70.5349C2.60773 61.5553 1.63454 51.6744 3.53071 42.1417C5.42688 32.609 10.1073 23.8526 16.98 16.9799C23.8526 10.1072 32.609 5.42687 42.1417 3.5307C51.6744 1.63453 61.5553 2.60771 70.5349 6.32719C79.5145 10.0467 87.1895 16.3454 92.5893 24.4268C97.9892 32.5082 100.871 42.0094 100.871 51.7289C100.872 58.1825 99.6009 64.5729 97.1314 70.5353C94.6619 76.4978 91.0421 81.9153 86.4788 86.4787C81.9154 91.0421 76.4978 94.6619 70.5354 97.1314C64.5729 99.6009 58.1825 100.872 51.7289 100.871Z" fill="url(#paint0_linear_96_6338)"/>
<path d="M101.244 51.7331C101.244 61.5256 98.3406 71.0981 92.9002 79.2403C87.4599 87.3825 79.7273 93.7287 70.6803 97.4762C61.6332 101.224 51.6781 102.204 42.0737 100.294C32.4694 98.3841 23.6471 93.6688 16.7226 86.7447C9.798 79.8206 5.08214 70.9986 3.17134 61.3944C1.26054 51.7901 2.24062 41.8349 5.98761 32.7877C9.7346 23.7404 16.0802 16.0074 24.2221 10.5666C32.364 5.1257 41.9364 2.22132 51.7288 2.2207C64.8606 2.2207 77.4546 7.43707 86.7405 16.7223C96.0263 26.0076 101.244 38.6013 101.244 51.7331Z" fill="#444B4C"/>
<path d="M100.874 51.7284C100.874 61.4478 97.9921 70.949 92.5923 79.0304C87.1925 87.1119 79.5175 93.4106 70.5379 97.1301C61.5583 100.85 51.6773 101.823 42.1446 99.9265C32.6119 98.0304 23.8556 93.35 16.9829 86.4773C10.1102 79.6046 5.42987 70.8483 3.5337 61.3156C1.63752 51.7829 2.61071 41.902 6.33018 32.9224C10.0497 23.9428 16.3484 16.2678 24.4298 10.8679C32.5112 5.46809 42.0124 2.58594 51.7319 2.58594C64.7653 2.58594 77.2648 7.76343 86.4808 16.9794C95.6968 26.1954 100.874 38.695 100.874 51.7284Z" fill="url(#paint1_radial_96_6338)"/>
<path d="M84.6786 51.7288C84.6786 58.2449 82.7463 64.6147 79.1262 70.0326C75.5062 75.4506 70.3608 79.6735 64.3408 82.1672C58.3208 84.6609 51.6965 85.3136 45.3056 84.0426C38.9146 82.7716 33.0441 79.634 28.4363 75.0267C23.8285 70.4193 20.6904 64.5491 19.4188 58.1583C18.1472 51.7675 18.7992 45.1431 21.2924 39.1229C23.7856 33.1026 28.0079 27.9568 33.4255 24.3363C38.8432 20.7157 45.2127 18.7828 51.7288 18.7822C56.0557 18.7818 60.3403 19.6337 64.3379 21.2892C68.3355 22.9448 71.9679 25.3715 75.0276 28.431C78.0873 31.4904 80.5144 35.1225 82.1703 39.12C83.8263 43.1175 84.6786 47.402 84.6786 51.7288Z" fill="url(#paint2_linear_96_6338)"/>
<path d="M53.0486 17.8871L56.4721 8.81729V17.8871H59.0711V4.89844H55.1585L51.6065 14.2002H51.6409L48.0889 4.89844H44.1857V17.8902H46.7847V8.81729L50.2082 17.8871H53.0486Z" fill="black"/>
<path d="M88.7196 23.7177L84.2803 30.1948L91.2559 26.765L93.137 29.0348L82.1642 34.5463L79.9445 31.8595L84.202 25.442L84.1769 25.4106L77.0978 28.4391L74.8532 25.7712L82.2551 15.9678L84.1362 18.2376L79.5024 24.4795L86.6756 21.2817L88.7196 23.7177Z" fill="black"/>
<path d="M28.7237 21.2333C28.1782 20.697 27.4641 20.366 26.7024 20.2963C25.9407 20.2265 25.1783 20.4225 24.5446 20.8508C24.7746 20.2255 24.7812 19.5399 24.5634 18.9102C24.2482 18.2035 23.761 17.587 23.1463 17.1169C21.4001 15.656 19.5661 16.9038 18.2556 18.465L11.9165 26.0206L21.8829 34.3818L28.5669 26.4156C30.0937 24.5941 30.3288 22.7946 28.7237 21.2333ZM15.8322 24.8763L19.6413 20.3367C19.9322 20.0875 20.3042 19.9534 20.6871 19.9598C21.0701 19.9662 21.4374 20.1125 21.7199 20.3712C21.8724 20.482 22.0003 20.6233 22.0956 20.786C22.1909 20.9487 22.2515 21.1294 22.2736 21.3167C22.2957 21.504 22.2788 21.6938 22.224 21.8742C22.1691 22.0546 22.0776 22.2217 21.955 22.3651L18.1929 26.8514L15.8322 24.8763ZM26.3379 25.6318L22.3688 30.3627L19.8827 28.2747L23.8831 23.5062C24.1761 23.224 24.5641 23.0615 24.9708 23.0507C25.3776 23.0399 25.7736 23.1816 26.0812 23.4479C26.3888 23.7143 26.5857 24.086 26.6332 24.4901C26.6807 24.8942 26.5753 25.3014 26.3379 25.6318Z" fill="#333333"/>
<path d="M53.077 17.3892L56.5005 8.31945V17.3892H59.0995V4.39746H55.1932L51.6411 13.6992H51.6756L48.1236 4.39746H44.2173V17.3892H46.8163V8.31631L50.2397 17.3861L53.077 17.3892Z" fill="url(#paint3_radial_96_6338)"/>
<path d="M88.7478 22.8439L84.3023 29.321L91.2779 25.888L93.1589 28.1578L82.1861 33.6693L79.9665 30.9826L84.2365 24.5776L84.2114 24.5462L77.1292 27.5779L74.897 24.8911L82.2989 15.0908L84.18 17.3606L79.5464 23.6026L86.7163 20.4048L88.7478 22.8439Z" fill="url(#paint4_radial_96_6338)"/>
<path d="M28.2595 20.9775C27.7146 20.4415 27.001 20.1106 26.2398 20.0409C25.4787 19.9711 24.7168 20.167 24.0836 20.5951C24.3113 19.9702 24.3168 19.286 24.0993 18.6576C23.7846 17.9497 23.2961 17.3328 22.6791 16.8643C20.9328 15.4002 19.1019 16.6511 17.7915 18.2155L11.4492 25.7711L21.4157 34.1324L28.0996 26.1661C29.6264 24.3415 29.8647 22.5357 28.2595 20.9775ZM15.3681 24.6205L19.1741 20.084C19.4645 19.8345 19.8363 19.6998 20.2193 19.7056C20.6022 19.7114 20.9698 19.8572 21.2526 20.1154C21.4053 20.2262 21.5333 20.3675 21.6286 20.5304C21.7239 20.6932 21.7843 20.8741 21.8061 21.0615C21.8279 21.2489 21.8106 21.4387 21.7553 21.6191C21.6999 21.7995 21.6078 21.9664 21.4846 22.1093L17.7225 26.5956L15.3681 24.6205ZM25.8737 25.3761L21.9047 30.1069L19.4155 28.019L23.4158 23.2505C23.708 22.9639 24.0972 22.7977 24.5063 22.7849C24.9153 22.772 25.3142 22.9135 25.6238 23.1812C25.9333 23.4489 26.1309 23.8232 26.1772 24.2299C26.2235 24.6365 26.1152 25.0456 25.8737 25.3761Z" fill="url(#paint5_radial_96_6338)"/>
<path d="M19.8796 51.7321C19.8796 45.433 21.7476 39.2752 25.2472 34.0376C28.7469 28.8 33.7211 24.7178 39.5408 22.3072C45.3605 19.8966 51.7643 19.2659 57.9424 20.4948C64.1206 21.7237 69.7956 24.7571 74.2498 29.2113C78.704 33.6655 81.7374 39.3405 82.9663 45.5186C84.1952 51.6968 83.5644 58.1006 81.1539 63.9203C78.7433 69.74 74.661 74.7142 69.4235 78.2139C64.1859 81.7135 58.0282 83.5814 51.729 83.5814C47.5464 83.5814 43.4049 82.7576 39.5408 81.1571C35.6766 79.5565 32.1656 77.2105 29.2081 74.253C26.2506 71.2955 23.9046 67.7845 22.304 63.9203C20.7034 60.0562 19.8796 55.9147 19.8796 51.7321Z" fill="url(#paint6_radial_96_6338)"/>
<path d="M20.7952 51.729C20.7952 45.6101 22.6097 39.6286 26.0092 34.541C29.4087 29.4534 34.2406 25.4881 39.8938 23.1466C45.547 20.8052 51.7676 20.1927 57.7689 21.3867C63.7701 22.5806 69.2825 25.5274 73.609 29.8543C77.9355 34.1813 80.8818 39.694 82.0751 45.6954C83.2685 51.6968 82.6553 57.9173 80.3133 63.5702C77.9713 69.2232 74.0056 74.0547 68.9176 77.4537C63.8296 80.8527 57.8479 82.6666 51.729 82.666C47.6665 82.666 43.6437 81.8658 39.8904 80.311C36.1372 78.7562 32.7269 76.4774 29.8544 73.6046C26.9819 70.7318 24.7034 67.3213 23.149 63.5679C21.5946 59.8144 20.7948 55.7916 20.7952 51.729Z" fill="url(#paint7_radial_96_6338)"/>
<path d="M20.7479 51.733H51.7319V20.749C47.6629 20.7486 43.6337 21.5498 39.8744 23.1067C36.1151 24.6637 32.6992 26.9459 29.822 29.8231C26.9448 32.7003 24.6625 36.1162 23.1056 39.8755C21.5487 43.6348 20.7475 47.6641 20.7479 51.733Z" fill="url(#paint8_radial_96_6338)"/>
<path d="M51.7353 51.7324V82.7165C55.8042 82.7165 59.8332 81.915 63.5924 80.3579C67.3515 78.8009 70.7672 76.5186 73.6443 73.6415C76.5215 70.7643 78.8037 67.3486 80.3608 63.5895C81.9179 59.8303 82.7193 55.8013 82.7193 51.7324H51.7353Z" fill="url(#paint9_radial_96_6338)"/>
<path d="M82.964 51.1805H52.2746V20.4912H51.1774V51.1805H20.488V52.281H51.1774V82.9828H52.2746V52.281H82.964V51.1805Z" fill="url(#paint10_radial_96_6338)"/>
<path d="M52.2779 21.3594C60.1429 21.501 67.6463 24.6882 73.2089 30.2502C78.7715 35.8122 81.9595 43.3153 82.1019 51.1803H82.6474C82.5057 43.1692 79.2602 35.5259 73.5947 29.8603C67.9291 24.1948 60.2858 20.9493 52.2747 20.8076L52.2779 21.3594Z" fill="url(#paint11_linear_96_6338)"/>
<path d="M21.3029 51.1769C21.4437 43.3011 24.6351 35.7873 30.205 30.2174C35.7749 24.6475 43.2888 21.4561 51.1645 21.3153V20.7666C43.1438 20.9091 35.4913 24.1588 29.8189 29.8312C24.1464 35.5037 20.8967 43.1561 20.7542 51.1769H21.3029Z" fill="#BDD5E5"/>
<path d="M51.1802 82.1053C43.3144 81.9645 35.8101 78.7771 30.2472 73.2142C24.6844 67.6514 21.497 60.1471 21.3561 52.2812H20.8138C20.9555 60.2923 24.2009 67.9357 29.8665 73.6012C35.532 79.2668 43.1754 82.5122 51.1864 82.6539L51.1802 82.1053Z" fill="url(#paint12_linear_96_6338)"/>
<path d="M82.1051 52.2812C81.9635 60.1468 78.7759 67.6507 73.2132 73.2133C67.6505 78.776 60.1466 81.9637 52.2811 82.1053V82.6539C60.2921 82.5122 67.9355 79.2668 73.601 73.6012C79.2666 67.9357 82.5121 60.2923 82.6538 52.2812H82.1051Z" fill="#005D6C"/>
<path d="M50.5942 20.7643V50.5758H20.7827V51.1652H51.193V20.7549L50.5942 20.7643Z" fill="url(#paint13_linear_96_6338)"/>
<path d="M50.544 82.3623V52.8925H21.0366V52.3125H51.1334V82.3498L50.544 82.3623Z" fill="url(#paint14_linear_96_6338)"/>
<path d="M52.908 82.3623V52.8925H82.3778V52.3125H52.3438V82.3498L52.908 82.3623Z" fill="url(#paint15_linear_96_6338)"/>
<path d="M52.908 21.0273V50.4971H82.3778V51.0771H52.3438V21.043L52.908 21.0273Z" fill="url(#paint16_linear_96_6338)"/>
<defs>
<linearGradient id="paint0_linear_96_6338" x1="-7.55242" y1="-5.58672" x2="102.216" y2="100.457" gradientUnits="userSpaceOnUse">
<stop stop-color="#DEEBF2"/>
<stop offset="0.103" stop-color="#D4E1E7"/>
<stop offset="0.281" stop-color="#BBC6CB"/>
<stop offset="0.512" stop-color="#939A9E"/>
<stop offset="0.784" stop-color="#5B5F61"/>
<stop offset="1" stop-color="#2B2B2B"/>
</linearGradient>
<radialGradient id="paint1_radial_96_6338" cx="0" cy="0" r="1" gradientUnits="userSpaceOnUse" gradientTransform="translate(-0.653988 3.37221) scale(73.5171 73.5171)">
<stop stop-color="white"/>
<stop offset="0.306" stop-color="#A8A8A8"/>
<stop offset="0.646" stop-color="#4E4E4E"/>
<stop offset="0.885" stop-color="#151515"/>
<stop offset="1"/>
</radialGradient>
<linearGradient id="paint2_linear_96_6338" x1="-3408.85" y1="-3304.54" x2="-3339" y2="-3237" gradientUnits="userSpaceOnUse">
<stop stop-color="#DEEBF2"/>
<stop offset="0.089" stop-color="#D4E0E7"/>
<stop offset="0.242" stop-color="#BBC5CB"/>
<stop offset="0.441" stop-color="#919A9E"/>
<stop offset="0.678" stop-color="#585D60"/>
<stop offset="0.945" stop-color="#0F1011"/>
<stop offset="1"/>
</linearGradient>
<radialGradient id="paint3_radial_96_6338" cx="0" cy="0" r="1" gradientUnits="userSpaceOnUse" gradientTransform="translate(-81.3289 -4.06019) scale(176.616 176.61)">
<stop stop-color="white"/>
<stop offset="0.31" stop-color="#FCFCFC"/>
<stop offset="0.45" stop-color="#F5F5F5"/>
<stop offset="0.556" stop-color="#E8E8E8"/>
<stop offset="0.645" stop-color="#D6D6D6"/>
<stop offset="0.723" stop-color="#BFBFBF"/>
<stop offset="0.794" stop-color="#A2A2A2"/>
<stop offset="0.859" stop-color="#7F7F7F"/>
<stop offset="0.919" stop-color="#575757"/>
<stop offset="0.974" stop-color="#2B2B2B"/>
<stop offset="1" stop-color="#141414"/>
</radialGradient>
<radialGradient id="paint4_radial_96_6338" cx="0" cy="0" r="1" gradientUnits="userSpaceOnUse" gradientTransform="translate(-2.20431 -4.0822) scale(176.431 176.663)">
<stop stop-color="white"/>
<stop offset="0.31" stop-color="#FCFCFC"/>
<stop offset="0.45" stop-color="#F5F5F5"/>
<stop offset="0.556" stop-color="#E8E8E8"/>
<stop offset="0.645" stop-color="#D6D6D6"/>
<stop offset="0.723" stop-color="#BFBFBF"/>
<stop offset="0.794" stop-color="#A2A2A2"/>
<stop offset="0.859" stop-color="#7F7F7F"/>
<stop offset="0.919" stop-color="#575757"/>
<stop offset="0.974" stop-color="#2B2B2B"/>
<stop offset="1" stop-color="#141414"/>
</radialGradient>
<radialGradient id="paint5_radial_96_6338" cx="0" cy="0" r="1" gradientUnits="userSpaceOnUse" gradientTransform="translate(-13.857 -4.06988) scale(176.553 176.641)">
<stop stop-color="white"/>
<stop offset="0.31" stop-color="#FCFCFC"/>
<stop offset="0.45" stop-color="#F5F5F5"/>
<stop offset="0.556" stop-color="#E8E8E8"/>
<stop offset="0.645" stop-color="#D6D6D6"/>
<stop offset="0.723" stop-color="#BFBFBF"/>
<stop offset="0.794" stop-color="#A2A2A2"/>
<stop offset="0.859" stop-color="#7F7F7F"/>
<stop offset="0.919" stop-color="#575757"/>
<stop offset="0.974" stop-color="#2B2B2B"/>
<stop offset="1" stop-color="#141414"/>
</radialGradient>
<radialGradient id="paint6_radial_96_6338" cx="0" cy="0" r="1" gradientUnits="userSpaceOnUse" gradientTransform="translate(17.7776 20.4561) scale(47.6466 47.6466)">
<stop stop-color="#E6E6E6"/>
<stop offset="0.104" stop-color="#D6D6D6"/>
<stop offset="0.307" stop-color="#ADADAD"/>
<stop offset="0.587" stop-color="#6C6C6C"/>
<stop offset="0.932" stop-color="#121212"/>
<stop offset="1"/>
</radialGradient>
<radialGradient id="paint7_radial_96_6338" cx="0" cy="0" r="1" gradientUnits="userSpaceOnUse" gradientTransform="translate(30.8188 26.7938) scale(69.2989 69.2989)">
<stop stop-color="white"/>
<stop offset="0.344" stop-color="#FDFDFD"/>
<stop offset="0.482" stop-color="#F5F5F5"/>
<stop offset="0.583" stop-color="#E9E9E9"/>
<stop offset="0.666" stop-color="#D8D8D8"/>
<stop offset="0.738" stop-color="#C1C1C1"/>
<stop offset="0.802" stop-color="#A5A5A5"/>
<stop offset="0.86" stop-color="#848484"/>
<stop offset="0.913" stop-color="#5E5E5E"/>
<stop offset="0.949" stop-color="#404040"/>
<stop offset="0.957" stop-color="#404040"/>
<stop offset="1"/>
</radialGradient>
<radialGradient id="paint8_radial_96_6338" cx="0" cy="0" r="1" gradientUnits="userSpaceOnUse" gradientTransform="translate(10.4612 0.578427) scale(122.697 122.697)">
<stop offset="0.169" stop-color="white"/>
<stop offset="0.188" stop-color="#E1F4FB"/>
<stop offset="0.228" stop-color="#ADE1F4"/>
<stop offset="0.27" stop-color="#7FD0EE"/>
<stop offset="0.312" stop-color="#57C2E9"/>
<stop offset="0.355" stop-color="#38B7E5"/>
<stop offset="0.4" stop-color="#1FAEE2"/>
<stop offset="0.447" stop-color="#0DA7DF"/>
<stop offset="0.497" stop-color="#03A4DE"/>
<stop offset="0.556" stop-color="#00A3DE"/>
<stop offset="0.603" stop-color="#00A0DA"/>
<stop offset="0.65" stop-color="#0398CE"/>
<stop offset="0.697" stop-color="#088ABA"/>
<stop offset="0.744" stop-color="#0E789E"/>
<stop offset="0.79" stop-color="#165F7A"/>
<stop offset="0.836" stop-color="#20424E"/>
<stop offset="0.871" stop-color="#292929"/>
</radialGradient>
<radialGradient id="paint9_radial_96_6338" cx="0" cy="0" r="1" gradientUnits="userSpaceOnUse" gradientTransform="translate(10.4646 0.577734) scale(122.697 122.697)">
<stop offset="0.169" stop-color="white"/>
<stop offset="0.188" stop-color="#E1F4FB"/>
<stop offset="0.228" stop-color="#ADE1F4"/>
<stop offset="0.27" stop-color="#7FD0EE"/>
<stop offset="0.312" stop-color="#57C2E9"/>
<stop offset="0.355" stop-color="#38B7E5"/>
<stop offset="0.4" stop-color="#1FAEE2"/>
<stop offset="0.447" stop-color="#0DA7DF"/>
<stop offset="0.497" stop-color="#03A4DE"/>
<stop offset="0.556" stop-color="#00A3DE"/>
<stop offset="0.603" stop-color="#00A0DA"/>
<stop offset="0.65" stop-color="#0398CE"/>
<stop offset="0.697" stop-color="#088ABA"/>
<stop offset="0.744" stop-color="#0E789E"/>
<stop offset="0.79" stop-color="#165F7A"/>
<stop offset="0.836" stop-color="#20424E"/>
<stop offset="0.871" stop-color="#292929"/>
</radialGradient>
<radialGradient id="paint10_radial_96_6338" cx="0" cy="0" r="1" gradientUnits="userSpaceOnUse" gradientTransform="translate(18.4263 20.9911) scale(46.732 46.7437)">
<stop stop-color="#E6E6E6"/>
<stop offset="0.104" stop-color="#D6D6D6"/>
<stop offset="0.307" stop-color="#ADADAD"/>
<stop offset="0.587" stop-color="#6C6C6C"/>
<stop offset="0.932" stop-color="#121212"/>
<stop offset="1"/>
</radialGradient>
<linearGradient id="paint11_linear_96_6338" x1="45.5927" y1="9.35711" x2="91.1518" y2="53.3975" gradientUnits="userSpaceOnUse">
<stop stop-color="#EEF0F3"/>
<stop offset="0.113" stop-color="#E8EAED"/>
<stop offset="0.256" stop-color="#D9DADD"/>
<stop offset="0.417" stop-color="#BFC1C3"/>
<stop offset="0.591" stop-color="#9B9C9E"/>
<stop offset="0.774" stop-color="#6D6E6F"/>
<stop offset="0.963" stop-color="#363637"/>
<stop offset="1" stop-color="#2B2B2B"/>
</linearGradient>
<linearGradient id="paint12_linear_96_6338" x1="8.6343" y1="46.5408" x2="54.1933" y2="90.5509" gradientUnits="userSpaceOnUse">
<stop stop-color="#EEF0F3"/>
<stop offset="0.113" stop-color="#E8EAED"/>
<stop offset="0.256" stop-color="#D9DADD"/>
<stop offset="0.417" stop-color="#BFC1C3"/>
<stop offset="0.591" stop-color="#9B9C9E"/>
<stop offset="0.774" stop-color="#6D6E6F"/>
<stop offset="0.963" stop-color="#363637"/>
<stop offset="1" stop-color="#2B2B2B"/>
</linearGradient>
<linearGradient id="paint13_linear_96_6338" x1="30.666" y1="30.8207" x2="54.2948" y2="53.6588" gradientUnits="userSpaceOnUse">
<stop stop-color="#BDD5E5"/>
<stop offset="0.144" stop-color="#B4CEDE"/>
<stop offset="0.37" stop-color="#9EBBCD"/>
<stop offset="0.648" stop-color="#7A9EB1"/>
<stop offset="0.966" stop-color="#48748A"/>
<stop offset="1" stop-color="#437086"/>
</linearGradient>
<linearGradient id="paint14_linear_96_6338" x1="18.8395" y1="36.3861" x2="63.8864" y2="80.0888" gradientUnits="userSpaceOnUse">
<stop stop-color="#EEF0F3"/>
<stop offset="0.102" stop-color="#E5E7E9"/>
<stop offset="0.268" stop-color="#CDCED1"/>
<stop offset="0.479" stop-color="#A5A7A9"/>
<stop offset="0.726" stop-color="#6F7071"/>
<stop offset="1" stop-color="#2B2B2B"/>
</linearGradient>
<linearGradient id="paint15_linear_96_6338" x1="52.1035" y1="52.5829" x2="67.9094" y2="67.87" gradientUnits="userSpaceOnUse">
<stop stop-color="#D6DDE8"/>
<stop offset="0.122" stop-color="#D1D9E5"/>
<stop offset="0.26" stop-color="#C3D1DD"/>
<stop offset="0.407" stop-color="#ACC2D0"/>
<stop offset="0.559" stop-color="#8CADBE"/>
<stop offset="0.716" stop-color="#6393A7"/>
<stop offset="0.875" stop-color="#32738C"/>
<stop offset="0.972" stop-color="#105D79"/>
</linearGradient>
<linearGradient id="paint16_linear_96_6338" x1="35.9151" y1="19.8855" x2="80.9889" y2="63.404" gradientUnits="userSpaceOnUse">
<stop stop-color="#EEF0F3"/>
<stop offset="0.113" stop-color="#E8EAED"/>
<stop offset="0.256" stop-color="#D9DADD"/>
<stop offset="0.417" stop-color="#BFC1C3"/>
<stop offset="0.591" stop-color="#9B9C9E"/>
<stop offset="0.774" stop-color="#6D6E6F"/>
<stop offset="0.963" stop-color="#363637"/>
<stop offset="1" stop-color="#2B2B2B"/>
</linearGradient>
</defs>
</svg>
