<svg width="102" height="109" viewBox="0 0 102 109" fill="none" xmlns="http://www.w3.org/2000/svg">
<path fill-rule="evenodd" clip-rule="evenodd" d="M90.3781 1.59847C83.8902 0.957456 66.7637 0 50.6112 0C34.4573 0 17.3321 0.957456 10.8474 1.59847C3.443 2.35346 0 6.11473 0 13.4445C0 27.3597 0.512341 49.0434 1.46244 61.7797C2.31197 73.1329 2.97478 82.0974 17.1115 90.6853C27.2247 96.8329 37.2827 102.101 50.3788 108.859L50.6038 108.986L50.8354 108.859C63.9617 102.079 74.0378 96.8106 84.1108 90.6853C98.2546 82.0898 98.9209 73.1329 99.7586 61.7797C100.716 48.9828 101.233 27.3221 101.233 13.4445C101.233 6.11473 97.7825 2.3532 90.3781 1.59847ZM95.3739 61.4698C94.5653 72.3354 94.0301 79.5202 81.8327 86.9288C72.2602 92.7465 63.8152 97.1809 51.0492 103.811L50.6114 104.021L50.1773 103.811C37.8145 97.4017 28.9952 92.7615 19.3941 86.9288C7.19141 79.5202 6.6494 72.3275 5.84846 61.4583C4.9015 48.789 4.39337 27.2662 4.39337 13.4445C4.39337 8.38232 6.12971 6.50392 11.2857 5.97556C17.6982 5.34347 34.6412 4.39284 50.6114 4.39284C66.588 4.39284 83.5199 5.34347 89.9401 5.97556C95.096 6.50365 96.8292 8.38232 96.8292 13.4445C96.829 27.2588 96.3198 48.774 95.3739 61.4698Z" fill="#F90F08"/>
<path fill-rule="evenodd" clip-rule="evenodd" d="M49.9333 32.5486L48.4102 37.6639C42.8947 26.3906 36.3104 20.4744 28.3396 20.4744C19.7259 20.4744 15.5098 26.2411 14.2637 28.0631C16.4783 22.5064 22.3194 17.6201 30.098 17.6201C40.7587 17.6201 46.7836 26.0384 49.9333 32.5486Z" fill="#F90F08"/>
<path fill-rule="evenodd" clip-rule="evenodd" d="M9.98704 44.1045C10.054 62.8841 15.5175 71.9169 23.674 71.9169C27.4528 71.9169 30.1616 69.5377 30.1616 65.6685C30.1616 62.3676 28.7286 59.7491 28.1456 58.6977C28.3662 59.7788 28.5686 61.0065 28.5686 62.3899C28.5686 65.6273 26.3827 66.6708 24.5944 66.6708C19.1693 66.6708 13.7439 56.1194 12.2092 44.1045C11.5251 44.1045 9.96787 44.1045 9.98704 44.1045Z" fill="#F90F08"/>
<path fill-rule="evenodd" clip-rule="evenodd" d="M71.1351 17.6201C78.9171 17.6201 84.7472 22.5064 86.9735 28.0631C85.7272 26.2411 81.51 20.4744 72.8859 20.4744C64.9311 20.4744 58.3452 26.3906 52.8258 37.6639L51.3027 32.5486C54.4466 26.0384 60.4815 17.6201 71.1351 17.6201Z" fill="#F90F08"/>
<path fill-rule="evenodd" clip-rule="evenodd" d="M89.0268 44.1045C87.4974 56.1194 82.0678 66.6708 76.6343 66.6708C74.8501 66.6708 72.6726 65.6273 72.6726 62.3899C72.6726 61.0065 72.8664 59.7788 73.0841 58.6977C72.5069 59.7491 71.0742 62.3676 71.0742 65.6685C71.0742 69.5377 73.7798 71.9169 77.5621 71.9169C85.7122 71.9169 91.1862 62.8844 91.2456 44.1045C91.2692 44.1045 89.7162 44.1045 89.0268 44.1045Z" fill="#F90F08"/>
<path fill-rule="evenodd" clip-rule="evenodd" d="M77.9483 27.9502C70.9809 27.9502 64.1705 33.5072 60.0965 46.3291L62.7304 48.1662L61.4691 54.4719L56.5414 56.5105L55.6472 62.7066L58.0495 59.7626L60.6238 58.6964L59.8229 62.6996L55.382 64.5438L53.825 75.2575L54.9101 78.6772L50.6188 80.3796L46.3234 78.6772L47.4114 75.2575L45.851 64.5438L41.4059 62.6996L40.6134 58.6964L43.1837 59.7626L45.5934 62.7066L44.6877 56.5105L39.7673 54.4719L38.4986 48.1662L41.1365 46.3291C37.0659 33.5072 30.2594 27.9502 23.2846 27.9502C14.6678 27.9502 11.0977 36.1298 11.5623 42.8685H13.6389C15.3632 52.3981 20.2096 60.4729 23.854 60.4729C24.9687 60.4729 25.552 59.6234 25.552 58.2287C25.552 54.8684 23.2589 51.3514 23.2589 44.926C23.2589 41.9667 24.2242 40.1109 26.4464 40.1109C27.9619 40.1109 29.2011 41.7046 29.938 43.4441C28.5911 48.2445 28.7928 52.2634 32.6247 53.9743C34.5181 54.8154 36.8004 55.8188 36.8004 55.8188C36.8004 55.8188 39.2326 66.1231 39.4085 66.8602C39.5687 67.5336 39.9873 68.4543 40.2954 69.0228C40.7397 69.7975 43.9322 75.2646 43.9322 75.2646C43.9322 75.2646 45.0175 80.7166 45.2486 81.876C45.8744 84.9962 48.1007 85.0038 50.6186 84.9962C53.1291 85.0038 55.3554 84.9962 55.9844 81.876C56.2155 80.7166 57.3047 75.2646 57.3047 75.2646C57.3047 75.2646 60.4888 69.7975 60.945 69.0228C61.248 68.4543 61.6637 67.5338 61.8168 66.8602C61.9928 66.1231 64.4292 55.8188 64.4292 55.8188C64.4292 55.8188 66.7149 54.8154 68.6125 53.9743C72.4405 52.2634 72.6461 48.2445 71.295 43.4441C72.0324 41.7046 73.2755 40.1109 74.7897 40.1109C77.0129 40.1109 77.9738 41.9664 77.9738 44.926C77.9738 51.3514 75.6807 54.8684 75.6807 58.2287C75.6807 59.6234 76.2642 60.4729 77.379 60.4729C81.0158 60.4729 85.8695 52.3981 87.6014 42.8685H89.6707C90.1352 36.1301 86.5696 27.9502 77.9483 27.9502ZM34.1242 52.1184C31.412 50.9656 31.1355 47.7547 32.0401 43.4824L35.0107 48.1515L36.115 52.968C36.1155 52.968 35.042 52.5076 34.1242 52.1184ZM67.1117 52.1184C66.1881 52.5076 65.1135 52.968 65.1135 52.968L66.2144 48.1515L69.1884 43.4824C70.0944 47.7547 69.8205 50.9656 67.1117 52.1184Z" fill="#F90F08"/>
</svg>
