<svg width="67" height="109" viewBox="0 0 67 109" fill="none" xmlns="http://www.w3.org/2000/svg">
<path d="M3.2132 9.42283C3.2132 6.00022 6.00191 3.20996 9.42638 3.20996H57.2866C60.761 3.20996 63.5494 6.00022 63.5494 9.42283V99.5593C63.5494 102.983 60.761 105.772 57.2866 105.772H9.42638C6.00222 105.772 3.2132 102.983 3.2132 99.5593V9.42283Z" fill="white"/>
<path d="M5.79172 20.0581V9.42303C5.79172 7.4236 7.42672 5.79199 9.42645 5.79199H57.2866C59.3394 5.79199 60.9713 7.4236 60.9713 9.42303V20.0581H5.79172ZM5.79172 22.6396H60.9679V86.3481H5.79172V22.6396Z" fill="#004990"/>
<path d="M49.3351 14.8484C49.546 15.1628 50.0211 15.5322 50.3347 15.6894C51.2313 16.1642 52.0239 16.3212 52.8629 16.3212C54.18 16.3212 54.9693 15.7409 54.9693 14.9005C54.9693 13.8969 53.9663 13.7396 52.4417 13.5328C50.4953 13.2685 49.4421 12.372 49.4421 10.794C49.4921 9.21388 50.9704 7.99973 53.1268 7.99973C54.5978 7.99973 55.6013 8.3176 56.2334 8.63209V10.687C56.0225 10.3189 55.5474 10.0547 55.0766 9.84593C54.4486 9.6334 53.7898 9.526 53.1268 9.52805C52.0736 9.52805 51.4412 9.94952 51.4412 10.4795C51.4412 11.3705 52.2842 11.4775 54.127 11.8472C55.9692 12.2147 57.0757 13.0062 57.0224 14.6359C56.969 16.5302 55.494 17.7955 52.8629 17.7955C51.7021 17.7955 50.2311 17.5834 49.3351 17.1117V14.8484ZM16.6392 11.0564C16.6392 12.0044 15.8502 12.372 14.6397 12.372H12.4294V9.68529H14.6397C15.8502 9.68529 16.6392 10.0547 16.6392 11.0564ZM18.0065 15.268C17.5351 14.3739 17.1673 13.69 16.4819 13.3721C17.9566 13.0577 18.6922 12.215 18.6922 10.9512C18.6922 9.74079 18.1638 8.79426 17.1676 8.4249C16.5359 8.16067 15.7426 8.16067 14.5324 8.16067H9.69064C10.1654 8.47515 10.4263 9.42292 10.4263 10.2674V15.584C10.4263 16.373 10.1651 17.3744 9.69064 17.6389H13.161C12.6899 17.3744 12.4294 16.373 12.4294 15.584V13.8966H13.9004C14.6397 13.8966 15.0606 14.1608 15.3751 14.7429C15.8998 15.584 16.2716 16.7423 16.9034 17.6389H19.6918C18.8529 17.0602 18.428 16.1639 18.0065 15.268ZM25.3799 17.9013C26.6936 17.9013 27.8042 17.5313 28.6434 16.7926C29.6467 15.9534 30.3284 14.6874 30.3284 12.8986C30.3284 11.1634 29.6467 9.84593 28.6434 9.00145C27.8042 8.3176 26.6936 7.94824 25.3799 7.94824C24.0622 7.94824 22.9587 8.3176 22.1127 9.00145C21.1165 9.84593 20.4308 11.1634 20.4308 12.8986C20.4308 14.6874 21.1165 15.9534 22.1127 16.7926C22.9587 17.5313 24.1158 17.9013 25.3799 17.9013ZM23.3802 15.4268C22.8021 14.9001 22.5379 14.0591 22.5379 12.8986C22.5379 11.7917 22.8021 10.9512 23.3802 10.3725C23.8516 9.89742 24.5373 9.58355 25.3799 9.58355C26.2222 9.58355 26.9079 9.89742 27.3793 10.3725C27.9614 10.9509 28.2753 11.7917 28.2753 12.8986C28.2753 14.0594 27.9611 14.9001 27.3793 15.4268C26.9076 15.9016 26.2222 16.2157 25.3799 16.2157C24.5373 16.2157 23.8516 15.9016 23.3802 15.4268ZM39.0698 15.214C38.541 15.9013 37.4378 16.1106 36.2274 16.1106H34.3846V10.2674C34.3846 9.47656 34.6457 8.47485 35.0669 8.16067H31.6464C32.1172 8.47515 32.3852 9.47687 32.3852 10.2674V15.584C32.3852 16.4282 32.1172 17.321 31.6464 17.6389H38.7516L39.0698 15.214ZM47.6496 15.214C47.1214 15.9013 46.018 16.1639 44.8075 16.1106H42.9117V10.2674C42.9117 9.47656 43.1725 8.47485 43.6504 8.16067H40.2266C40.6977 8.47515 40.9653 9.47687 40.9653 10.2674V15.584C40.9653 16.4282 40.6977 17.3744 40.2266 17.6886H47.2787L47.6496 15.214Z" fill="white"/>
<path d="M66.7097 9.42306C66.7097 4.21159 62.4962 0 57.2869 0H9.42645C4.21344 0 0 4.21159 0 9.42306V99.5595C0 104.776 4.21344 108.986 9.42645 108.986H57.2866C62.4959 108.986 66.7097 104.776 66.7097 99.5595V9.42306ZM3.21327 9.42306C3.21327 6.00044 6.00198 3.21018 9.42645 3.21018H57.2866C60.761 3.21018 63.5494 6.00044 63.5494 9.42306V99.5595C63.5494 102.983 60.761 105.772 57.2866 105.772H9.42645C6.00229 105.772 3.21327 102.983 3.21327 99.5595V9.42306Z" fill="#004990"/>
<path d="M5.79172 88.9258V99.559C5.79172 101.565 7.42672 103.194 9.42645 103.194H57.2866C59.3394 103.194 60.9713 101.565 60.9713 99.559V88.9258H5.79172Z" fill="#004990"/>
<path d="M29.4325 76.1858V62.0218C30.8001 61.9716 32.1176 61.9179 33.4353 61.8106C32.9602 60.7038 32.4854 59.6006 31.907 58.5474C31.1177 58.6507 30.2791 58.6507 29.4325 58.7046V55.7587C27.5897 56.1795 25.5905 56.494 23.5375 56.7049V76.1858C23.5375 80.4992 21.5343 81.6597 20.3242 82.449H32.6426C31.4895 81.6597 29.4325 80.4992 29.4325 76.1858ZM58.0756 82.399C57.076 81.4491 55.8083 79.9747 55.1802 77.0824C54.0228 71.7621 51.5985 64.1279 46.4928 58.4401C51.4952 55.705 54.5479 51.3846 54.5479 46.0717C54.5978 42.2779 52.6517 38.2787 49.1776 35.9096C47.7032 34.9579 45.9674 34.274 43.9113 33.8525C44.65 35.433 45.1217 37.1182 45.2284 38.8053C47.3851 40.4872 48.5459 43.0687 48.5459 46.1747C48.5459 50.1239 46.5461 54.7551 39.5446 57.1258C40.119 58.2292 40.6974 59.3897 41.1725 60.4932C41.5437 60.3899 41.9112 60.2857 42.2828 60.1787C45.5463 63.9707 48.1744 69.9196 48.9633 75.4468C49.5457 79.4494 48.1244 81.4491 47.1785 82.399H58.0756Z" fill="white"/>
<path d="M18.7456 52.3339V30.2224H27.1151C30.1712 30.2742 32.4354 30.9062 34.2246 32.1666C36.5915 33.8516 37.8593 36.5373 37.8593 39.7506C37.8593 45.1708 34.1173 52.0694 18.7456 52.3339ZM45.8074 76.0246C44.7536 75.0784 43.4938 73.6031 42.9114 70.708C41.7543 65.3914 39.4367 57.9144 34.8061 52.5941C35.0133 52.4908 35.1739 52.4369 35.3808 52.3336C40.6477 49.6478 43.861 45.1708 43.861 39.6954C43.9113 35.8532 41.9618 31.9043 38.4908 29.5349C35.752 27.6927 32.0676 26.957 27.3794 26.957H9.63702C10.8475 27.746 12.8472 28.9031 12.8472 33.2199V69.7618C12.8472 74.1284 10.8475 75.2356 9.63702 76.0246H21.9558C20.7987 75.2353 18.7456 74.1284 18.7456 69.7618V55.5971C23.0626 55.5971 27.1151 55.069 30.5359 54.1761C33.6459 57.9147 35.9632 63.7061 36.6988 69.0227C37.2236 73.029 35.8562 75.0787 34.9097 76.0249H45.8074V76.0246Z" fill="white"/>
<path d="M29.4325 49.1779V36.6988H36.0668C35.596 35.3277 34.7494 34.2224 33.596 33.3779H20.3239C21.5343 34.1685 23.5371 35.2756 23.5371 39.6441V50.6489C25.7478 50.3347 27.7469 49.8636 29.4325 49.1779ZM41.4904 96.0884C41.4904 97.8739 42.5439 99.245 44.3864 99.245C45.7035 99.245 46.914 98.8772 47.4393 98.2454L47.1215 100.302C46.65 100.509 45.8074 100.773 44.44 100.773C41.4907 100.773 39.437 99.0341 39.437 96.0884C39.437 94.5105 40.0694 93.2963 41.0156 92.5074C41.8582 91.7683 43.015 91.3469 44.4397 91.3469C45.8074 91.3469 46.6497 91.6108 47.1211 91.875V93.8248C46.5461 93.1931 45.7032 92.8752 44.3861 92.8752C42.5439 92.8752 41.4904 94.2463 41.4904 96.0884ZM16.3213 94.2962C16.3213 95.1922 15.586 95.56 14.4289 95.56H12.3225V93.0358H14.4289C15.586 93.0358 16.3213 93.3497 16.3213 94.2962ZM17.6391 98.2988C17.2176 97.4561 16.8495 96.7704 16.2177 96.5099C17.5888 96.2457 18.2708 95.4028 18.3244 94.2463C18.3244 93.0358 17.7991 92.1392 16.8495 91.768C16.2714 91.5574 15.4818 91.5574 14.3216 91.5574H9.74094C10.1655 91.8217 10.4266 92.7179 10.4266 93.5566V98.6163C10.4266 99.3517 10.1655 100.302 9.74094 100.616H13.0045C12.5867 100.301 12.3225 99.3514 12.3225 98.6163V96.981H13.6902C14.4289 96.981 14.8466 97.2955 15.1682 97.8233C15.6393 98.616 16.0075 99.7161 16.5855 100.562L19.2741 100.616C18.428 99.9877 18.0636 99.1913 17.6391 98.2988ZM24.6443 100.827C25.9047 100.827 26.9579 100.459 27.7469 99.7731C28.6931 98.9841 29.3825 97.7703 29.3825 96.0884C29.3825 94.4035 28.6934 93.1931 27.7469 92.3464C26.9579 91.7178 25.9047 91.3469 24.6443 91.3469C23.4302 91.3469 22.377 91.7178 21.588 92.3464C20.6414 93.1931 19.9557 94.4035 19.9557 96.0884C19.9557 97.7703 20.6414 98.9845 21.588 99.7731C22.3773 100.459 23.4305 100.827 24.6443 100.827ZM22.7448 98.4594C22.22 97.9806 21.9558 97.1916 21.9558 96.0884C21.9558 94.9816 22.22 94.196 22.7448 93.6642C23.2199 93.1934 23.8516 92.9288 24.6946 92.9288C25.4835 92.9288 26.1153 93.1931 26.5904 93.6642C27.1152 94.1963 27.3797 94.9816 27.3797 96.0884C27.3797 97.1916 27.1155 97.9809 26.5904 98.4594C26.1153 98.9305 25.4835 99.245 24.6946 99.245C23.8516 99.245 23.2199 98.9308 22.7448 98.4594ZM36.4343 91.5574C36.6489 91.7178 36.7522 91.8747 36.6988 92.0822C36.6988 92.2962 36.5912 92.6106 36.3844 92.9285L34.5918 95.5063L32.803 92.8749C32.5924 92.5604 32.3855 92.2465 32.4354 91.9789C32.4854 91.8217 32.5427 91.6644 32.7499 91.5574H29.118C29.7466 91.8217 30.0642 92.2962 30.5359 92.9819L33.4887 97.1383V98.6163C33.4887 99.3517 33.2244 100.302 32.803 100.562H36.0665C35.645 100.302 35.3808 99.3517 35.3808 98.6163V97.1383L38.0693 93.3494C38.4908 92.8246 39.0695 91.8747 39.7012 91.5571L36.4343 91.5574ZM53.9161 99.1414H51.5985V96.6672H55.0766L55.2835 95.2961H51.5985V93.0361H53.6519C54.8121 93.0361 55.7586 93.0855 56.2334 93.5569V91.5577H49.0204C49.4418 91.875 49.7027 92.8249 49.7027 93.5569V98.6166C49.7027 99.4022 49.4418 100.302 49.0204 100.616H56.2868L56.6006 98.4017C56.0728 99.0877 55.0769 99.1414 53.9161 99.1414Z" fill="white"/>
</svg>
