<svg width="89" height="110" viewBox="0 0 89 110" fill="none" xmlns="http://www.w3.org/2000/svg">
<path d="M88.697 7.87261C84.1085 6.10024 79.3468 4.65761 74.5418 3.50352C67.9188 1.97846 61.1659 0.94801 54.3264 0.412178C50.9932 0.123653 47.963 0.0412178 44.6299 0H44.3268C40.9937 0.0412178 37.9635 0.123653 34.6303 0.412178C27.8341 0.94801 21.0812 1.97846 14.4582 3.50352C9.65321 4.65761 4.93482 6.14146 0.303016 7.87261L0 7.99626C0 7.99626 0.562743 40.8056 0.995623 57.0455C1.12549 61.8267 2.03453 66.5668 3.72276 71.0595C5.67072 76.1705 8.268 81.0755 11.428 85.6094C14.7612 90.3083 18.787 94.5125 23.3755 98.0572C25.1936 99.4998 27.055 100.819 29.0462 102.014C32.1629 103.786 35.4095 105.353 38.7427 106.672C39.8682 107.125 40.8205 107.537 41.6863 107.826C42.5953 108.156 43.5477 108.444 44.5 108.65C45.4523 108.444 46.4047 108.156 47.3137 107.826C48.1795 107.537 49.1751 107.125 50.2573 106.672C53.5905 105.353 56.8371 103.786 59.9538 102.014C61.945 100.819 63.8497 99.4998 65.6245 98.0572C70.213 94.4713 74.2388 90.2671 77.572 85.6094C80.732 81.0755 83.3293 76.1705 85.2772 71.0595C86.9655 66.5668 87.8745 61.8267 88.0044 57.0455C88.4373 40.8056 89 7.99626 89 7.99626C88.8701 7.95504 88.7836 7.91382 88.697 7.87261Z" fill="url(#paint0_linear_96_6398)"/>
<path d="M43.4178 91.3384H18.1809C20.0423 93.2756 22.0769 95.1304 24.198 96.8203C25.9295 98.2217 27.7476 99.4995 29.6523 100.654C32.6391 102.385 35.7558 103.91 38.9592 105.188C40.0414 105.641 40.9504 106.053 41.8162 106.3C42.4222 106.507 42.9849 106.671 43.4611 106.836L43.4178 91.3384ZM43.4178 73.4086C39.6085 73.0789 36.0156 71.6774 33.1153 69.328C32.9421 69.2044 32.769 69.0395 32.5958 68.8746H4.67511C4.84826 69.4517 5.0647 70.0287 5.28114 70.6058C6.32005 73.4498 7.61869 76.2114 9.09048 78.8906H43.4178V73.4086ZM86.5759 45.9163H61.9451V47.7299V56.1795H86.3595C86.446 53.1706 86.5326 49.6259 86.5759 45.9163ZM87.0088 24.3594H44.9329V34.2929H86.7923C86.8789 30.8718 86.9222 27.4919 87.0088 24.3594Z" fill="#B12B28"/>
<path d="M86.5759 66.9375C86.0132 69.0396 85.234 71.0593 85.234 71.0593C83.286 76.1703 80.6887 81.0752 77.5287 85.6092C74.1956 90.308 70.1698 94.5122 65.5813 98.057C63.7632 99.4996 61.9018 100.819 59.9105 102.014C56.7938 103.786 53.5472 105.353 50.214 106.671C49.0885 107.125 48.1362 107.537 47.2705 107.826C46.3614 108.155 45.4091 108.444 44.4567 108.65C43.5044 108.444 42.5521 108.155 41.643 107.826C40.7773 107.537 39.7816 107.125 38.6994 106.671C35.3663 105.353 32.1197 103.786 29.0029 102.014C27.0117 100.819 25.107 99.4996 23.3322 98.057C19.5229 95.0893 16.1031 91.6682 13.1163 87.9174L13.2461 88.0823C16.233 91.9979 19.7393 95.5427 23.6352 98.634C25.4533 100.077 27.4013 101.396 29.3925 102.591C32.3794 104.363 35.4961 105.93 38.7427 107.249C39.8249 107.702 40.8206 108.114 41.6863 108.403C42.5954 108.732 43.5477 109.021 44.5 109.227C45.4524 109.021 46.4047 108.732 47.3137 108.403C48.1795 108.114 49.1751 107.702 50.2573 107.249C53.5905 105.93 56.8371 104.363 59.9538 102.591C61.9451 101.396 63.8497 100.077 65.6245 98.634C70.2131 95.0481 74.2388 90.8438 77.572 86.145C80.732 81.5698 83.3293 76.6649 85.234 71.5127C85.7534 70.0288 86.2296 68.5038 86.5759 66.9787V66.9375Z" fill="#613E18"/>
<path d="M87.3551 9.89204C87.2685 9.85082 87.1819 9.8096 87.0953 9.76839L87.0088 9.72717C82.5501 8.03724 78.0049 6.59461 73.373 5.48173C66.9664 3.99789 60.4732 3.00866 53.9368 2.47283C50.7335 2.1843 47.8332 2.10187 44.5866 2.06065H44.3268C41.0802 2.10187 38.18 2.1843 34.9766 2.47283C28.3969 3.00866 21.9037 3.99789 15.4971 5.52295C10.9085 6.63583 6.36332 8.07845 1.99123 9.76839L1.94795 9.8096C1.86137 9.8096 1.81808 9.85082 1.73151 9.89204V9.27377L1.99123 9.15012C6.4066 7.46019 10.9085 6.01756 15.4971 4.90468C21.9037 3.42084 28.3969 2.39039 34.9334 1.85456C38.1367 1.56604 41.037 1.4836 44.2836 1.44238H44.5433C47.7899 1.4836 50.6902 1.56604 53.8935 1.85456C60.43 2.39039 66.9664 3.37962 73.3298 4.86346C77.9616 5.97635 82.5068 7.41897 86.9655 9.1089L87.052 9.15012C87.1386 9.19134 87.2252 9.23255 87.3118 9.27377L87.3551 9.89204Z" fill="#613E18"/>
<path d="M43.4178 13.8077C40.5608 13.8489 37.9202 13.9314 35.0199 14.1787C28.4835 14.7145 21.947 15.7037 15.5837 17.1876C10.9086 18.3417 6.36332 19.7431 1.94795 21.433H1.90466V20.856L1.94795 20.8148C6.40661 19.1248 10.9518 17.7234 15.5837 16.5693C21.947 15.0855 28.4402 14.0962 35.0199 13.5604C37.9202 13.3131 40.5608 13.2307 43.4178 13.1895V13.8077Z" fill="#613E18"/>
<path d="M74.8448 75.47V75.676C74.8448 75.8409 74.8016 75.8821 74.715 75.9233C73.7194 76.1294 72.8103 76.5828 72.0311 77.2835C71.9878 77.3248 71.9445 77.366 71.9013 77.4072L71.858 77.366V77.2835C71.858 77.1599 71.9445 77.0362 72.1177 76.8714C72.8536 76.2119 73.8059 75.7585 74.7583 75.5524C74.8016 75.5524 74.8448 75.5112 74.8448 75.47ZM69.9533 72.7908C69.1308 73.0793 68.3949 73.5739 67.8322 74.1922C67.3993 74.6044 67.0963 75.099 66.9231 75.6348C66.9231 75.6348 66.8799 75.7585 66.9664 75.8409C67.1829 75.3875 67.4859 74.9753 67.8322 74.6456C68.3949 74.0273 69.1308 73.5327 69.91 73.2442C69.9966 73.203 70.0399 73.1618 70.0399 73.0793L70.0832 72.7084C70.0832 72.7496 70.0399 72.7908 69.9533 72.7908ZM64.8453 71.6779C63.7631 72.2962 62.8541 73.2442 62.2481 74.3159C61.945 74.8929 61.7719 75.5112 61.7719 76.1707C61.7719 76.2531 61.7719 76.2943 61.8152 76.3355H61.8585C61.9017 75.7585 62.0316 75.1814 62.2913 74.6456C62.8541 73.5739 63.7631 72.7084 64.8886 72.1725C64.9752 71.9252 65.0185 71.6779 65.0185 71.4306C65.0185 71.513 64.9752 71.5955 64.8453 71.6779ZM58.0491 73.0381C57.6162 73.3678 57.2699 73.78 57.0102 74.2334C56.4042 75.2227 56.1445 76.3355 56.2743 77.4896C56.2743 76.5004 56.5773 75.5524 57.0535 74.6868C57.2699 74.2334 57.6162 73.8625 58.0058 73.5327C58.0924 73.3266 58.1357 73.1205 58.1357 72.9144C58.1357 72.9557 58.0924 72.9969 58.0491 73.0381ZM47.2704 81.529C47.3137 81.529 47.3137 81.4878 47.3137 81.4465C47.3137 81.4465 47.3137 81.4053 47.2704 81.4053C46.8375 81.0756 46.5345 80.581 46.4912 80.0451C46.4047 80.6222 46.6211 81.1992 47.0973 81.6114C47.0973 81.6114 47.1838 81.5702 47.2704 81.529ZM69.8234 60.8376C69.1308 61.1261 68.5248 61.5795 68.0919 62.1566C67.6158 62.6512 67.2694 63.2283 67.0963 63.8877C67.0963 63.9702 67.053 64.0526 67.0963 64.0938C67.3127 63.558 67.659 63.0222 68.0919 62.61C68.5248 62.0329 69.1308 61.5795 69.8234 61.3322C69.9966 61.2498 69.9966 61.0849 69.9966 60.714C69.9533 60.714 69.91 60.7964 69.8234 60.8376ZM76.5331 61.9093C75.6673 62.0329 74.8881 62.3627 74.1955 62.8985C73.5895 63.3107 73.1133 63.8465 72.767 64.4648C72.767 64.506 72.6372 64.6297 72.8103 64.6709C73.1566 64.135 73.6328 63.6817 74.1522 63.3519C74.8448 62.8573 75.624 62.4863 76.4898 62.3215C76.5764 62.3215 76.6196 62.1978 76.6196 62.1566V61.8269C76.6196 61.8269 76.5764 61.8681 76.5331 61.9093ZM81.5545 65.0418C81.5545 65.1243 81.5112 65.1655 81.4679 65.1655C80.5156 65.2067 79.6065 65.4952 78.8706 66.0723C78.6542 66.1959 78.481 66.3608 78.3079 66.5257C78.178 66.6081 78.178 66.6906 78.2213 66.7318C78.2646 66.773 78.3079 66.8142 78.3512 66.8554C78.481 66.7318 78.6542 66.6493 78.784 66.5257C79.5632 65.9486 80.4723 65.6189 81.4679 65.5365C81.5545 65.5365 81.5978 65.2479 81.5545 65.0418ZM51.7724 73.203V73.2854C51.7291 73.78 51.3828 74.1922 50.8633 74.3159C50.2573 74.5632 49.5647 74.4395 49.0885 73.9861C48.7422 74.3983 48.1795 74.5632 47.66 74.4807C47.2271 74.3983 46.8375 74.1098 46.5778 73.7388C46.4912 73.5327 46.448 73.3678 46.448 73.2854H46.4047C45.9285 73.3266 45.409 73.3678 44.9329 73.3678V73.78C45.4523 73.78 45.9285 73.7388 46.448 73.6976C46.4912 73.8625 46.5345 73.9861 46.5778 74.151C46.7943 74.4807 47.1838 74.728 47.5734 74.8517C48.1362 74.9753 48.6989 74.7693 49.0885 74.3571C49.608 74.8105 50.3006 74.9341 50.9499 74.6868C51.4261 74.5632 51.7291 74.151 51.7724 73.6976C51.7724 73.5327 51.7724 73.3679 51.7724 73.203ZM53.0277 85.4447C52.3784 85.8156 51.5559 85.8156 50.9066 85.4447C50.6469 85.2798 50.3872 85.0325 50.214 84.7852C50.1707 84.7027 50.1274 84.6615 50.0841 84.7028C49.608 85.1149 49.0019 85.2798 48.3959 85.2386C47.7466 85.1974 47.1406 84.8676 46.751 84.3318C46.4912 83.9608 46.3181 83.5074 46.3181 83.0128V83.054C46.2748 83.6311 46.448 84.2081 46.7943 84.7028C47.1406 85.1974 47.7033 85.5683 48.3093 85.6095C48.9587 85.6508 49.5647 85.4447 50.0409 85.0325C50.0409 85.0325 50.1274 85.0737 50.1707 85.1149C50.3872 85.3622 50.6036 85.6095 50.8633 85.8156C51.5126 86.1866 52.2918 86.1866 52.9411 85.8156C53.5905 85.3622 53.9801 84.6615 54.0233 83.9196C53.9801 84.5791 53.5905 85.1149 53.0277 85.4447ZM68.5248 88.4948C68.0486 88.6597 67.5725 88.8658 67.1396 89.1543C66.4903 89.6077 66.0141 90.2259 65.7111 90.9267C65.7111 90.9679 65.7111 90.9679 65.7544 91.0091L65.7977 91.0503C66.1007 90.432 66.5336 89.8962 67.1396 89.484C67.5725 89.1955 68.0486 88.9894 68.5248 88.8245C68.5681 88.8245 68.6114 88.5772 68.6114 88.4124C68.6114 88.4124 68.6114 88.4124 68.5248 88.4948ZM65.0185 86.5163C65.0185 86.5576 65.0185 86.5576 64.9752 86.5576C63.5034 86.8873 62.2913 87.8353 61.642 89.1131V89.2367L61.7286 89.2779C62.4212 88.1238 63.5467 87.2995 64.8886 86.9285C64.9752 86.9285 64.9752 86.6812 65.0185 86.5163ZM58.8283 86.0217C58.2223 86.5575 57.7028 87.1758 57.3132 87.8765C57.0102 88.4124 56.8804 89.0306 56.9669 89.6489C56.9669 89.6901 57.0102 89.7313 57.0102 89.7313C56.9669 89.2367 57.0968 88.7009 57.3565 88.2475C57.7461 87.588 58.2223 87.0109 58.785 86.4751C58.8283 86.3102 58.8716 86.1042 58.8716 85.8981C58.8716 85.9393 58.8716 85.9805 58.8283 86.0217ZM53.4606 88.0826C52.8113 88.7421 52.5083 89.6489 52.7247 90.5557C52.6381 89.7725 52.9411 89.0306 53.5039 88.4536C53.5472 88.2887 53.5472 88.1238 53.5472 87.959C53.5472 88.0002 53.5039 88.0414 53.4606 88.0826ZM50.7335 93.1112L50.8633 92.9875C50.9499 92.9463 50.82 92.8639 50.7767 92.8639C50.5603 92.4929 50.3872 92.0807 50.3006 91.6686C50.214 91.3388 50.1707 90.9679 50.1707 90.5969C50.1707 91.0503 50.214 91.5037 50.3006 91.9571C50.4304 92.4105 50.5603 92.7814 50.7335 93.1112ZM53.4173 98.0573C52.9844 98.4283 52.4217 98.5107 51.9022 98.3459C51.3828 98.181 50.9499 97.8512 50.6469 97.4391C50.6036 97.3978 50.517 97.4391 50.517 97.4803C50.1707 98.1398 49.5647 98.6756 48.8288 98.8817C48.3093 98.9229 47.8332 98.7992 47.4436 98.4695C47.0973 98.181 46.9241 97.7688 46.9241 97.3566C46.9241 98.5107 47.054 98.5932 47.4436 98.8405C47.8332 99.1702 48.3526 99.2939 48.8721 99.2526C49.608 99.0053 50.214 98.5107 50.5603 97.8512C50.5603 97.8512 50.6469 97.7688 50.6902 97.81C50.9932 98.2222 51.4261 98.5519 51.9455 98.7168C52.465 98.8817 53.071 98.7992 53.4606 98.4283C53.8935 98.0161 54.1099 97.4391 54.0666 96.862C54.0233 97.3566 53.8069 97.7688 53.4173 98.0573ZM47.7033 95.8728L47.9197 95.7079C47.963 95.6667 47.9197 95.6255 47.9197 95.6255C47.2704 95.4194 46.7943 94.8423 46.7077 94.1829C46.6644 94.8423 47.054 95.5018 47.7033 95.8728ZM4.32879 29.3472C4.41537 29.306 4.41537 29.2235 4.37208 29.1411C4.24222 28.8938 4.15564 28.6465 4.15564 28.3992C4.15564 28.7701 4.24222 29.0587 4.32879 29.3472ZM5.62743 51.8109C5.71401 51.7285 5.75729 51.646 5.71401 51.5636C5.54085 51.3575 5.3677 51.1102 5.23784 50.8629C5.15126 50.698 5.15126 50.5332 5.15126 50.3271C5.15126 50.6568 5.19455 50.9866 5.28113 51.2751C5.3677 51.5224 5.49757 51.6873 5.62743 51.8109ZM11.9042 53.6657C11.8609 54.2015 11.5579 54.6549 11.0817 54.861C10.6055 55.1908 9.95622 55.2732 9.39348 55.1496C9.00389 55.0259 8.6143 54.7786 8.35457 54.4901C8.22471 54.3664 8.13813 54.4901 7.96498 54.5725C7.61868 54.7786 7.22908 54.9847 6.88278 55.1083C6.14689 55.4381 5.23784 55.232 4.76167 54.5725C4.54523 54.284 4.37208 53.913 4.37208 53.5421C4.32879 54.0367 4.45866 54.5313 4.76167 54.9847C5.23784 55.6442 6.14689 55.8915 6.92607 55.5617C7.31566 55.3969 7.66196 55.232 8.00827 55.0259C8.13813 54.9435 8.22471 54.7786 8.35457 54.9023C8.65759 55.232 9.00389 55.4381 9.43677 55.603C9.99951 55.7678 10.6488 55.6442 11.125 55.3144C11.731 55.0671 12.0773 54.4076 11.9042 53.7894V53.6657ZM10.216 42.5781C10.216 43.114 9.86965 43.6086 9.39348 43.8971C8.57101 44.3917 7.48881 44.1856 6.96936 43.4025L6.92607 43.3613C6.88278 43.2788 6.66634 43.2376 6.57976 43.32C6.06031 43.6498 5.45428 43.8147 4.80496 43.8147C4.19893 43.7734 3.63619 43.4025 3.37646 42.8666C3.28988 42.7018 3.24659 42.5369 3.24659 42.3308C3.20331 42.6193 3.24659 42.9079 3.37646 43.1552C3.5929 43.7322 4.15564 44.1444 4.76167 44.1856C5.41099 44.1856 6.01702 44.0207 6.57976 43.691C6.66634 43.6086 6.7962 43.6498 6.88278 43.7322C7.35895 44.5978 8.48443 44.9275 9.39348 44.4741C9.99951 44.062 10.216 43.691 10.216 42.5781ZM4.6751 40.476L4.76167 40.4348C4.80496 40.3936 4.80496 40.3111 4.76167 40.2287C4.50194 39.9402 4.32879 39.6104 4.32879 39.2395C4.32879 39.6517 4.41537 40.0638 4.6751 40.476ZM13.5491 43.2788C12.9431 43.8971 12.5102 44.6802 12.2938 45.5046C12.1639 46.1229 12.1639 46.7411 12.2938 47.3182C12.2505 46.8648 12.2938 46.3702 12.3803 45.9168C12.5968 45.0924 13.0297 44.3505 13.5924 43.691C13.5924 43.6498 13.5924 43.6086 13.5924 43.4849V43.114C13.6357 43.1964 13.5924 43.2376 13.5491 43.2788ZM19.1333 41.5065C17.4017 42.4545 16.4927 44.3093 16.839 46.1641C16.7091 44.4741 17.6182 42.8254 19.1766 41.9599C19.2631 41.9186 19.2198 41.5889 19.2198 41.3828C19.2198 41.4652 19.1766 41.5065 19.1333 41.5065ZM21.9903 44.7627C21.9903 44.8039 22.1201 44.8863 22.1634 44.8863H22.2933C22.9426 43.3613 24.0681 42.0011 25.4966 41.0531C25.5399 41.0118 25.5399 40.8058 25.5399 40.7233V40.4348C25.5399 40.476 25.4966 40.5584 25.4533 40.5584C23.8517 41.5889 22.6396 43.0727 21.9903 44.7627ZM13.9387 32.7271C13.4625 32.9744 13.073 33.3453 12.7699 33.7987C12.1206 34.7055 11.9042 35.7772 12.0773 36.8488C12.0773 36.8901 12.0773 36.9725 12.1206 37.0137C12.0773 36.0657 12.3371 35.1177 12.8998 34.2933C13.1162 33.8399 13.5058 33.469 13.9387 33.2217L13.982 33.1805V32.6034C13.982 32.6858 13.982 32.6858 13.9387 32.7271ZM19.8692 31.202C19.2198 31.5317 18.6571 31.9851 18.2242 32.5622C17.6615 33.2629 17.2719 34.0872 17.0987 34.9116C17.0987 35.0353 17.1853 35.1177 17.2719 35.2001C17.4883 34.417 17.8779 33.7163 18.3541 33.098C18.7437 32.521 19.2631 32.0676 19.8692 31.6966C19.999 31.6554 20.0423 31.4905 20.0423 31.3669V31.0371C20.0856 31.1196 19.999 31.202 19.8692 31.202ZM26.9251 31.0783C26.016 31.1608 25.1936 31.4081 24.4144 31.9027C23.5919 32.3973 22.9859 33.1805 22.7695 34.0872C22.7695 34.2109 22.856 34.2933 22.9426 34.3346C23.2456 33.5514 23.8084 32.8919 24.5443 32.4385C25.2369 31.9439 26.0593 31.6554 26.9251 31.573C27.055 31.573 27.055 31.4081 27.055 31.2844V30.9135C27.0982 30.9959 27.0117 31.0371 26.9251 31.0783ZM29.7821 34.2521L29.9985 34.1285C30.821 33.5926 31.7733 33.2629 32.769 33.098C32.8555 33.098 32.8988 33.0568 32.8988 32.8507V32.5622C32.8988 32.6034 32.8555 32.6034 32.8123 32.6034C31.6002 32.8095 30.4314 33.3041 29.3925 34.0048C29.2626 34.1285 29.1328 34.2109 29.3059 34.2521H29.7821ZM15.4538 20.3617C14.5447 20.9388 13.7223 21.6807 13.0297 22.4638C12.4669 23.3706 12.1639 24.4011 12.2505 25.4315C12.2505 25.4727 12.2938 25.4727 12.3803 25.4727C12.4236 24.6071 12.7267 23.7416 13.2028 22.9584C13.8954 22.1341 14.6746 21.3922 15.5404 20.7327C15.5837 20.5266 15.5837 20.2793 15.5837 20.0732C15.5404 20.2381 15.4971 20.3205 15.4538 20.3617ZM23.2456 18.6718C23.2456 18.713 23.2456 18.713 23.2023 18.7542C22.3799 19.29 21.6007 19.8671 20.8648 20.5266C20.1289 21.2685 19.696 22.2165 19.6094 23.247C19.6094 23.2882 19.6527 23.3294 19.696 23.3294H19.7826C19.999 22.505 20.4319 21.7631 20.9946 21.1036C21.6873 20.4441 22.4231 19.8671 23.2023 19.3313C23.2456 19.29 23.2456 19.1252 23.2456 19.0427V18.6718ZM31.2106 18.2596C29.9985 18.5893 28.9163 19.1664 27.964 19.9907C27.3147 20.6502 26.8818 21.4746 26.7087 22.3814C26.7087 22.4226 26.7952 22.4226 26.8385 22.4226C27.055 21.7219 27.4445 21.0624 27.964 20.5266C28.9163 19.7434 29.9985 19.1664 31.2106 18.7954C31.2972 18.7542 31.3405 18.6718 31.3405 18.5481V18.0947C31.3405 18.1772 31.2539 18.2184 31.2106 18.2596ZM37.9202 21.3097C36.9679 21.3097 36.0156 21.3922 35.0632 21.557C34.4572 21.7631 33.8945 22.0929 33.4616 22.5463C33.4183 22.5875 33.4183 22.6699 33.5049 22.7111L33.7646 22.7936C34.1109 22.4638 34.5438 22.2577 35.0199 22.0929C35.9723 21.928 36.9246 21.8455 37.8769 21.8868C37.9202 21.8868 38.0501 21.8043 38.0501 21.7631V21.2685C38.0501 21.2685 37.9635 21.2685 37.9202 21.3097ZM10.3458 31.4081C10.1294 32.0676 9.91294 32.15 9.39348 32.521C8.87403 32.8507 8.26799 32.9331 7.66196 32.8095C7.27237 32.6858 6.96936 32.4798 6.70963 32.1912C6.66634 32.15 6.62305 32.15 6.57976 32.1912C6.23346 32.4385 5.80058 32.6034 5.41099 32.7683C4.6751 33.0568 3.80934 32.7683 3.37646 32.15C3.33317 32.1088 3.33317 32.0676 3.28988 31.9851V31.9439L3.20331 31.7378V31.6966C3.20331 31.6554 3.16002 31.573 3.16002 31.5317V31.4905C3.16002 31.4081 3.16002 31.3669 3.16002 31.2844V31.4081C3.11673 31.8203 3.20331 32.2324 3.37646 32.6034C3.89591 33.2217 4.76167 33.5102 5.54085 33.2629C5.93045 33.098 6.32004 32.8919 6.66634 32.6446C6.70963 32.6034 6.75292 32.6034 6.7962 32.6446C7.40224 33.469 8.57101 33.6751 9.43677 33.098L9.52334 33.0156C9.86965 32.8507 10.0861 32.5622 10.2592 32.2324C10.3891 31.9439 10.4324 31.6142 10.3891 31.2844C10.3891 31.3257 10.3891 31.3669 10.3891 31.4081H10.3458ZM37.4008 27.3275C37.3575 27.4512 37.2276 27.5336 37.0978 27.5336C37.0112 27.5748 36.8813 27.5336 36.838 27.41C34.8901 25.8437 32.466 24.9781 29.9552 24.8957C22.9859 25.1018 16.1464 26.7917 9.95622 29.8006C9.91294 29.8418 9.82636 29.9655 9.91294 30.0067C9.99951 30.0891 10.0861 30.1716 10.1294 30.2952C16.3196 27.2863 23.1158 25.5964 30.0418 25.4315C32.5525 25.5139 34.9767 26.3795 36.9246 27.9458C37.0112 28.0282 37.0978 28.1107 37.2276 28.0694C37.3575 28.0282 37.4008 27.8634 37.4441 27.7397C37.5306 27.3687 37.5306 26.9566 37.5306 26.5856C37.4874 26.8741 37.4441 27.0802 37.4008 27.3275ZM27.2281 37.632C26.5355 37.3847 25.7996 37.2198 25.0637 37.1786C19.8259 37.3022 14.6746 38.6624 10.1294 41.1767C10.0428 41.2179 9.91294 41.3416 9.95622 41.424C9.99951 41.5477 10.0428 41.7125 10.0861 41.8362C10.1294 41.795 10.1727 41.7538 10.216 41.7125C14.7612 39.1983 19.9124 37.8381 25.1503 37.7144C25.8429 37.7556 26.5355 37.9205 27.2281 38.1678C27.2714 38.1678 27.3147 38.1678 27.3147 38.209V37.6732C27.3147 37.632 27.2714 37.632 27.2281 37.632ZM27.358 47.6067V47.6891H27.1415C24.4144 47.5655 21.7305 47.854 19.09 48.5959C16.3195 49.3791 13.679 50.4919 11.2116 51.8934C11.0384 51.9758 11.0384 51.9758 11.2116 52.1407C11.2549 52.1819 11.2982 52.2231 11.3414 52.3055C13.8089 50.9453 16.4494 49.8325 19.1766 49.0493C21.7738 48.3074 24.501 47.9777 27.1848 48.1013H27.358V47.6067ZM54.9324 70.2353C53.8502 70.9772 52.6381 71.5955 51.3828 72.0901L51.5559 72.3786V72.4198C52.7247 71.9252 53.8502 71.3482 54.8891 70.6475L55.019 70.6063C56.7938 70.1941 63.9363 67.7622 68.3084 67.6798C70.9922 67.6386 73.6761 68.2156 76.0569 69.4522C77.269 70.1116 78.3512 70.9772 79.3035 72.0077C79.3468 72.0489 79.3468 72.1313 79.4766 72.1313C79.5632 72.1313 79.6065 72.0901 79.6498 72.0489C79.9528 71.3482 80.0827 70.6063 80.0394 69.8643C80.0394 70.4826 79.8662 71.0596 79.6498 71.6367C79.6065 71.6779 79.5632 71.7191 79.4766 71.7191C79.3468 71.7191 79.3468 71.5955 79.3035 71.5543C78.3512 70.565 77.269 69.7407 76.0569 69.0812C73.6761 67.8447 71.0355 67.1852 68.3084 67.2264C63.9363 67.2676 56.8803 69.7407 55.1055 70.1529L54.9324 70.2353ZM73.5462 82.3946C73.373 82.477 73.1999 82.5182 72.9835 82.5182C72.4207 81.8587 71.7714 81.2405 71.0788 80.7046C70.213 80.0039 69.1741 79.5093 68.0486 79.3032C66.3604 78.9735 64.6289 78.9323 62.9407 79.1796C59.6508 79.5917 56.4908 80.6634 53.6338 82.2297C53.5039 82.3121 53.4173 82.3533 53.4606 82.4358C53.5039 82.5182 53.5472 82.5594 53.5905 82.6006C56.4475 81.0344 59.6075 80.0039 62.8974 79.5917C64.5856 79.3444 66.3171 79.3856 68.0053 79.6742C69.0875 79.9215 70.1264 80.4161 70.9922 81.0756C71.6848 81.6114 72.3341 82.2297 72.9402 82.8892C73.1133 82.9304 73.3298 82.8892 73.5029 82.7655C73.6761 82.3945 73.7626 81.9824 73.7626 81.6114C73.7626 81.8999 73.6761 82.1472 73.5462 82.3946ZM66.5336 94.1829C66.447 94.2241 66.3171 94.1829 66.2305 94.1416C65.7544 93.6882 65.2349 93.2761 64.6289 92.9463C63.1138 92.2456 61.4256 91.9983 59.7373 92.2044C57.3132 92.5754 54.9757 93.5234 53.071 95.0072C52.9411 95.0896 52.8979 95.2133 52.9411 95.2957L53.1143 95.4194C55.0623 93.9355 57.3565 92.9875 59.7806 92.6166C61.4256 92.4105 63.1571 92.6578 64.6722 93.3585C65.2782 93.6882 65.7977 94.1004 66.2738 94.5538C66.3604 94.595 66.4903 94.5538 66.5768 94.5126C66.9664 94.1416 67.1829 93.6058 67.1396 93.1112C67.0963 93.5234 66.8799 93.9355 66.5336 94.1829Z" fill="#432918"/>
<path d="M59.6941 65.5774L60.0837 65.4949L62.5078 65.0003C62.5944 65.0003 62.6809 64.8767 62.6809 64.8354C62.9839 63.7226 63.4601 62.6509 64.1094 61.6617C65.4947 60.013 67.9188 59.4771 69.91 60.4664C70.0399 60.5488 70.0399 60.7137 69.9533 60.7961C69.91 60.8373 69.91 60.8373 69.8667 60.8785C69.1741 61.1671 68.5681 61.6205 68.1352 62.1563C67.659 62.6509 67.2695 63.2279 67.0963 63.8874C67.0963 63.9699 67.053 64.0523 67.1396 64.0935C67.2262 64.1347 68.4382 64.0935 68.8711 64.2172C68.9577 64.2172 69.001 64.176 69.0443 64.0523C69.4338 62.857 70.1697 61.7853 71.1654 61.0022C72.2043 60.219 73.5895 59.9717 74.8881 60.3839C75.6673 60.5488 76.3166 61.0434 76.6629 61.7441C76.7062 61.7853 76.7062 61.909 76.5764 61.909C75.7106 62.0738 74.9314 62.4036 74.2388 62.9394C73.6328 63.3516 73.1566 63.8462 72.8103 64.4645C72.8103 64.5057 72.6804 64.6293 72.8969 64.6706C73.5029 64.7942 74.0657 64.9591 74.6717 65.1652C74.7583 65.2476 74.8881 65.1652 74.9314 65.124C75.5807 64.1347 76.6629 63.4753 77.8317 63.2279C79.6065 62.9806 81.2947 63.7226 81.5978 64.8354C81.641 65.0003 81.6843 65.2064 81.5545 65.1652C80.6021 65.2064 79.6498 65.5361 78.9139 66.1132C78.7408 66.2368 78.5676 66.3605 78.3945 66.4842C78.2646 66.5666 78.2646 66.649 78.3079 66.6902C78.6975 67.0612 80.0394 68.0092 80.126 69.287C80.2125 70.0701 80.0827 70.8945 79.7364 71.6364C79.6931 71.6776 79.6498 71.7188 79.5632 71.7188C79.4767 71.7188 79.4334 71.6364 79.3901 71.5952C78.4377 70.6059 77.3555 69.7404 76.1435 69.0397C73.7626 67.8031 71.1221 67.2261 68.3949 67.2673C64.0229 67.3085 56.8803 69.7404 55.1055 70.1938L54.9757 70.235C54.9757 70.235 55.9713 69.2458 59.6941 65.5774ZM70.9922 74.027C70.0832 74.398 69.304 75.0575 68.8278 75.923C68.7845 75.9643 68.698 76.1291 68.6547 76.0879C68.2218 76.0467 67.4859 75.9643 67.0963 75.923C66.8799 75.923 66.9664 75.7582 66.9664 75.7169C67.1396 75.1811 67.4426 74.6865 67.8755 74.2743C68.4382 73.6561 69.1741 73.1614 69.9966 72.8317C70.0399 72.8317 70.0832 72.7905 70.0832 72.708V72.6668C69.5204 72.0486 68.7412 71.6364 67.8755 71.6364C66.7933 71.5952 65.7111 71.9661 64.9319 72.708C64.0229 73.6148 63.4601 74.8102 63.3302 76.0467C63.287 76.1703 63.2437 76.2116 63.1571 76.2116C62.7242 76.294 62.2913 76.3352 61.8152 76.3352C61.7286 76.3352 61.7286 76.2528 61.7719 76.1703C61.7719 75.5109 61.945 74.8926 62.2481 74.3155C62.8541 73.2439 63.7631 72.3371 64.8453 71.6776C65.0185 71.5539 65.0185 71.3479 64.9752 71.3066C63.6333 70.7708 62.0749 70.8945 60.8628 71.6776C60.0404 72.0898 59.391 72.7493 59.0015 73.5324C58.5253 74.6453 58.2656 75.8406 58.179 77.0359C58.1357 77.1184 58.0924 77.1596 58.0058 77.2008C57.4864 77.3244 56.9236 77.4481 56.4042 77.613C56.3609 77.613 56.3176 77.5718 56.2743 77.5305C56.1012 76.3764 56.3609 75.2223 56.9669 74.2331C57.2267 73.7797 57.573 73.3675 58.0058 73.0378C58.0924 72.9966 58.1357 72.8729 58.0491 72.7905C58.0058 72.7493 57.9625 72.708 57.9193 72.708C56.8803 72.5432 55.7549 72.7081 54.8458 73.2027C53.677 73.8209 52.8546 74.9338 52.6814 76.2116C52.5516 77.1184 52.6381 78.0251 52.8979 78.8907C52.8979 78.9319 52.9411 79.0144 52.8113 79.0144C52.465 79.1792 51.4694 79.6739 51.1231 79.8387C51.1231 79.8387 51.0365 79.88 51.0365 79.7975C50.8633 79.0968 50.3872 78.5198 49.7378 78.19C49.0452 77.9427 48.266 77.9427 47.6167 78.2725C47.1838 78.5198 46.8375 78.8495 46.5778 79.3029C46.2315 80.0448 46.4912 80.9104 47.1838 81.3638C47.2271 81.405 47.2704 81.4462 47.1838 81.4874C46.751 81.6935 46.751 81.776 46.4047 82.2294C46.0584 82.8889 46.1882 83.672 46.6644 84.249C47.357 85.1971 48.7422 85.4856 49.7378 84.8261C49.8244 84.7849 49.911 84.7024 49.9976 84.62C49.9976 84.62 50.0841 84.6612 50.1274 84.7024C50.3006 84.991 50.517 85.1971 50.82 85.4031C51.5126 85.7741 52.2918 85.7741 52.9844 85.4031C53.677 85.0322 54.1099 84.2903 53.9801 83.5071C53.9801 83.0537 53.8069 82.6415 53.4606 82.3118C53.4173 82.2294 53.4606 82.1881 53.6338 82.1057C56.4908 80.5394 59.6941 79.509 62.9407 79.0968C64.6289 78.8495 66.3604 78.8907 68.0486 79.1793C69.1308 79.4266 70.1697 79.9212 71.0355 80.5807C71.7281 81.1165 72.3774 81.7347 72.9835 82.3942C73.1566 82.4355 73.373 82.3942 73.5462 82.2706C73.8925 81.5287 73.9358 80.7043 73.6328 79.9212C73.2432 78.9319 72.6372 77.9839 71.8147 77.242V77.1596C71.8147 77.0359 71.9013 76.9535 72.0744 76.7886C72.8103 76.1291 73.7626 75.6345 74.7583 75.4284C74.8881 75.4284 74.9314 75.346 74.8448 75.1811C74.0657 74.1095 72.464 73.5324 70.9922 74.027ZM89 8.03727C89 8.03727 88.4373 40.8054 88.0044 57.0865C87.8745 61.8678 86.9655 66.6078 85.2772 71.1006C83.3293 76.2116 80.732 81.1165 77.572 85.6505C74.2388 90.3493 70.213 94.5535 65.6245 98.0982C63.8064 99.5409 61.945 100.86 59.9538 102.055C56.8371 103.828 53.5905 105.394 50.2573 106.713C49.1318 107.166 48.1795 107.578 47.3137 107.867C46.4047 108.197 45.4523 108.485 44.5 108.691C43.5477 108.485 42.5953 108.197 41.6863 107.867C40.8205 107.578 39.8249 107.166 38.7427 106.713C35.4095 105.394 32.1629 103.828 29.0462 102.055C27.055 100.86 25.1503 99.5409 23.3755 98.0982C18.787 94.5123 14.7612 90.3081 11.428 85.6505C8.268 81.1165 5.67072 76.2116 3.72276 71.1006C2.03453 66.6078 1.12549 61.8678 0.995623 57.0865C0.562743 40.8467 0 8.03727 0 8.03727L0.303016 7.91362C4.89154 6.18247 9.65321 4.73985 14.4582 3.54453C21.0812 2.01947 27.8341 0.989026 34.6736 0.453194C38.0068 0.164669 41.037 0.0822335 44.3701 0.0410156H44.6731C48.0496 0.0822335 51.0365 0.164669 54.3696 0.453194C61.1659 0.989026 67.9188 2.01947 74.5851 3.54453C79.3901 4.69863 84.1085 6.18247 88.7403 7.91362C88.8268 7.95484 88.9134 7.99606 89 8.03727ZM4.32879 67.7207H31.3838C28.8731 65.124 27.4446 61.7441 27.4013 58.2406V57.8284H2.72714C2.857 61.1671 3.41975 64.5057 4.32879 67.7207ZM43.4178 91.3385H18.1809C20.0423 93.2757 22.0768 95.1305 24.198 96.8205C25.9295 98.2219 27.7476 99.4996 29.6522 100.654C32.6391 102.385 35.7558 103.91 38.9591 105.188C40.0413 105.641 40.9504 106.053 41.8161 106.301C42.4222 106.507 42.9849 106.672 43.4611 106.836L43.4178 91.3385ZM43.4178 80.1685H9.82636C10.7354 81.6935 11.6877 83.2186 12.7267 84.7437C14.0253 86.5985 15.4538 88.412 17.0122 90.102H43.4611V80.1685H43.4178ZM43.4178 73.4088C39.6085 73.079 36.0156 71.6776 33.072 69.3282C32.8988 69.2045 32.7257 69.0397 32.5525 68.8748H4.6751C4.84825 69.4518 5.06469 70.0289 5.28113 70.6059C6.32004 73.45 7.61868 76.2116 9.09047 78.8907H43.4178V73.4088ZM43.4178 13.3956C40.5608 13.4368 37.9202 13.5192 35.0199 13.7666C28.4835 14.3024 21.9903 15.2916 15.5837 16.7755C10.9951 17.9296 6.4499 19.331 1.99125 21.0209L1.94796 21.0621C2.1644 31.6139 2.42412 46.9057 2.68385 56.5507H27.4013V47.73H27.1848C24.4577 47.6064 21.7738 47.9361 19.1333 48.6781C16.3628 49.4612 13.7223 50.5741 11.2549 51.9755C11.0817 52.0579 11.0817 52.0579 11.2549 52.2228C11.5579 52.5938 11.7743 53.0059 11.9475 53.4593C12.0773 54.0776 11.731 54.6959 11.125 54.9844C10.6488 55.3141 9.99951 55.3966 9.43677 55.2729C9.00389 55.1493 8.65759 54.9019 8.35457 54.5722C8.22471 54.4485 8.13813 54.6134 8.00827 54.6959C7.66196 54.9019 7.27237 55.108 6.92607 55.2317C6.14689 55.5614 5.23784 55.3553 4.76167 54.6959C4.28551 54.0364 4.28551 53.1708 4.80496 52.5525C5.0214 52.3464 5.41099 52.1404 5.71401 51.9343C5.7573 51.893 5.84387 51.7694 5.7573 51.7282C5.58414 51.5221 5.41099 51.2748 5.28113 51.0275C5.0214 50.3268 5.28113 49.5436 5.84387 49.0902C6.4499 48.6781 7.22909 48.6368 7.8784 48.9254C8.31128 49.0902 8.6143 49.6673 8.87403 49.997C8.91731 50.0795 9.00389 50.1207 9.09047 50.0795L9.73979 49.7085C9.82636 49.6673 9.78307 49.4612 9.73979 49.3788C8.91731 47.4827 8.74416 46.1638 9.48006 44.8448C9.95623 43.9792 10.7787 43.361 11.731 43.1136C12.3371 42.9488 12.9431 42.99 13.5058 43.2373C13.5491 43.2785 13.5491 43.361 13.5058 43.4022C12.8998 44.0204 12.4669 44.8036 12.2505 45.6279C12.1206 46.3699 12.1206 47.1118 12.3371 47.8537C12.3804 47.9774 12.4669 48.0186 12.5535 47.9774C12.8132 47.8949 13.7223 47.5652 14.0686 47.4827C14.1984 47.4415 14.1119 47.2766 14.0686 47.153C13.7223 45.9577 13.7656 44.7211 14.1984 43.567C15.0209 42.0008 16.7091 41.094 18.5272 41.1764C18.8303 41.1764 19.2631 41.4649 19.0034 41.6298C17.2719 42.5778 16.3628 44.4326 16.7091 46.2874C16.7091 46.3699 16.7957 46.4111 16.8823 46.4111C17.4883 46.2462 18.1376 46.0813 18.7437 45.9165C18.8303 45.8752 18.8303 45.7104 18.8303 45.6279C18.8303 44.1853 19.3497 42.7839 20.302 41.671C21.3842 40.5169 22.9426 39.8987 24.5443 40.0223C24.8473 40.1047 25.107 40.2284 25.3234 40.4345C25.3667 40.5169 25.3667 40.6406 25.2802 40.723C23.6785 41.7122 22.4664 43.1549 21.8171 44.8448C21.8171 44.886 21.9037 44.9685 21.947 44.9685C22.856 44.886 23.8517 44.7624 24.7607 44.6799C24.8906 44.6799 24.8906 44.6387 24.9339 44.5563C25.2802 43.5258 26.016 42.6603 26.9684 42.0832C27.0117 42.042 27.0982 42.0008 27.1415 41.9596V37.7553C27.0982 37.7553 27.055 37.7141 27.0117 37.7141C26.3191 37.4668 25.5832 37.3019 24.8473 37.2607C19.6094 37.3844 14.4582 38.7446 9.91294 41.2588C9.82636 41.3001 9.6965 41.4237 9.73979 41.5062C10.3025 42.7839 9.95623 43.567 9.17704 44.0204C8.31128 44.5151 7.1858 44.2677 6.66634 43.4434C6.62305 43.361 6.49319 43.3197 6.36333 43.4022C5.84387 43.7319 5.23784 43.8968 4.58852 43.8968C3.98249 43.8556 3.41975 43.4846 3.16002 42.9488C2.81372 41.9595 3.37646 40.8879 4.41537 40.5581H4.76167C4.84825 40.5169 4.84825 40.4345 4.76167 40.3521C4.15564 39.6926 4.24222 38.6621 4.93482 38.0851C4.97811 38.0439 5.06469 38.0026 5.10798 37.9614C5.97374 37.4668 7.14251 37.7553 7.66196 38.5797C7.74854 38.7033 7.79183 38.827 7.83512 38.9506C7.8784 39.0331 7.8784 38.9919 7.96498 38.9919C8.268 38.9506 8.57101 38.827 8.83074 38.6621C8.9606 38.6209 9.09047 38.2087 9.09047 38.0851C9.17704 35.9005 9.04718 34.5403 10.5623 33.1389C11.2116 32.5207 13.376 32.0261 13.9387 32.7268C13.982 32.768 13.982 32.8092 13.9387 32.8504C13.4625 33.0977 13.073 33.4687 12.7699 33.9221C12.1206 34.8289 11.9042 35.9005 12.0773 36.9722C12.0773 37.0134 12.0773 37.1783 12.1639 37.1371C12.8132 36.931 13.4625 36.7249 14.0686 36.4776C14.1552 36.4364 14.0686 36.3539 14.0686 36.2715C13.982 34.7876 14.4149 33.345 15.3672 32.1497C16.3628 31.1193 18.8303 30.0476 20.0423 31.0368C20.1722 31.1193 20.0423 31.2841 19.9125 31.3253C19.2631 31.6551 18.7004 32.1085 18.2675 32.6443C17.7048 33.3862 17.3152 34.2106 17.0987 35.0762C17.0987 35.1586 17.2286 35.3647 17.3152 35.3647C17.8346 35.241 18.8303 35.1586 19.393 34.9525C19.6527 34.8701 19.6094 34.7876 19.6527 34.5403C19.8259 32.2321 21.7305 30.4186 24.1547 30.1712C24.9771 30.0064 25.7996 30.13 26.5355 30.501C26.7087 30.6246 26.8818 30.7483 27.055 30.9132C27.0982 30.9956 27.0982 31.1193 27.0117 31.1605L26.9684 31.2017C26.1026 31.2841 25.2369 31.5727 24.501 32.0261C23.6785 32.5207 23.0725 33.3038 22.856 34.2106C22.856 34.3343 22.8993 34.4579 23.0292 34.4579C23.7218 34.4579 24.5875 34.4579 25.2802 34.4167C25.3667 34.4167 25.4533 34.3755 25.4533 34.293C25.9295 33.0153 27.055 31.9848 28.4402 31.5727C29.9985 31.078 31.6868 31.449 32.8555 32.5207C32.9854 32.6855 32.9854 32.768 32.8555 32.768C31.6002 32.9741 30.4314 33.4275 29.4358 34.1694C29.3059 34.293 29.1761 34.3755 29.3492 34.4167H43.3745L43.4178 13.3956ZM54.9757 70.235C53.8502 70.9769 52.6814 71.5952 51.4261 72.0898L51.5992 72.3783C51.7291 72.6668 51.7724 72.9966 51.7724 73.3263C51.7724 73.8209 51.4261 74.2331 50.9499 74.3568C50.3439 74.6041 49.608 74.4804 49.0885 74.0682C48.7422 74.4804 48.1795 74.6453 47.6167 74.5629C47.1838 74.4804 46.7943 74.1919 46.5778 73.8209C46.4912 73.6148 46.448 73.45 46.448 73.3675C45.9285 73.4088 45.4523 73.45 44.9329 73.4912V106.548V107.084C45.4956 106.96 46.2748 106.672 47.1838 106.383C48.0496 106.094 48.9587 105.682 50.0409 105.27C53.2442 103.992 56.3609 102.467 59.3478 100.736C61.2524 99.5821 63.0705 98.3043 64.802 96.9029C69.2174 93.4406 73.1133 89.3601 76.2733 84.8261C79.3468 80.4158 81.8142 75.6757 83.6756 70.6884C85.2339 66.4429 86.143 61.9914 86.2729 57.4987H61.9017V58.2818C61.8152 63.0631 59.2179 67.5558 54.9757 70.235ZM86.5759 45.9165H61.9883V47.73V56.1797H86.4027C86.446 53.1708 86.5326 49.6673 86.5759 45.9165ZM86.7923 35.7769H61.9883V44.4738H86.6192C86.6625 41.6298 86.749 38.6621 86.7923 35.7769ZM87.0088 24.4008H44.9329V34.3343H86.7923C86.8789 30.872 86.9222 27.4921 87.0088 24.4008ZM87.052 21.1033L86.9655 21.0621C82.5501 19.3722 78.0049 17.9296 73.3731 16.8167C67.0097 15.3328 60.5165 14.3436 53.9368 13.8078C50.82 13.5605 48.0063 13.4368 44.8896 13.3956V23.0818H87.0088C87.052 22.4223 87.052 21.7216 87.052 21.1033ZM87.2685 9.4799C87.1819 9.43868 87.0953 9.39746 87.0088 9.35625C82.5934 7.66631 78.0481 6.22369 73.4163 5.11081C67.053 3.62697 60.5598 2.63774 53.9801 2.10191C50.7767 1.81338 47.8765 1.73095 44.6299 1.68973H44.3701C41.1235 1.73095 38.2665 1.81338 35.0199 2.10191C28.4835 2.63774 21.9903 3.62697 15.5837 5.11081C10.9518 6.22369 6.40661 7.66631 1.99125 9.35625L1.73152 9.43868C1.73152 9.43868 1.81809 13.6429 1.90467 19.7844L1.99125 19.7431C6.40661 18.012 10.9518 16.6106 15.5837 15.4565C21.947 13.9726 28.4402 12.9834 35.0199 12.4476C38.2232 12.1591 41.1235 11.9942 44.3701 11.953H44.6299C47.8765 11.9942 50.7335 12.1591 53.9368 12.4476C60.4732 12.9834 66.9664 13.9726 73.3731 15.4565C78.0049 16.5694 82.5501 18.012 86.9655 19.7019L87.052 19.7431C87.2252 13.6429 87.2685 9.43868 87.2685 9.4799ZM64.4557 87.6701C63.7631 88.1235 63.2004 88.7418 62.8108 89.4837C62.7675 89.5249 62.7675 89.6486 62.6809 89.6074L61.6853 89.3188V89.1952C62.3779 87.9586 63.5467 87.0106 65.0185 86.6397C65.1051 86.5985 65.0618 86.5572 65.0618 86.516C64.5423 85.2795 61.9018 85.4031 60.6464 86.1863C59.4776 86.9282 58.6119 88.0823 58.3088 89.4013C58.3088 89.4837 58.3521 89.5661 58.2656 89.5661C57.9193 89.6898 57.5297 89.7722 57.1834 89.8134C57.1401 89.8134 57.0968 89.7722 57.0535 89.6898C56.9669 89.0715 57.0535 88.4533 57.3998 87.9174C57.8327 87.2579 58.3521 86.5985 58.9149 86.0626C59.0015 85.9802 59.0015 85.8565 58.9149 85.7741C58.179 85.3619 57.2267 85.3619 56.4908 85.7741C55.4086 86.3099 54.6294 87.2167 54.2398 88.3296C54.0233 89.1952 54.0233 90.0608 54.2831 90.9263C54.2831 90.9676 54.3264 91.05 54.2831 91.05C53.8935 91.1736 53.6338 91.3385 53.2874 91.5034C53.2874 91.5034 53.1576 91.5446 53.1576 91.5034C52.5083 90.4317 52.6814 89.0715 53.5905 88.1647C53.677 88.0823 53.7203 87.9999 53.5472 87.9586C52.5948 87.835 51.6425 88.1647 51.0365 88.8242C50.3006 89.6486 50.0841 90.8027 50.4737 91.7919C50.5603 92.2041 50.7335 92.6163 50.9499 92.9872C50.9499 92.9872 51.0798 93.0697 51.0365 93.1109L50.3006 93.6467C50.3006 93.6467 50.214 93.6879 50.214 93.6467C49.911 93.1109 49.3915 92.7399 48.7855 92.575C48.2228 92.4514 47.66 92.6163 47.2704 92.9872C46.5778 93.6467 46.6211 94.6772 47.2704 95.3366C47.4436 95.5015 47.7033 95.6664 47.963 95.7488C48.0063 95.7488 48.0496 95.79 47.963 95.8313C47.5734 96.0786 47.2704 96.4083 47.054 96.7793C46.7943 97.3975 46.9674 98.1395 47.4436 98.6341C47.8332 98.9638 48.3093 99.0875 48.8288 99.0462C49.5647 98.7989 50.1707 98.3043 50.517 97.6448C50.517 97.6448 50.6036 97.5624 50.6469 97.6036C50.9499 98.0158 51.3828 98.3455 51.9022 98.5104C52.4217 98.6753 53.0277 98.5928 53.4173 98.2219C53.9801 97.8097 54.1965 97.0678 53.9368 96.4083C53.7203 95.9961 53.374 95.6664 52.9844 95.4191C52.9411 95.3779 52.9844 95.2542 53.1143 95.1718C55.019 93.6879 57.3565 92.7399 59.7806 92.369C61.4256 92.1629 63.1571 92.4102 64.6722 93.1109C65.2782 93.4406 65.7977 93.8528 66.2738 94.3062C66.3604 94.3474 66.4903 94.3886 66.5768 94.3474C67.3127 93.6879 67.3993 92.6163 66.75 91.8743C66.4903 91.5858 66.144 91.2973 65.7544 91.1324C65.7544 91.0912 65.7111 91.0912 65.7111 91.05C66.0141 90.3493 66.4903 89.731 67.1396 89.2776C67.5725 88.9891 68.0486 88.783 68.5248 88.6181C68.6114 88.5769 68.6114 88.5357 68.5681 88.412C67.9621 87.0931 65.5379 87.0519 64.4125 87.7113L64.4557 87.6701ZM35.5827 19.4134C36.7082 19.4958 37.7038 20.1965 38.0934 21.227C38.0934 21.2682 38.0068 21.3506 37.9635 21.3506C37.0112 21.3506 36.0588 21.4331 35.1065 21.5567C34.5005 21.7628 33.981 22.1338 33.5049 22.546C33.4616 22.5872 33.4616 22.6696 33.5481 22.7108C34.6736 22.9581 35.6693 23.494 36.4484 24.2771C37.3575 25.019 37.7471 26.2143 37.4008 27.3272C37.3575 27.4509 37.2709 27.5333 37.141 27.5745C37.0112 27.5745 36.9246 27.5333 36.838 27.4509C34.8901 25.8846 32.466 25.019 29.9552 24.9366C23.0292 25.1427 16.1897 26.8326 9.99951 29.8827C9.95623 29.8827 9.91294 30.0064 9.95623 30.0888C10.3025 30.4598 10.4324 30.9544 10.3891 31.449C10.1727 32.1085 9.95623 32.1909 9.43677 32.5619C8.6143 33.1802 7.44552 33.0565 6.79621 32.3146L6.70963 32.2321C6.66634 32.1909 6.62305 32.1909 6.57977 32.2321C6.23346 32.4794 5.80058 32.6855 5.41099 32.8092C4.6751 33.0977 3.80934 32.8504 3.37646 32.1909C2.857 31.2017 3.28988 30.0064 4.32879 29.5118H4.37208C4.45866 29.4705 4.45866 29.3881 4.41537 29.3057C3.98249 28.5225 4.28551 27.5333 5.06469 27.0799C5.80058 26.6677 7.44552 26.4204 7.92169 27.7394C7.92169 27.7806 8.00827 27.8218 8.05156 27.8218C8.44115 27.6982 8.78745 27.5745 9.13375 27.4097C9.22033 27.3684 9.26362 27.2036 9.22033 27.0387C8.74416 25.3075 9.09047 23.4527 10.1727 21.9277C11.731 20.2378 13.5924 19.4958 15.5404 20.2378C15.6269 20.279 15.5404 20.4026 15.4971 20.4851C14.7179 21.227 13.679 21.7216 13.1162 22.5872C12.5535 23.494 12.2505 24.5244 12.2938 25.5549C12.2938 25.5961 12.4236 25.5961 12.4669 25.5961C13.4625 25.2663 14.6746 24.8542 15.8434 24.5244C15.93 24.4832 16.0598 24.4832 16.0598 24.4008C16.0598 23.7825 16.1031 23.1642 16.1897 22.546C16.4927 20.8148 17.7048 19.2897 19.393 18.6303C20.6051 18.1356 21.947 18.0944 23.2023 18.589C23.2889 18.6303 23.3322 18.7539 23.2456 18.8363C22.4232 19.3722 21.644 19.9492 20.9081 20.6499C20.2155 21.3919 19.7826 22.3399 19.696 23.3291C19.696 23.3703 19.696 23.4115 19.7393 23.4115C20.7782 23.1642 21.8604 22.9581 22.9426 22.8345C23.0292 22.8345 23.1158 22.752 23.1158 22.6696C23.2889 21.7216 24.0681 19.0837 25.4533 18.2181C26.8818 17.2289 28.6999 16.9403 30.3881 17.3525C30.7777 17.5174 31.0807 17.8059 31.3405 18.1356C31.3838 18.2181 31.2972 18.3417 31.2106 18.3829C30.0418 18.7539 28.9163 19.331 27.964 20.1141C27.3147 20.7736 26.8818 21.5567 26.7519 22.4635C26.7519 22.5047 26.8385 22.546 26.9251 22.546C27.8341 22.546 28.8298 22.546 29.7388 22.5872C29.8254 22.5872 29.8687 22.546 29.912 22.5047C30.3881 21.4331 31.2106 20.5675 32.2928 19.9904C33.3317 19.5783 34.4572 19.4134 35.5827 19.5371V19.4134Z" fill="url(#paint1_linear_96_6398)"/>
<path d="M74.8449 6.43016C78.3512 7.33695 81.8142 8.36739 85.1907 9.64514C85.2773 9.68636 85.2773 9.7688 85.2773 9.85123C85.3205 10.5519 85.2773 10.5932 85.2773 11.3351C85.2773 11.4999 85.1907 11.5412 84.9742 11.4587C82.9397 10.758 79.9961 9.7688 77.3123 9.10931C77.269 9.10931 77.2257 9.10931 77.2257 9.15053V10.0161C77.2257 10.0573 77.269 10.0985 77.3123 10.0985C80.0394 10.7992 82.6367 11.6236 85.1041 12.4892C85.1474 12.4892 85.1907 12.5716 85.1907 12.6128C85.234 13.3135 85.234 14.0142 85.1907 14.7149C85.1907 14.7562 85.1907 14.7974 85.1474 14.7974C82.7233 13.9318 79.9961 13.0662 77.1824 12.3243C77.1391 12.3243 77.0958 12.3243 77.0958 12.3655L77.0526 13.1899C77.0526 13.2311 77.0958 13.2723 77.1391 13.3135C79.823 14.0142 82.4635 14.7974 85.0175 15.7866C85.1041 15.8278 85.1474 15.869 85.1474 15.9515C85.1907 16.5697 85.1474 17.188 85.1474 17.8475C85.1474 17.8887 85.1474 18.0124 85.0175 17.9299C81.6411 16.6934 78.2213 15.6629 74.7583 14.7562C74.715 14.7562 74.6717 14.6737 74.6717 14.5913C74.715 11.8297 74.7583 9.3154 74.8449 6.55381C74.8449 6.47137 74.8449 6.38894 74.8449 6.43016ZM62.9407 12.3655C63.6766 12.4892 64.499 12.5716 65.1051 12.6953C65.1917 12.6953 65.2782 12.654 65.2782 12.6128C65.2782 11.6648 65.2782 10.5932 65.2782 9.72758C65.2782 9.68636 65.3215 9.64515 65.3648 9.68636C67.1396 9.97489 68.8711 10.3046 70.6027 10.6756C70.6459 10.6756 70.8624 10.7168 70.8624 10.7992C70.8624 11.7885 70.8191 12.6128 70.8191 13.6021C70.8191 13.6845 70.8624 13.7669 70.949 13.7669C71.6416 13.9318 72.2909 14.0555 72.9402 14.2203C73.1133 14.2615 73.1566 14.2203 73.1566 14.1791C73.2432 12.1182 73.2865 8.86201 73.3298 6.10041C73.3298 6.05919 73.3298 6.01798 73.2865 6.01798C72.5506 5.85311 71.858 5.68823 71.1221 5.52336C71.0355 5.52336 71.0355 5.6058 70.9922 5.68823C70.9057 6.71868 70.949 7.62547 70.8624 8.65592C70.8624 8.69714 70.8624 8.69714 70.8191 8.69714C69.0443 8.36739 67.1829 7.95521 65.4514 7.66669C65.4081 7.66669 65.4081 7.58425 65.4514 7.54304C65.4514 6.55381 65.4514 5.56458 65.4514 4.57535C65.4514 4.49292 65.4081 4.4517 65.3215 4.4517C64.6289 4.32805 64.0229 4.24561 63.3303 4.12196C63.287 4.12196 63.2437 4.16317 63.2437 4.24561C63.2004 5.48214 63.0273 10.8405 62.984 12.2831L62.9407 12.3655ZM53.8502 3.05029C52.8979 3.00907 52.0754 3.66856 51.9023 4.53413L51.859 9.93367C51.9023 10.5519 52.3351 11.0878 52.9845 11.2526C55.8848 11.4999 58.7418 11.7473 61.9883 12.2419C62.0316 12.2419 62.1182 12.2007 62.1182 12.1594V10.3046C62.0749 10.2634 62.0316 10.181 61.9883 10.181C59.824 9.93367 56.9669 9.56271 54.413 9.3154C54.2398 9.27418 54.1532 9.15053 54.1532 8.98566V5.31727C54.1532 5.1524 54.3697 5.06997 54.5428 5.11118C57.0535 5.31727 59.5642 5.72945 62.0749 6.01798C62.1615 6.01798 62.2481 5.97676 62.2481 5.93554L62.3347 4.12196C62.3347 4.03952 62.2914 3.9983 62.2048 3.95709C59.3911 3.58612 57.27 3.33882 53.8502 3.05029ZM49.9976 2.76177C47.2272 2.63811 44.197 2.55568 41.4266 2.67933C40.8638 2.67933 40.0414 3.17395 40.0414 3.70978L39.9981 6.63624C39.9981 7.25451 40.8205 7.70791 41.4699 7.70791C43.6776 7.74913 45.6255 7.70791 47.7466 7.83156C47.9198 7.83156 48.0496 7.914 48.0496 8.07887V8.65592C48.0496 8.77957 47.9631 8.86201 47.8765 8.86201H47.8332C45.3658 8.86201 42.7685 8.73835 40.2578 8.94444C40.1279 8.94444 40.1279 8.94444 40.1279 9.0681L39.9981 10.7992V10.9229C42.9849 10.758 45.9718 10.758 48.9587 10.9229C49.6946 10.9229 50.3006 10.3871 50.3872 9.72758L50.4305 6.88355C50.4305 6.3065 49.6946 5.85311 49.1751 5.85311C47.0973 5.72945 44.6732 5.81189 42.5521 5.72945C42.4222 5.72945 42.3356 5.64702 42.2923 5.52336V5.48214L42.3356 4.82266C42.3356 4.69901 42.4222 4.65779 42.5521 4.65779C44.6732 4.57535 47.8332 4.69901 49.9976 4.74022C50.1707 4.69901 50.3006 4.57535 50.3006 4.41048V3.09151C50.3006 3.00907 50.1707 2.80299 49.9976 2.76177ZM37.3575 8.03765C37.9635 7.79034 38.3098 7.25451 38.3098 6.63624C38.3531 5.77067 38.3098 4.94631 38.2233 4.08074C38.0501 3.46247 37.4874 2.96786 36.7948 2.96786C34.8035 3.00907 30.4314 3.54491 27.9207 3.83343V12.0358V12.1594L30.1717 11.8709C30.215 11.8709 30.215 11.8297 30.215 11.7885V9.39784L34.7169 8.94444C35.1065 8.86201 35.5827 9.15053 35.929 9.72758C36.232 10.181 36.4052 10.7168 36.4918 11.2526L38.6994 11.0878C38.7427 11.0878 38.8293 11.0878 38.8293 11.0466C38.786 9.89245 38.2233 8.77957 37.3575 8.03765ZM35.8424 6.26528C35.8424 6.63624 35.5394 6.96599 35.1931 7.0072L30.1284 7.4606L30.0851 7.41938V5.56458H30.1284L35.4096 5.06997C35.5827 5.02875 35.7991 5.1524 35.8424 5.31727C35.8424 5.31727 35.8424 5.31727 35.8424 5.35849V5.39971V6.26528ZM26.6221 5.48214C26.5788 5.11118 26.4057 4.82266 26.1026 4.57535C25.7996 4.32805 25.41 4.20439 25.0204 4.20439C22.4232 4.57535 19.8259 5.11118 17.2286 5.64702C16.7957 5.77067 16.4494 5.97676 16.1464 6.3065C15.8867 6.55381 15.7135 6.88355 15.6703 7.25451V12.3243C15.6703 12.7777 15.8867 13.1899 16.1897 13.5196C16.4061 13.8494 16.7525 14.0142 17.142 14.0142C19.7393 13.4784 22.3366 12.9838 24.8906 12.5716C25.41 12.448 25.8429 12.2007 26.1892 11.8297C26.4489 11.5412 26.6221 11.1702 26.6654 10.7992L26.6221 5.48214ZM24.0681 10.181C24.0681 10.3458 23.9815 10.5519 23.8517 10.6344C23.6785 10.758 23.5054 10.7992 23.2889 10.8405C21.947 11.0878 19.9558 11.4587 18.5273 11.706C18.3974 11.7473 18.2242 11.706 18.0944 11.6236C17.9645 11.4999 17.9212 11.3351 17.9645 11.1702V7.87278C17.9645 7.70791 18.0511 7.54304 18.1377 7.41938C18.3108 7.29573 18.484 7.17208 18.7004 7.17208C20.0856 6.92477 21.9037 6.59503 23.2889 6.38894C23.4621 6.34772 23.6785 6.38894 23.8084 6.47137C23.9815 6.59503 24.0681 6.7599 24.0681 6.96599V10.181ZM14.7179 7.914C14.6746 7.54304 14.4582 7.21329 14.1552 7.0072C13.7656 6.71868 13.2461 6.63624 12.77 6.7599C9.69652 7.50182 6.57979 8.6147 3.46305 9.72758C3.37648 9.7688 3.33319 9.85123 3.33319 9.97489V16.611V18.0948C3.33319 18.0948 5.58416 17.2704 6.06033 17.1468C6.10362 17.1468 6.10362 17.0644 6.10362 17.0231L6.06033 14.6737C6.06033 14.5913 6.06033 14.5088 6.14691 14.5088L13.8522 12.2419C14.1119 12.1594 14.3283 11.9946 14.5015 11.7885C14.6746 11.5824 14.7612 11.3351 14.7612 11.0878L14.7179 7.914ZM12.2072 10.3871C12.2072 10.5932 11.9042 10.8405 11.6878 10.8817L6.06033 12.6128C6.01704 12.6128 5.93047 12.6128 5.93047 12.5716V10.9641C5.93047 10.8817 6.01704 10.8405 6.10362 10.7992C7.965 10.0985 9.86967 9.48027 11.8176 8.98566C11.9908 8.94444 12.1639 9.10931 12.1639 9.27418C12.2072 9.64515 12.2505 10.0161 12.2072 10.3871Z" fill="url(#paint2_linear_96_6398)"/>
<path d="M6.10362 11.2115C6.01704 11.2115 5.93047 11.2939 5.93047 11.3763V10.9642C5.93047 10.8817 6.01704 10.8405 6.10362 10.7993C7.965 10.0986 9.86967 9.48032 11.8176 8.98571C11.9908 8.94449 12.1639 9.10936 12.1639 9.27423L12.2072 9.68641C12.2072 9.56276 11.9908 9.35667 11.8176 9.39788C9.86967 9.8925 7.965 10.5108 6.10362 11.2115ZM14.7612 11.0466C14.7612 11.2939 14.6746 11.5412 14.5015 11.7473C14.3283 11.9534 14.1119 12.1183 13.8522 12.2007L6.14691 14.4265C6.06033 14.4265 6.06033 14.5501 6.06033 14.6326V15.0447C6.06033 14.9623 6.06033 14.8799 6.10362 14.8799L13.8522 12.5717C14.1119 12.4892 14.3283 12.3244 14.5015 12.1183C14.6746 11.9122 14.7612 11.6649 14.7612 11.4176V11.0466ZM6.10362 16.982C6.10362 17.0644 6.10362 17.1056 6.06033 17.1056C5.58416 17.2705 3.33319 18.0536 3.33319 18.0536V18.4658C3.33319 18.4658 5.58416 17.6415 6.06033 17.5178C6.10362 17.5178 6.10362 17.4354 6.10362 17.3941V16.982ZM23.7651 6.55385C23.5919 6.47142 23.4188 6.4302 23.2456 6.47142C21.8171 6.67751 20.0423 7.00725 18.6571 7.25456C18.4407 7.29578 18.2675 7.37821 18.0944 7.50186C17.9645 7.62552 17.9212 7.79039 17.9212 7.95526V8.40866C17.9212 8.24379 18.0078 8.07891 18.0944 7.95526C18.2675 7.83161 18.4407 7.70795 18.6571 7.70795C20.0423 7.46065 21.8604 7.1309 23.2456 6.92481C23.4188 6.8836 23.6352 6.92481 23.7651 7.00725C23.9383 7.1309 24.0248 7.29578 24.0248 7.50186V7.00725C24.0248 6.84238 23.9383 6.63629 23.7651 6.55385ZM24.8473 12.5304C22.2933 12.9426 19.696 13.4372 17.0988 13.9731C16.7092 13.9731 16.3629 13.8082 16.1464 13.4785C15.8434 13.1899 15.6703 12.7777 15.627 12.3656V12.7365C15.6703 13.1487 15.8434 13.5609 16.1464 13.8906C16.4494 14.2204 16.7957 14.4677 17.0988 14.4265C19.696 13.8906 22.2933 13.4372 24.8473 13.0251C25.3668 12.9014 25.7996 12.6541 26.1026 12.2831C26.3624 11.9946 26.5355 11.6236 26.5788 11.2527V10.7993C26.5788 11.1703 26.4057 11.5412 26.1026 11.8297C25.7996 12.1595 25.3235 12.448 24.8473 12.5304ZM35.3663 5.11123L30.0851 5.60584H30.0419V6.05924H30.0851L35.4096 5.56463C35.5827 5.52341 35.7991 5.64706 35.8424 5.81193C35.8424 5.81193 35.8424 5.81193 35.8424 5.85315V5.44097C35.8424 5.23488 35.6693 5.11123 35.4528 5.11123H35.4096H35.3663ZM38.2666 7.08969V6.59507C38.3098 7.21334 37.9203 7.79039 37.3142 8.0377C37.4441 8.12013 37.5307 8.20257 37.6172 8.285C38.0501 8.0377 38.3098 7.5843 38.2666 7.08969ZM38.6562 11.0878L36.4485 11.2527C36.3619 10.7169 36.1887 10.181 35.8857 9.72763C35.5394 9.15058 35.0633 8.90327 34.6737 8.94449L30.215 9.39788V9.81006L34.7169 9.35667C35.1065 9.27423 35.5827 9.56276 35.929 10.1398C36.232 10.5932 36.4052 11.129 36.4918 11.6649L38.6994 11.5C38.7427 11.5 38.8293 11.5 38.8293 11.4588V11.0466C38.8293 11.0878 38.7427 11.0878 38.6994 11.0878H38.6562ZM30.1284 11.8297L27.9207 12.1183V12.5304L30.1284 12.2419C30.1717 12.2831 30.215 12.2831 30.215 12.2419C30.2583 12.2007 30.2583 12.1595 30.215 12.1595V11.7473C30.215 11.7885 30.1717 11.8297 30.1284 11.8297C30.1717 11.8297 30.1717 11.8297 30.1284 11.8297ZM49.9976 5.2761C50.1707 5.23488 50.3006 5.11123 50.3006 4.94636V4.53418C50.3006 4.69905 50.1707 4.8227 49.9976 4.86392C47.8332 4.8227 44.6732 4.69905 42.5521 4.78149C42.4222 4.78149 42.3356 4.8227 42.3356 4.94636L42.2923 5.35854C42.2923 5.23488 42.4222 5.19367 42.5521 5.19367C44.6732 5.15245 47.8332 5.23488 49.9976 5.2761ZM41.4699 8.16135C43.6776 8.20257 45.6255 8.16135 47.7466 8.285C47.8765 8.285 48.0496 8.36744 48.0496 8.53231V8.12013C48.0496 7.95526 47.9198 7.87282 47.7466 7.87282C45.6255 7.74917 43.6776 7.79039 41.4699 7.74917C40.8206 7.74917 39.9981 7.25456 39.9981 6.67751V7.08969C39.9981 7.66674 40.8206 8.16135 41.4699 8.16135ZM48.9154 11.0054C45.9285 10.8405 42.9417 10.8405 39.9548 11.0054V11.4176C42.9417 11.2527 45.9285 11.2527 48.9154 11.4176C49.6513 11.4176 50.2573 10.8817 50.3439 10.2222V9.81006C50.2573 10.4695 49.6513 10.9642 48.9154 11.0054ZM62.1182 5.93559C59.6075 5.68828 57.0968 5.23488 54.5861 5.02879C54.413 5.02879 54.1965 5.11123 54.1965 5.23488V5.64706C54.1965 5.48219 54.413 5.39975 54.5861 5.44097C57.0968 5.64706 59.6075 6.05924 62.1182 6.34776C62.2048 6.34776 62.2914 6.30655 62.2914 6.26533V5.85315C62.2914 5.89437 62.1615 5.93559 62.1182 5.93559ZM61.9884 12.2419C58.7418 11.7885 55.8848 11.5412 52.9845 11.2527C52.3351 11.0878 51.859 10.552 51.859 9.93372V10.3459C51.9023 10.9642 52.3351 11.5 52.9845 11.6649C55.8848 11.9122 58.6985 12.1595 61.9451 12.6129C61.9884 12.6129 62.0749 12.5717 62.0749 12.5304L62.1182 12.1183C62.1182 12.2007 62.0316 12.2419 61.9884 12.2419ZM70.7758 11.2527C70.7758 11.0878 70.7758 11.0054 70.7758 10.8405C70.7758 10.7169 70.5594 10.7169 70.5161 10.7169C68.7413 10.3459 67.053 10.0162 65.2782 9.72763C65.1917 9.72763 65.1917 9.72763 65.1917 9.76885V10.181C65.1917 10.1398 65.1917 10.0986 65.2782 10.1398C67.053 10.4283 68.7846 10.7581 70.5161 11.129C70.6027 11.0878 70.7758 11.129 70.7758 11.2527ZM65.0618 12.6953C64.4558 12.5717 63.6333 12.4892 62.8974 12.3656V12.7365C63.6333 12.8602 64.4125 12.9426 65.0185 13.0663C65.1051 13.0663 65.1917 13.0251 65.1917 12.9838V12.6541C65.1484 12.6953 65.1051 12.7365 65.0618 12.6953ZM72.8536 14.2204C72.2043 14.0967 71.555 13.9318 70.8624 13.767C70.7758 13.7258 70.7325 13.6845 70.7325 13.6021V14.0143C70.7325 14.0967 70.7758 14.1792 70.8624 14.1792C71.555 14.344 72.161 14.4677 72.8536 14.6326C73.0268 14.6738 73.0701 14.6326 73.0701 14.5913L73.1133 14.1792C73.0701 14.2616 73.0268 14.2616 72.8536 14.2204ZM84.9743 11.4176C82.9397 10.7169 79.9961 9.72763 77.3123 9.06814C77.269 9.06814 77.2257 9.06814 77.2257 9.10936V9.52154C77.2257 9.48032 77.3123 9.48032 77.3556 9.48032C80.0394 10.1398 82.9397 11.0878 85.0175 11.8297C85.1907 11.871 85.3206 11.871 85.3206 11.7061L85.3638 11.3351C85.2773 11.4588 85.1474 11.4588 84.9743 11.4176ZM85.1474 14.7562C82.7233 13.8906 79.9961 13.0251 77.1824 12.2831C77.1391 12.2831 77.0958 12.2831 77.0958 12.3244V12.7365C77.1391 12.7365 77.1824 12.7365 77.2257 12.7365C79.9961 13.4785 82.7233 14.344 85.1474 15.2096C85.1907 15.2096 85.1907 15.1684 85.1907 15.1272L85.234 14.715C85.1907 14.715 85.1907 14.7562 85.1474 14.7562ZM84.9743 17.8475C81.5978 16.611 78.178 15.5806 74.715 14.6738C74.6717 14.6738 74.6284 14.5913 74.6284 14.5089V14.9211C74.6284 14.9623 74.6717 15.0447 74.715 15.0447C78.178 15.9103 81.5978 16.982 84.9743 18.2185C85.1041 18.2597 85.1041 18.1773 85.1041 18.0948L85.1474 17.7239C85.1474 17.8063 85.1041 17.8888 84.9743 17.8475Z" fill="#432918"/>
<path d="M84.9309 10.5104C84.9309 10.6753 84.9309 11.005 84.9309 11.1699L84.3682 10.9638L83.9786 10.8401C83.0262 10.5104 82.1172 10.2219 81.2947 9.97457C80.4723 9.72726 79.6498 9.47996 78.8706 9.27387H78.8273L78.178 9.10899L77.4854 8.90291L76.9226 8.73803V10.3043L77.2689 10.3867L77.5287 10.4692L77.9615 10.5928L78.3944 10.7165C79.3901 10.9638 80.3424 11.2523 81.338 11.5821C82.3336 11.9118 83.286 12.2003 84.195 12.4889L84.4115 12.5713L84.9309 12.7362V12.9423C84.9309 13.1483 84.9309 14.3437 84.9309 14.3437H84.8443L84.3249 14.22L83.9786 14.0964C82.9829 13.7666 81.944 13.4369 80.8618 13.1071C79.7796 12.7774 78.6974 12.4889 77.6152 12.1591L76.7495 11.9118V12.6949V13.4369L77.0958 13.5193L77.7451 13.7254L78.3944 13.9315L78.6542 14.0139L78.9139 14.0964C79.8662 14.3849 80.7753 14.6322 81.641 14.9207C82.5068 15.2092 83.4158 15.4565 84.2383 15.7451L84.3249 15.7863L84.4115 15.8275L84.5413 15.8687L84.8443 15.9924C84.8443 16.487 84.8443 16.9816 84.801 17.4762L84.2816 17.3113L84.195 17.2701L84.1084 17.2289C82.5068 16.6931 80.9484 16.1985 79.5199 15.7863C78.0914 15.3741 76.3599 14.8383 75.0613 14.5085V14.4261C75.0613 13.7666 75.1045 12.4889 75.1045 11.2935C75.1045 10.0982 75.1911 6.84201 75.1911 6.75958C75.321 6.75958 78.3511 7.58394 79.7796 8.03733C81.2081 8.49073 82.6799 8.98534 84.1084 9.47996H84.1517L84.498 9.60361L84.9742 9.76848C84.9742 9.93335 84.9742 10.3043 84.9742 10.5104H84.9309ZM72.8536 6.3474C72.6371 6.30618 72.4207 6.22375 72.2043 6.18253L71.3818 6.01766V6.55349C71.3818 6.63592 71.3818 6.75958 71.3818 6.84201C71.3818 6.92445 71.3818 7.0481 71.3818 7.13054V7.21297C71.3818 7.46028 71.3818 7.70759 71.3818 7.9549C71.3818 8.2022 71.3385 8.44951 71.3385 8.73803V8.90291V9.23265L70.9489 9.15021L70.6459 9.10899L70.3862 9.06778L70.1264 9.02656L68.265 8.6556L66.3171 8.28464H66.2305H66.1439L65.6678 8.2022L65.1916 8.11977H65.0617V7.21297V6.3474V4.82234L64.6721 4.78112L64.3691 4.7399L64.0228 4.69869L63.5034 4.61625V4.98721C63.5034 5.44061 63.4601 6.05888 63.4601 6.75958C63.4601 7.46028 63.4168 8.24342 63.3735 9.02656C63.3735 9.23265 63.3735 9.47996 63.3735 9.68604C63.3735 9.89213 63.3735 10.0982 63.3735 10.3043C63.3735 10.6341 63.3735 10.9638 63.3302 11.2523C63.3302 11.5408 63.3302 11.9942 63.3302 12.2003L63.7631 12.2828L64.0228 12.324L64.4124 12.4064L65.0185 12.4889H65.0617V11.9118V11.4584C65.0617 11.4584 65.0617 11.2111 65.0617 10.9226C65.0617 10.6341 65.0617 10.2219 65.0617 9.93335V9.76848C65.0617 9.68605 65.0617 9.47996 65.0617 9.39752C65.105 9.39752 65.2782 9.43874 65.3215 9.43874H65.3648H65.4513C65.7543 9.47996 66.447 9.64483 67.356 9.8097L70.2996 10.3867L70.4294 10.428L70.5593 10.4692L70.9056 10.5516L71.2519 10.6341C71.2519 10.7165 71.2519 11.0875 71.2519 11.1699V11.6233C71.2519 11.8294 71.2519 11.9942 71.2519 12.1591C71.2519 12.324 71.2519 12.4889 71.2519 12.6537V13.0659V13.272V13.6017L71.7714 13.7254L72.1177 13.8078L72.4207 13.8903L72.8969 14.0139V13.5605V13.3544C72.9401 12.4476 72.9401 11.4172 72.9834 10.3043C73.0267 9.19143 73.0267 8.07855 73.0267 6.96567V6.55349L72.8536 6.3474ZM56.837 3.58581C55.4951 3.46215 54.4129 3.3385 53.9367 3.29728C53.5039 3.25606 53.1143 3.42093 52.768 3.66824C52.465 3.87433 52.2485 4.20407 52.1619 4.57503C52.1186 4.90478 52.1619 7.21297 52.1619 7.21297V9.97457C52.1619 10.0982 52.2052 10.2631 52.2485 10.3867C52.2918 10.5104 52.3784 10.6341 52.465 10.7165C52.6381 10.8814 52.8113 10.9638 53.0277 11.005C53.1576 11.0462 53.2441 11.0462 53.374 11.0462H53.4606H53.5471C54.7592 11.1699 56.0146 11.2523 57.3132 11.4172C58.6118 11.5821 59.8672 11.6645 61.1658 11.8294L61.7719 11.9118V11.1287V10.5104L61.0793 10.428L60.5598 10.3455H60.5165H60.4732C59.4343 10.2219 58.3954 10.0982 57.3132 9.97457C56.231 9.85092 55.1921 9.72726 54.1099 9.60361C54.0666 9.60361 53.98 9.56239 53.9367 9.52117C53.8935 9.47996 53.8935 9.39752 53.8502 9.3563V5.23452C53.8069 5.11087 53.8935 4.94599 53.98 4.86356C54.1099 4.78112 54.2398 4.7399 54.4129 4.7399C55.1055 4.78112 61.036 5.56426 61.945 5.68792V4.98721C61.945 4.78112 61.945 4.61625 61.945 4.41016V4.16286C60.7762 3.99798 58.5686 3.75068 56.837 3.58581ZM38.2232 9.39752C38.4397 9.85092 38.6128 10.3455 38.6128 10.8401L36.7947 10.9638C36.6649 10.4692 36.4917 9.93335 36.232 9.47996C35.9722 8.94412 35.4095 8.61438 34.7602 8.61438C33.9377 8.69682 29.9552 9.06778 29.9552 9.10899C29.9552 9.15021 29.9552 11.5408 29.9552 11.5408L29.0895 11.6645L28.2237 11.7882V3.99798C28.2237 3.99798 35.929 3.17363 36.7514 3.21484C37.5739 3.25606 37.7903 3.70946 37.8336 4.12164C37.9202 5.02843 37.9635 5.93522 37.9202 6.8008C37.7903 7.29541 37.4873 7.70759 37.0112 7.9549C37.5306 8.36707 37.9635 8.86169 38.2232 9.39752ZM36.1887 5.39939C36.1887 5.23452 36.1454 5.11087 36.0155 4.98721C35.8424 4.86356 35.6259 4.82234 35.4095 4.82234L29.8687 5.35817V7.70759L32.5092 7.46028L35.1498 7.25419C35.4095 7.25419 35.6692 7.13054 35.8857 6.92445C36.0588 6.75958 36.1454 6.51227 36.1454 6.26496L36.1887 5.39939ZM26.1892 5.44061C26.1892 5.81157 26.2325 10.3043 26.2325 10.6753C26.1459 11.376 25.6264 11.953 24.9338 12.1179L17.3584 13.5193C16.7957 13.643 16.0598 12.9423 16.0598 12.3652C16.0598 11.7882 16.0598 7.17176 16.0598 7.17176C16.0598 6.59471 16.7091 6.14131 17.2719 6.01766C17.8346 5.894 24.4577 4.65747 24.8905 4.57503C25.4966 4.4926 26.1026 4.86356 26.1892 5.44061ZM24.4577 6.84201C24.4577 6.38862 24.2412 6.01766 23.5486 6.10009C22.6396 6.22375 19.6527 6.75958 18.6571 6.92445C17.8346 7.08932 17.5316 7.37785 17.5316 8.03733V11.3348C17.5316 11.7882 17.8346 12.1591 18.3541 12.0767C18.8735 11.9942 23.2456 11.2111 23.7218 11.0875C24.1979 11.005 24.5009 10.5928 24.4577 10.1394C24.5009 9.72726 24.4577 7.0481 24.4577 6.84201ZM49.2616 6.22375C48.6123 6.18253 47.9197 6.18253 47.2271 6.14131C46.5345 6.10009 45.7986 6.14131 45.1493 6.14131C44.7164 6.14131 42.3356 6.14131 42.2923 6.14131C42.249 6.14131 42.2057 6.10009 42.1624 6.05888C42.1191 5.97644 42.0758 5.894 42.0758 5.81157C42.0758 5.72913 42.0758 5.60548 42.0758 5.52304V5.23452C42.0758 5.02843 42.0758 4.78112 42.1191 4.57503C42.1624 4.4926 42.249 4.45138 42.5087 4.41016C42.7685 4.36894 45.5822 4.41016 47.5301 4.45138H48.2227C48.7855 4.45138 49.4348 4.4926 49.911 4.45138V3.09119C49.0452 3.04997 48.4825 3.00876 47.6167 3.00876H47.4436L45.9285 2.96754C43.8939 2.92632 41.6863 2.96754 41.4265 2.96754C41.2101 3.00876 40.9504 3.09119 40.7772 3.21484C40.6041 3.29728 40.4742 3.46215 40.4309 3.62702V5.1933V6.75958C40.4742 6.92445 40.6041 7.08932 40.7772 7.17176C40.9936 7.29541 41.2101 7.37785 41.4698 7.37785H42.552H43.5909C44.2835 7.37785 45.0627 7.37785 45.7986 7.41906C46.5345 7.46028 47.3137 7.46028 48.0496 7.5015C48.266 7.5015 48.3526 7.58394 48.3959 7.70759C48.4392 7.87246 48.4392 8.03733 48.3959 8.16098V8.32586V8.49073C48.3959 8.6556 48.3959 8.82047 48.3093 8.98534C48.2227 9.06778 48.0929 9.10899 47.8331 9.10899H46.7942H45.8852H44.803H43.7208C43.1148 9.10899 42.5087 9.10899 41.9893 9.10899C41.4698 9.10899 40.8205 9.15021 40.3443 9.19143L40.301 10.5516C41.0802 10.5104 41.946 10.4692 42.5953 10.4692C43.2446 10.4692 43.8507 10.4692 44.4134 10.4692C44.9761 10.4692 45.409 10.4692 45.8419 10.4692L47.1405 10.5104L48.0496 10.5516L49.0452 10.5928C49.2616 10.5928 49.5214 10.4692 49.6945 10.3455C49.8677 10.2219 49.9975 10.057 50.0408 9.8097V8.32586V6.84201C49.9975 6.63593 49.911 6.47105 49.7378 6.3474C49.6512 6.30618 49.4781 6.22375 49.2616 6.22375ZM14.3716 7.9549L14.4581 11.0462C14.4581 11.1287 14.4581 11.2111 14.4149 11.2523C14.3716 11.376 14.285 11.4996 14.1984 11.6233C14.0686 11.7469 13.9387 11.8294 13.7655 11.9118L5.75727 14.3024L5.80056 16.9404C5.80056 16.9404 3.80931 17.6411 3.67945 17.6411V13.9727C3.67945 12.6125 3.63616 10.1394 3.63616 10.0982C3.63616 10.057 3.67945 10.0158 3.80931 9.97457C3.93917 9.93335 6.3633 9.109 9.39345 8.11977C10.3025 7.83124 12.4236 7.21297 12.8565 7.13054C13.2028 7.0481 13.5491 7.13054 13.8954 7.29541C14.1118 7.37785 14.3283 7.62515 14.3716 7.9549ZM12.5535 10.3043C12.5535 10.0982 12.5102 9.43874 12.5102 9.23265C12.5102 9.10899 12.4236 8.94412 12.337 8.86169C12.2072 8.73803 12.0773 8.69682 11.9042 8.69682H11.8176C11.8176 8.69682 10.0428 9.19143 9.04715 9.47996C8.05153 9.76848 5.6274 10.6753 5.6274 10.6753C5.6274 10.6753 5.67069 12.9423 5.67069 12.9835L11.8176 11.0875C11.9907 11.0462 12.1639 10.9226 12.2937 10.7989C12.4236 10.6753 12.5102 10.5104 12.5535 10.3043ZM39.2621 37.7966V39.9399C39.2621 40.1872 39.2188 40.4345 39.089 40.6406C38.9591 40.8055 38.7427 40.9292 38.4829 40.8879C38.2665 40.8879 38.0068 40.8055 37.8769 40.6406C37.7471 40.4345 37.7038 40.1872 37.7038 39.9399V37.7966C37.7038 37.6317 37.6172 37.5081 37.444 37.4669C37.2709 37.4669 37.141 37.5493 37.0977 37.7142C37.0977 37.7554 37.0977 37.7554 37.0977 37.7966V39.7751C37.0544 40.1872 37.1843 40.5994 37.4007 40.9704C37.6605 41.3001 38.0501 41.465 38.4829 41.4238C38.9158 41.465 39.3054 41.3001 39.5651 40.9704C39.7816 40.5994 39.8682 40.1872 39.8249 39.7751V37.7966C39.8249 37.6317 39.7383 37.5081 39.5651 37.4669C39.392 37.4669 39.2621 37.5493 39.2188 37.7142C39.2621 37.7554 39.2621 37.7966 39.2621 37.7966ZM42.2923 38.0439C42.4654 38.0439 42.5953 37.9203 42.5953 37.7554C42.5953 37.5905 42.4221 37.5081 42.2923 37.5081H40.6041C40.4309 37.5081 40.301 37.6317 40.301 37.7966C40.301 37.9615 40.4309 38.0851 40.6041 38.0851H41.1668V41.1765C41.1668 41.3413 41.34 41.4238 41.5131 41.4238C41.643 41.4238 41.7728 41.3001 41.7728 41.1765V38.0851H42.2923V38.0439ZM44.9329 38.0439C45.106 38.0439 45.2359 37.9203 45.2359 37.7554C45.2359 37.5905 45.106 37.4669 44.9329 37.4669H43.2446C43.0715 37.4669 42.9416 37.5905 42.9416 37.7554C42.9416 37.9203 43.0715 38.0439 43.2446 38.0439H43.8074V41.1353C43.8074 41.3001 43.9805 41.3826 44.1537 41.3826C44.2835 41.3826 44.4134 41.2589 44.4134 41.1353V38.0439H44.9329ZM48.1794 39.1156H47.2704C47.0107 39.1156 46.9674 39.2392 46.9674 39.3217C46.9674 39.4453 47.054 39.569 47.2271 39.6102H47.9197V39.7751C47.963 40.2697 47.6167 40.7231 47.1405 40.8879C46.8375 40.8879 46.5345 40.7231 46.4046 40.4345C46.2315 40.1048 46.1882 39.7751 46.1882 39.4041C46.1882 39.0744 46.2748 38.7034 46.4479 38.4149C46.5345 38.1676 46.7942 37.9615 47.0972 37.9615C47.357 38.0027 47.6167 38.1264 47.7466 38.3737C47.8331 38.4973 47.963 38.5385 48.0929 38.4561C48.2227 38.4149 48.266 38.2912 48.2227 38.2088C48.0496 37.7554 47.6167 37.4669 47.0972 37.5081C46.6644 37.4669 46.2315 37.7142 46.0583 38.0851C45.7986 38.4973 45.6687 38.9919 45.6687 39.4453C45.6687 39.9399 45.7553 40.4345 46.015 40.8467C46.2315 41.2589 46.6211 41.5062 47.0972 41.5062C47.357 41.5062 47.6167 41.4238 47.8331 41.3001C48.1794 41.0528 48.4392 40.6406 48.5257 40.2285C48.569 39.9812 48.569 39.7751 48.569 39.5278C48.5257 39.3629 48.4825 39.1156 48.1794 39.1156ZM57.9625 38.0439C58.1357 38.0439 58.2655 37.9203 58.2655 37.7554C58.2655 37.5905 58.1357 37.4669 57.9625 37.4669H56.2743C56.1011 37.4669 55.9713 37.5905 55.9713 37.7554C55.9713 37.9203 56.1011 38.0439 56.2743 38.0439H56.837V41.1353C56.837 41.3001 57.0102 41.3826 57.1833 41.3826C57.3132 41.3826 57.4431 41.2589 57.4431 41.1353V38.0439H57.9625ZM54.4995 39.9812L54.5861 39.9399C54.8025 39.8575 54.9757 39.7338 55.1488 39.6102C55.4085 39.3629 55.5384 39.0331 55.4951 38.7034C55.4951 38.3324 55.2787 38.0027 54.9757 37.7554C54.6726 37.5905 54.3263 37.4669 53.98 37.5081H53.071C52.9844 37.5081 52.8978 37.5493 52.8545 37.5905C52.8113 37.6317 52.768 37.7142 52.768 37.7966V41.094C52.768 41.2589 52.8545 41.3826 53.0277 41.3826H53.071C53.2441 41.3826 53.374 41.3001 53.374 41.1353V41.094V40.0636H53.9367L54.8458 41.2177C54.8891 41.3001 55.0189 41.3413 55.1055 41.3413C55.2354 41.3413 55.3652 41.2589 55.4085 41.1353C55.4085 41.1353 55.4085 41.1353 55.4085 41.094C55.4085 41.0116 55.3652 40.9292 55.2787 40.8467L54.4995 39.9812ZM53.374 39.5278V38.0439H54.0666C54.283 38.0439 54.4995 38.1264 54.6726 38.25C54.8458 38.3737 54.9324 38.5385 54.9324 38.7446C54.9324 39.198 54.5428 39.5278 54.0666 39.5278H53.374ZM50.9932 37.7966C50.9066 37.6317 50.7767 37.5081 50.5603 37.4669C50.3438 37.4669 50.1707 37.6317 50.1274 37.7966L49.0452 41.094C49.0019 41.1765 49.0452 41.2589 49.0885 41.3413C49.1318 41.4238 49.2184 41.465 49.3049 41.465C49.4348 41.465 49.6079 41.465 49.6512 41.2589L49.8244 40.6819H51.3828L51.5559 41.2589C51.5992 41.3826 51.7291 41.465 51.8589 41.465C51.9455 41.465 52.0754 41.4238 52.1186 41.3413C52.1619 41.2589 52.1619 41.1353 52.1186 41.0116L50.9932 37.7966ZM51.1663 40.2697H49.9543L50.5603 38.1676L51.2529 40.2697H51.1663ZM33.678 39.4453C33.2884 39.2392 32.8555 39.1156 32.4226 39.0744C32.1196 39.0331 31.9465 38.7446 31.9898 38.4973C32.0763 38.2088 32.3793 38.0439 32.6824 38.0439C32.9854 38.0439 33.2451 38.1676 33.4183 38.3737C33.5914 38.5797 33.8511 38.3737 33.8511 38.2088C33.8511 38.0439 33.5914 37.5081 32.7257 37.5081C32.4226 37.5081 32.1196 37.5905 31.8599 37.7554C31.6002 37.9203 31.427 38.2088 31.3837 38.4973C31.2971 39.0744 31.7733 39.6102 32.3794 39.6926C32.4226 39.6926 32.4659 39.6926 32.5525 39.6926C32.8988 39.6926 33.2884 39.8575 33.4615 40.146C33.5481 40.3109 33.5048 40.517 33.3317 40.6819C33.1152 40.8467 32.8988 40.9292 32.6391 40.8879C32.3793 40.8879 32.1196 40.7643 31.9032 40.5994C31.8166 40.4758 31.6435 40.4345 31.5136 40.4758C31.2972 40.5582 31.3404 40.8055 31.3404 40.8467C31.6002 41.2589 32.0763 41.5062 32.5958 41.465C33.0287 41.5062 33.4615 41.3413 33.7646 41.0528C33.981 40.8467 34.1109 40.5582 34.0676 40.2697C34.1109 39.9399 33.9377 39.6102 33.678 39.4453ZM36.3186 38.0851C36.4917 38.0851 36.6216 37.9615 36.6216 37.7966C36.6216 37.6317 36.4917 37.5081 36.3186 37.5081H34.6303C34.4572 37.5081 34.3273 37.6317 34.3273 37.7966C34.3273 37.9615 34.4572 38.0851 34.6303 38.0851H35.1931V41.1765C35.1931 41.3413 35.2796 41.465 35.4528 41.5062C35.6259 41.5062 35.7558 41.4238 35.7991 41.2589C35.7991 41.2177 35.7991 41.2177 35.7991 41.1765V38.0851H36.3186ZM12.2072 23.1231C12.6833 22.1338 13.4192 21.3507 14.3716 20.7324C14.8044 20.4439 14.8477 20.3615 14.8477 20.3202C14.8477 20.279 14.7612 20.2378 14.1551 20.2378C13.2461 20.3202 12.3803 20.65 11.6877 21.227C10.822 21.9277 10.2592 22.8758 9.9562 23.9062C9.73976 25.1015 9.78305 26.3381 10.0428 27.5334C10.0428 27.5334 8.48441 28.2341 7.96495 28.5226C7.83509 28.1104 7.66194 27.7395 7.35892 27.4509C6.88275 27.08 6.19015 26.9975 5.6274 27.2861C5.15124 27.4921 4.84822 27.9868 4.9348 28.4814C4.97808 28.8523 5.15124 29.2233 5.41096 29.5118C4.97808 29.6355 4.58849 29.8828 4.28548 30.1713C3.89589 30.5423 3.72273 31.1193 3.8526 31.6552C4.06904 32.1085 4.54521 32.3971 5.06466 32.3146C5.71398 32.191 6.32001 31.9025 6.79618 31.4491C7.01262 31.6964 7.22906 31.9437 7.48878 32.1498C7.74851 32.3559 8.05153 32.4383 8.39783 32.4383C8.65756 32.4383 8.91729 32.3971 9.13373 32.2734C9.60989 32.0261 9.86962 31.5315 9.78305 31.0369C9.69647 30.3362 9.00386 30.0889 9.04715 29.8003C12.5535 27.9455 16.3195 26.5441 20.2154 25.6786C22.856 25.0191 25.5399 24.6069 28.267 24.442C29.9985 24.2772 31.7733 24.442 33.4183 24.9366C34.8035 25.2664 36.0588 25.9259 37.0544 26.8739H37.0977C37.0544 25.6786 36.3618 24.5657 35.1931 24.0299C34.284 23.494 33.2451 23.1643 32.1629 23.0818C32.4226 22.6697 32.7257 22.2987 33.072 21.9277C33.6347 21.3919 34.3706 21.0209 35.1931 20.8973C35.8857 20.8149 36.6216 20.7736 37.3142 20.7736C37.0544 20.2378 36.4917 19.8668 35.8857 19.8256C35.0632 19.702 34.2407 19.7844 33.4615 20.0317C32.0763 20.6088 30.9508 21.6804 30.3881 23.0406C28.9596 22.9582 27.4878 22.9582 26.0593 23.0406C26.1892 21.9277 26.6221 20.8973 27.3147 19.9493C28.0938 19.0837 29.1328 18.4654 30.2582 18.1357C30.4314 18.0945 30.6045 18.012 30.7344 17.8884C30.4747 17.6823 30.1717 17.435 28.9596 17.3938C27.4012 17.435 25.9294 18.1769 25.0637 19.4135C24.3711 20.5263 23.9382 21.7629 23.8516 23.0406C21.5574 23.4528 18.9168 24.0711 18.9168 24.0711C18.9601 23.1643 19.1332 22.2987 19.5228 21.4743C20.0856 20.4439 20.908 19.5783 21.947 18.9601C21.947 18.9601 22.3365 18.7128 22.4231 18.6303C22.1201 18.5067 21.7738 18.4654 21.4275 18.5067C20.6483 18.5479 19.9124 18.7127 19.2198 19.0837C17.7913 19.8256 16.9256 21.2683 16.9256 22.7933C16.8823 23.1231 16.9688 24.442 16.9256 24.7718C15.1508 25.184 13.4192 25.7198 11.6877 26.3381C11.5146 25.3076 11.6877 24.1535 12.2072 23.1231ZM31.427 32.5207C31.427 32.5207 31.9898 32.3559 32.2495 32.2734C32.1196 32.1498 31.9898 32.0673 31.8599 32.0261C31.3404 31.7788 30.7344 31.6139 30.1717 31.6552C29.5656 31.6552 28.9596 31.7788 28.3969 32.0261C27.2714 32.6444 26.4056 33.6336 26.0593 34.8289C26.0593 34.8289 24.7174 34.8701 24.1546 34.9114L22.2067 35.035C22.2067 34.7053 22.2933 34.4167 22.3365 34.087C22.5097 33.4687 22.856 32.8917 23.2889 32.3971C24.0248 31.5727 25.0637 30.9957 26.2325 30.7896C26.319 30.7484 26.4489 30.7484 26.4922 30.7071C26.1026 30.4598 25.6697 30.3362 25.1936 30.3362C22.6396 30.3362 20.5617 32.2322 20.3453 34.6641C20.3453 34.8289 20.2587 35.1587 20.2587 35.1587C20.2587 35.1587 19.3064 35.3648 18.8302 35.4472C18.051 35.5708 17.2286 35.7769 16.4927 36.0242C16.536 35.1174 16.7957 34.2519 17.2286 33.4687C17.6182 32.7268 18.1809 32.0261 18.9168 31.4903C19.09 31.3666 19.2631 31.2018 19.4795 31.0781C19.2198 31.0369 19.0034 30.9957 18.7436 30.9957C17.2719 30.9957 15.9732 31.8612 15.4538 33.1802C15.0209 34.3343 14.8044 35.5296 14.891 36.7249C14.1551 36.8898 12.5102 37.5081 11.8176 37.7554C11.6011 36.8898 11.6444 35.983 11.8609 35.1174C12.034 34.3755 12.4236 33.6748 12.9864 33.139C13.1595 32.9741 13.2894 32.8505 13.4625 32.7268C13.4192 32.7268 13.2894 32.6444 12.5968 32.768C11.3847 33.0566 10.4324 33.9633 10.0861 35.0762C9.82633 36.2715 9.73976 37.4669 9.78305 38.6622C9.35017 38.8683 8.00824 39.4453 7.7918 39.5278C7.70522 39.198 7.61865 38.9095 7.4455 38.621C7.22906 38.2912 6.83947 38.0851 6.40659 38.0851C6.14686 38.0851 5.93042 38.1264 5.71398 38.25C5.49754 38.3737 5.36768 38.5385 5.2811 38.7858C5.19452 39.0744 5.19452 39.3629 5.36768 39.6514C5.45425 39.8163 5.58412 39.9812 5.71398 40.1048C5.80056 40.2285 6.01699 40.517 6.01699 40.517C5.58412 40.6406 5.15124 40.8467 4.80493 41.094C4.24219 41.4238 4.06904 42.1245 4.37205 42.7015C4.54521 43.0725 4.97808 43.2786 5.36768 43.2786C6.06028 43.2374 6.7096 42.9076 7.14248 42.413L7.70522 43.1961C7.92166 43.4847 8.26797 43.6908 8.65756 43.6908C8.874 43.6908 9.09044 43.6495 9.26359 43.5671C9.69647 43.3198 9.91291 42.9076 9.91291 42.413C9.86962 42.0008 9.69647 41.6299 9.43674 41.3413L9.30688 41.2177L10.3025 40.7231C11.8609 39.8575 13.5058 39.1568 15.194 38.5797C17.8779 37.673 20.6916 37.0547 23.5486 36.7249C24.1546 36.6425 24.7174 36.6013 25.3234 36.6425C26.0593 36.6837 26.7952 36.8486 27.4445 37.0959V34.2931H28.6133C29.2626 33.3863 30.2582 32.768 31.427 32.5207ZM27.3147 42.9488V47.0294C26.8818 46.9882 26.3623 46.947 25.9294 46.947C22.0768 47.1531 18.2675 48.0598 14.7179 49.5437C13.1162 50.2032 11.6011 50.9863 10.0861 51.8519C10.6055 52.1404 11.0384 52.5526 11.2548 53.0884C11.5146 53.9128 10.9518 54.6547 9.82633 54.6547C8.83071 54.6959 8.57098 53.8303 8.26797 53.5006C8.18139 53.5418 7.31563 54.325 7.05591 54.4898C6.79618 54.6135 6.53645 54.6959 6.23343 54.6959C5.84384 54.6959 5.45425 54.5311 5.23781 54.2425C5.02137 53.9952 4.9348 53.6243 4.97808 53.2945C5.06466 52.8823 5.36768 52.5114 5.75727 52.3465C6.06028 52.2229 6.32001 52.0168 6.57974 51.8519C6.53645 51.6046 5.97371 51.1512 5.80056 50.7802C5.6274 50.2444 5.80056 49.6261 6.27672 49.2552C6.75289 48.9666 7.31563 49.0079 7.74851 49.2964C8.31126 49.6261 8.61427 50.6154 8.70085 50.6978C9.00386 50.4917 9.9562 49.8734 10.5189 49.5025C9.86962 48.4308 9.56661 47.1943 9.60989 45.9577C9.91291 44.0617 11.9474 42.784 12.9431 43.2374C12.1206 44.0617 11.6877 45.0922 11.6444 46.2463C11.5146 47.1118 11.6877 47.9774 12.0773 48.7193C12.0773 48.7193 14.2417 47.895 15.0642 47.6477C14.5014 46.3287 14.4581 44.8449 14.9343 43.4847C15.6269 42.2069 17.0121 41.4238 18.5272 41.4238C16.6225 42.6603 15.7568 44.8861 16.4061 46.9882C16.839 46.9058 19.3497 46.1226 19.6527 45.999C19.5661 44.5563 19.999 43.1549 20.908 42.0008C21.6439 41.0116 22.7694 40.3933 23.9815 40.2285C24.2412 40.2285 24.5009 40.2285 24.7607 40.3109C24.7607 40.3933 24.7607 40.3933 24.5442 40.517L24.4144 40.5994C23.3755 41.3826 22.4664 42.3306 21.7305 43.361C21.3842 44.0205 21.2111 44.7212 21.2111 45.4219V45.5043C21.2111 45.5043 22.5097 45.2983 23.5053 45.1746C24.5009 45.0509 25.4966 45.0509 25.4966 45.0509C25.6264 44.6388 25.8429 44.2678 26.1026 43.8968C26.4056 43.4847 26.7952 43.1137 27.1848 42.8252L27.3147 42.9488ZM69.0875 60.6725C68.2651 60.9198 67.5292 61.4556 67.0963 62.1564C66.3171 63.3105 66.0141 64.5882 66.4902 64.6294C66.7933 64.6294 67.356 64.6294 67.4859 64.6294C68.0486 64.6294 68.6114 64.6294 69.1308 64.7119C69.2607 64.7119 69.3472 64.6294 69.4338 64.5882C69.5204 64.5058 69.5637 64.3821 69.6503 64.2585C70.0831 62.9807 70.9056 61.8678 72.0311 61.0847C72.464 60.7549 73.0267 60.5901 73.5462 60.5901C74.4119 60.5489 75.2344 60.8786 75.7539 61.4969C75.9703 61.7854 74.8448 61.2496 73.1133 62.9395C72.5506 63.4753 72.1177 64.0936 71.8579 64.7943C71.8579 64.8767 71.9012 64.9179 71.9878 64.9592C72.767 65.1653 74.1955 65.495 74.8881 65.7835C75.0613 65.866 75.2344 65.7835 75.321 65.6599C75.7106 65.0828 76.23 64.5882 76.7928 64.2172C77.4421 63.8463 78.178 63.6402 78.9572 63.6402H79.087C80.6887 63.8463 80.8186 64.5882 80.9051 64.7119C80.9917 64.8355 80.5588 64.8355 80.3424 64.8767C79.2169 65.124 78.2213 65.7011 77.4854 66.5667C77.3988 66.7727 77.7884 67.0613 77.7884 67.0613C79.0005 67.7208 79.6931 68.9985 79.4333 70.3175C79.3901 70.5648 79.4333 70.6472 79.2169 70.6472C78.9572 70.5236 78.7407 70.3587 78.5676 70.1938C77.875 69.5756 77.0958 69.0397 76.3166 68.5451C75.018 67.762 73.5895 67.2261 72.0744 66.9788C70.9056 66.7727 69.7368 66.6491 68.5681 66.6491C65.9275 66.6903 63.3302 67.0613 60.8195 67.762C60.3434 67.8856 58.6984 68.339 57.2699 68.7512L56.3609 68.9985L56.9236 68.5039C57.5729 67.9268 58.1357 67.3086 58.6984 66.6903L59.088 66.1957L59.7806 66.0308L62.6809 65.4126C62.9839 65.3301 63.2436 65.0828 63.2869 64.7943C63.4168 63.7226 63.893 62.6922 64.6721 61.909C65.2782 61.0023 66.2738 60.384 67.3993 60.2603C68.7845 60.1367 69.3473 60.5489 69.0875 60.6725ZM48.1362 81.5699C47.66 81.199 47.357 80.7044 47.3137 80.1273C47.3137 79.5915 47.66 79.0557 48.1794 78.8496C48.7855 78.6435 49.4348 78.6847 49.9975 79.0144C50.6469 79.4678 50.6901 79.88 50.9066 80.5395C50.9499 80.5395 50.9499 80.5807 50.9932 80.5807C51.5559 80.2922 52.5515 79.88 53.2441 79.5091L53.5904 79.303C53.5904 79.303 53.7203 79.2617 53.677 79.0557C53.4606 78.355 53.3307 77.6543 53.3307 76.9536C53.374 76.1704 53.677 75.3873 54.1099 74.7278C55.1488 73.0379 57.14 73.1615 56.9236 73.3264C56.231 74.0683 55.7548 75.0163 55.5817 76.0055C55.4951 76.5414 55.4951 77.1184 55.5817 77.6543C55.625 77.9016 55.625 78.1901 55.7981 78.2725C55.9713 78.355 56.5773 78.0252 56.9669 77.9016C57.4431 77.7367 58.1357 77.6543 58.6118 77.5306C58.8716 77.4482 58.785 77.3245 58.785 77.2833C58.7417 75.7582 59.2179 74.2332 60.0836 72.9554C60.7762 72.0899 61.8151 71.5128 62.9406 71.4304C63.3735 71.3891 63.9363 71.554 63.7631 71.6777C63.5034 71.8425 63.2869 72.0074 63.0705 72.1723C62.4645 72.6669 61.9017 73.2439 61.4688 73.9034C60.9494 74.8514 60.7762 75.9231 60.9494 76.9948C61.8584 76.9948 62.7242 76.8711 63.6332 76.665C63.7631 76.6238 63.893 76.5002 63.893 76.3765C64.196 75.3873 64.5423 73.5737 65.6245 72.873C66.1439 72.4608 66.7933 72.2135 67.4859 72.1723C68.0053 72.1311 69.304 72.5432 69.0009 72.6669C68.1785 72.9966 67.4426 73.5325 66.9231 74.192C66.4902 74.7278 66.2305 75.3461 66.1439 76.0055C66.0574 76.3765 66.4902 76.4589 66.4902 76.4589C67.2261 76.5002 67.9187 76.5826 68.6546 76.7062C68.8711 76.7475 69.0442 76.4589 69.0875 76.3765C69.3905 75.8819 69.8234 75.4285 70.2996 75.0575C70.7757 74.6454 71.3818 74.3568 72.0311 74.3156C73.373 74.3156 74.0656 75.2636 73.8492 75.3048C72.6804 75.5934 71.6848 76.2116 70.9489 77.1184C70.9056 77.1596 70.7757 77.2421 70.9922 77.407C72.2043 78.355 73.0267 79.7151 73.2432 81.199C73.2432 81.3226 73.3297 81.8173 73.1133 81.9409C72.2475 80.9517 71.2519 80.1273 70.1264 79.4266C68.5681 78.6847 66.8798 78.3137 65.1483 78.355C63.0272 78.355 60.9494 78.6847 58.9149 79.2617C56.6639 79.9212 54.4995 80.828 52.5082 81.9821C52.8113 82.1882 53.071 82.518 53.2008 82.8477C53.5039 83.466 53.2874 84.1667 52.7247 84.5788C52.3784 84.8262 51.9455 84.9086 51.5559 84.7849C50.5603 84.6613 50.3438 83.7133 50.214 83.4248C50.0841 83.7545 49.8244 84.0018 49.5214 84.1667C48.9153 84.6201 48.0063 84.5376 47.4868 83.9606C47.4436 83.9194 47.4436 83.8781 47.4003 83.8369C46.9674 83.3011 47.054 82.518 47.6167 82.0646L48.0929 81.6524L48.1362 81.5699ZM51.5126 93.0285C51.3395 92.74 51.2096 92.4102 51.0797 92.0805C50.7767 91.3798 50.6901 90.6379 50.82 89.896C51.0364 88.9892 51.8156 88.3297 52.8113 88.2472C52.3351 88.7419 52.1619 89.4013 52.2485 90.0196C52.2918 90.6791 52.5082 91.2974 52.8545 91.8332C52.9411 91.9568 52.9844 91.9156 53.0277 91.8744C53.5471 91.5859 54.1099 91.3386 54.6726 91.1325C54.7159 91.0913 54.7159 91.0913 54.7159 91.05C54.3263 89.8547 54.4995 88.5358 55.1488 87.4229C55.6683 86.5573 56.534 85.9803 57.5729 85.8154C57.6162 85.8154 58.2223 85.8154 58.2655 86.0627C57.5729 86.5573 57.0102 87.1756 56.6639 87.9175C56.3609 88.6594 56.3176 89.4838 56.4907 90.3081C56.4907 90.3493 56.5773 90.3493 56.6206 90.3493C57.2699 90.1845 57.8759 90.0196 58.5253 89.896C58.5686 89.8547 58.6118 89.8135 58.6551 89.7723C58.8716 88.6594 59.4776 87.629 60.3866 86.8046C61.0793 86.2688 61.9017 85.939 62.7675 85.8566C63.893 85.8154 64.0661 86.1863 64.196 86.3512C64.3258 86.5161 63.9795 86.31 63.4168 86.5161C62.7675 86.8458 62.2047 87.258 61.7286 87.7938C61.2957 88.2885 61.036 88.8655 60.9494 89.4838C60.9494 89.525 60.9494 89.6074 60.9927 89.6074C61.642 89.6899 62.2913 89.8547 62.9406 90.0196C62.9839 90.0196 63.0272 90.0196 63.0705 89.9784C63.4168 89.3189 63.893 88.7006 64.4557 88.206C64.9752 87.7526 65.6678 87.4641 66.4037 87.4641C66.8365 87.4641 67.2694 87.5878 67.659 87.8351C67.659 87.8351 68.0919 88.1648 68.0053 88.206C67.2261 88.4121 66.5335 88.8243 66.0141 89.4013C65.2349 90.2669 65.2349 90.473 65.1916 90.6791C65.1483 90.8852 65.1483 90.9676 65.3648 91.0913C66.5768 91.8332 66.7067 92.4515 66.7933 92.8636C66.8798 93.2758 66.5768 93.9353 66.1872 93.4819C65.6678 92.8636 64.9752 92.369 64.1527 92.1217C63.0272 91.7095 61.8152 91.4622 60.6464 91.4622C59.5209 91.4622 58.4387 91.6683 57.3565 91.9981C55.928 92.4102 54.5861 93.0285 53.374 93.8941C53.2008 94.0177 53.0277 94.1414 52.8545 94.265C52.465 94.5124 52.1186 94.8009 51.7723 95.1306C51.6425 95.2543 51.8589 95.3367 51.9888 95.4191C53.374 95.9962 53.4173 96.903 53.071 97.3152C52.768 97.6037 52.2485 97.6861 51.8589 97.48C50.7767 96.8205 50.9932 96.2847 50.517 96.4084C50.214 96.4908 49.8677 97.2739 49.6079 97.5213C49.2184 97.9746 48.569 98.0571 48.0929 97.7273C47.5734 97.3564 47.4868 96.6145 47.8764 96.1198C48.1362 95.8725 48.3959 95.6665 48.6989 95.4604C48.6556 95.4191 47.9197 95.007 47.66 94.7597C47.2271 94.3475 47.1838 93.6468 47.66 93.1934L47.7466 93.1109C48.3093 92.74 49.0885 92.8224 49.5214 93.3583C49.5214 93.3583 50.0408 94.0177 50.0841 94.059C50.1274 94.1002 50.1707 94.1002 50.214 94.059C50.4304 93.8941 51.4693 93.1109 51.5559 93.0697C51.5559 93.0697 51.5559 93.0285 51.5126 93.0285ZM58.0058 55.5615C57.8327 55.6027 57.7028 55.6027 57.5296 55.5615C57.3565 55.5203 57.2266 55.4378 57.14 55.3142C57.0535 55.1905 56.9669 55.0669 56.9236 54.9432C56.9236 54.8608 57.0102 54.7784 57.0968 54.7371C57.3565 54.5723 57.5296 54.3662 57.7028 54.1189C57.8327 53.9128 57.9192 53.6655 57.9192 53.4182C57.9192 53.3769 57.8327 53.3357 57.7894 53.3769C57.6162 53.5418 57.5296 53.7479 57.3132 53.8716C57.14 53.9952 56.9236 54.0364 56.7072 54.0364C56.5773 54.0364 56.4042 53.954 56.3176 53.8716C56.231 53.7479 56.1444 53.6243 56.1011 53.5006C56.0579 53.3769 56.231 53.2945 56.3609 53.2533C56.6206 53.2533 56.9236 53.1709 57.14 53.0472C57.3132 52.9648 57.4431 52.8411 57.4864 52.6762C57.5296 52.5526 57.5729 52.4289 57.5729 52.3053C57.5729 52.2641 57.6162 52.2228 57.5296 52.2228C57.3998 52.2641 57.2699 52.3465 57.14 52.3877C56.9236 52.4702 56.6639 52.4702 56.4042 52.3465C56.1877 52.1816 56.0146 51.9755 55.8414 51.7695C55.7981 51.7282 55.8414 51.6458 55.8847 51.6458C56.1011 51.6046 56.3176 51.3573 56.4907 51.0687C56.534 51.0275 56.5773 50.9451 56.5773 50.9039C56.6206 50.8214 56.7072 50.739 56.7072 50.6978C56.7505 50.5329 56.7505 50.368 56.7505 50.2032C56.7505 50.0383 56.6639 49.9146 56.534 49.8322C56.4907 49.791 56.4042 49.791 56.3609 49.8322C56.2743 49.9971 56.3176 50.2444 56.231 50.4093C56.1011 50.5741 55.928 50.739 55.7548 50.8627C55.6683 50.9451 55.5384 51.0275 55.4085 50.9863C55.2354 50.9039 55.1055 50.739 55.0622 50.5741C55.0189 50.368 55.1055 50.1207 55.1921 49.9559C55.4085 49.5437 55.6683 49.1727 55.928 48.843C56.1444 48.6369 56.3609 48.3896 56.534 48.1423C56.6639 47.9362 56.7505 47.5652 56.5773 47.4828C56.4042 47.4004 56.2743 47.8125 56.1444 47.895C55.5384 48.1011 54.9757 48.4308 54.4129 48.7606C54.1532 49.0491 53.98 49.42 53.8935 49.791C53.8069 49.9971 53.8502 50.2856 53.7636 50.4917C53.7203 50.5741 53.5471 50.6154 53.5039 50.5741C53.2874 50.4093 53.1576 50.162 53.071 49.9559C53.0277 49.791 53.0277 49.6261 53.1143 49.4613C53.1576 49.3788 53.071 49.3376 53.0277 49.3788C52.768 49.5025 52.5948 49.7086 52.5082 49.9559C52.4217 50.2856 52.4217 50.6566 52.5948 50.9451C52.8978 51.3985 53.2008 51.8519 53.5471 52.3053C53.8069 52.7175 54.1099 53.1296 54.3696 53.5418C54.5861 53.8716 54.7159 54.2837 54.6293 54.6547C54.5428 55.0669 54.3263 55.4378 54.0233 55.7264C53.98 55.7676 53.8935 55.8088 53.8502 55.7676C53.5039 55.4791 53.2008 55.1905 52.8113 54.9432C52.3784 54.6959 51.9022 54.4898 51.3828 54.4074C50.7767 54.3662 50.1274 54.3662 49.4781 54.4074C48.8288 54.4074 48.1794 54.531 47.4868 54.4898C46.9674 54.531 46.4046 54.4486 45.8852 54.2837C45.4956 54.1601 45.1926 53.8716 44.9761 53.5418C44.803 53.1709 44.7164 52.7587 44.7597 52.3877C44.803 52.058 44.8896 51.7282 45.0627 51.4809C45.1926 51.2336 45.409 51.0275 45.6687 50.8627C45.9718 50.6978 46.3181 50.6566 46.6211 50.739C46.7942 50.8214 46.9241 50.9039 47.054 51.0275C47.1838 51.1512 47.3137 51.2336 47.4003 51.3573C47.4003 51.3573 47.4868 51.3573 47.5301 51.3573C47.5734 50.9451 47.5301 50.4917 47.357 50.1207C47.1838 49.8322 47.0107 49.5437 46.7942 49.2552C46.7942 49.1727 46.9674 49.2139 47.054 49.1727C47.4003 49.1727 47.7466 49.2552 48.0496 49.4613C48.266 49.5849 48.3959 49.7498 48.5257 49.9559H48.6123C48.6556 49.42 48.4825 48.9254 48.0929 48.5545C47.9197 48.3484 47.7033 48.1423 47.4436 48.0186C47.3137 47.9774 47.5734 47.8538 47.7033 47.8538C48.0063 47.8125 48.266 47.8538 48.5257 47.9774C48.6123 48.0186 48.6989 48.1011 48.7855 48.1423C48.8288 48.1835 48.9153 48.2247 48.9586 48.2659C49.0019 48.3072 49.0452 48.2247 49.0452 48.1423C49.0019 47.9774 48.9586 47.8538 48.8721 47.7301C48.4392 47.3179 48.0063 46.9882 47.5301 46.6172C47.4868 46.576 47.4436 46.5348 47.4003 46.4936C47.2704 46.3287 47.1838 46.1226 47.0972 45.9165C47.054 45.8341 46.9674 45.7517 46.8808 45.6692C46.8375 45.5456 46.8808 45.4631 46.9241 45.3395C47.054 45.0922 47.1838 45.0509 47.4868 44.9273C47.7033 44.8449 47.9197 44.8036 48.1794 44.8036C48.266 44.8036 48.3093 44.8861 48.3959 44.8449C48.4825 44.8036 48.4392 44.7212 48.3526 44.6388C48.0929 44.4739 47.7466 44.3502 47.4436 44.3502C47.0107 44.2678 46.5778 44.309 46.1449 44.4327C45.8419 44.5975 45.4956 44.68 45.106 44.7212C44.8896 44.7212 44.6298 44.68 44.4134 44.5975C44.2835 44.5151 44.1537 44.3915 44.1104 44.2266C44.1104 43.9793 44.1537 43.732 44.2835 43.4847C44.3701 43.3198 44.5433 43.1961 44.7164 43.1137C44.8463 43.0725 44.9329 42.9901 44.9329 42.9076C44.9329 42.8252 44.7597 42.8664 44.6731 42.9076C44.2835 42.9901 43.8939 43.1137 43.5476 43.3198C43.2879 43.5259 43.0715 43.7732 42.855 44.0617C42.8117 44.1029 42.7685 44.1442 42.6819 44.1854C42.5953 44.2266 42.552 44.1854 42.4654 44.2266C42.2057 44.3502 41.9027 44.4739 41.643 44.5975C41.3832 44.7212 41.1668 44.9273 40.8638 45.0097C40.6473 45.0922 40.4309 45.0922 40.2145 45.1334C39.7816 45.0922 39.1756 45.0922 39.089 45.5868C39.0457 45.7104 39.089 45.7929 39.2188 45.8341C39.3054 45.8753 39.392 45.9165 39.4786 45.9577L39.7383 46.0402C39.7816 46.0402 39.8682 46.0814 39.9114 46.1226V46.1638V46.205C39.9114 46.205 39.9114 46.205 39.9114 46.2463C39.8682 46.3287 39.8249 46.3699 39.695 46.3699C39.4353 46.4111 39.2188 46.3699 38.9591 46.2875L38.9158 46.2463C38.8293 46.205 38.6994 46.205 38.6128 46.2875C38.1366 46.6584 37.6172 47.0294 37.0977 47.3591C37.0544 47.4004 37.0112 47.4416 36.9679 47.4828C36.9246 47.524 36.9246 47.5652 36.9246 47.6065C36.9246 47.6477 36.9246 47.6889 36.9246 47.6889C36.9246 47.8125 36.7947 47.8538 36.7081 47.895C36.5783 47.9362 36.535 48.0186 36.4917 48.1011C36.4917 48.1835 36.4917 48.2659 36.4917 48.3484C36.535 48.5132 36.6649 48.5957 36.838 48.5957C36.8813 48.5957 36.8813 48.5957 36.9246 48.5545C37.0544 48.5132 37.1843 48.472 37.3142 48.4308C37.4007 48.3896 37.4873 48.4308 37.5306 48.472V48.5132C37.5306 48.5545 37.5306 48.5957 37.5306 48.6369C37.4873 48.7193 37.444 48.8018 37.3575 48.8842C37.3142 48.9666 37.2276 49.0903 37.3575 49.1727C37.5306 49.2964 37.7903 49.2964 37.9635 49.1315C38.0501 49.0491 38.1366 48.9666 38.1799 48.843C38.2232 48.7193 38.3098 48.6369 38.4397 48.5957C38.6561 48.5132 38.9158 48.472 39.1323 48.472C39.3054 48.472 39.4786 48.5132 39.6084 48.5957C39.6517 48.6369 39.695 48.6781 39.695 48.7193V48.7606V48.8018C39.6517 48.9666 39.5651 49.0903 39.4786 49.2552C39.4353 49.3376 39.392 49.4613 39.3487 49.5849C39.3054 49.7086 39.2188 49.8322 39.1756 49.9559C39.1323 50.0795 39.1323 50.0795 39.0457 50.1207C38.8293 50.2856 38.5262 50.4505 38.3531 50.6154C37.9635 50.9451 37.6605 51.3161 37.4007 51.7282C37.3142 51.8519 37.2709 51.9755 37.2276 52.1404C37.141 52.5114 37.0977 52.9236 36.6216 52.6762C36.1887 52.4702 35.7991 52.2229 35.4095 51.9343C35.2796 51.8107 35.1498 51.687 35.0199 51.5634C34.6303 51.0275 34.1542 51.5221 33.8944 51.8931C33.5048 52.5114 33.0287 53.0884 32.5525 53.6243C32.4659 53.7067 32.4226 53.8303 32.3794 53.9128C32.3361 54.0777 32.2062 54.2013 32.1196 54.325C31.9898 54.4898 31.9032 54.6959 31.9465 54.902C31.9465 55.273 31.8166 55.6439 31.6002 55.9325C31.427 56.0973 31.3404 56.3034 31.3404 56.5507C31.3404 56.7568 31.3404 56.9629 31.3404 57.169C31.3404 57.3751 31.427 57.4575 31.6002 57.4575C31.6435 57.4575 31.6867 57.4575 31.73 57.4163C32.033 57.2926 32.3793 57.1278 32.6391 56.9217C32.6824 56.8805 32.7257 56.8392 32.7689 56.8392C32.8555 56.7568 32.8988 56.6332 32.8122 56.5095C32.8122 56.4683 32.7689 56.4683 32.7689 56.4271L32.7257 56.3859C32.6391 56.3446 32.5958 56.2622 32.5958 56.221V56.1798C32.5958 56.0973 32.5958 56.0561 32.5958 55.9737C32.6391 55.8912 32.6391 55.8088 32.6391 55.6852C32.6391 55.5615 32.6824 55.4791 32.7689 55.3966L33.2018 55.0669C33.4183 54.902 33.5048 54.6135 33.375 54.3662C33.375 54.325 33.3317 54.2837 33.3317 54.2425C33.3317 54.2013 33.3317 54.2013 33.3317 54.1601C33.3317 54.0364 33.4183 53.954 33.4615 53.8716L33.7646 53.4594C33.8944 53.2533 34.1109 53.0884 34.3706 53.006C34.7169 52.9648 35.0199 53.0884 35.2796 53.2945C35.5394 53.6243 35.7125 53.9952 35.7991 54.3662C35.8857 54.6959 36.0588 54.9844 36.232 55.273C36.3618 55.4791 36.6216 55.5615 36.8813 55.4791C36.9246 55.4791 36.9246 55.4378 36.9679 55.4378L37.0112 55.3966H37.0544C37.141 55.3554 37.2709 55.3966 37.3142 55.4791C37.444 55.6439 37.5739 55.7676 37.7038 55.8912C37.8769 55.9737 37.7471 56.0973 37.5739 56.0973C37.4007 56.0973 37.3575 56.0973 37.2276 56.0973C37.141 56.0973 37.0112 56.0973 36.9246 56.1385C36.232 56.3446 35.4961 56.4683 34.8035 56.4683H34.6736C34.587 56.4683 34.5005 56.5507 34.4572 56.5919C34.4572 56.6332 34.4139 56.6332 34.4139 56.6744C34.3706 56.7568 34.3706 56.798 34.3273 56.8805C34.284 57.0453 34.284 57.2102 34.3273 57.3751C34.6303 58.3231 34.6736 59.3123 34.5437 60.2603C34.4572 60.5901 34.5437 60.961 34.8035 61.2496C34.89 61.332 35.0199 61.4144 35.1498 61.4557C35.1931 61.4557 35.2364 61.4969 35.2796 61.5381C35.3662 61.6205 35.4095 61.7854 35.4095 61.909C35.4095 62.1151 35.4961 62.28 35.6259 62.4037C35.7991 62.6097 36.0155 62.8158 36.2753 62.9395L36.3618 62.9807C36.4917 63.0219 36.6649 62.9807 36.7081 62.8571C36.8813 62.5273 36.9246 62.1976 36.9246 61.8678C36.9246 61.703 36.7947 61.5793 36.6216 61.5381H36.5783C36.535 61.5381 36.4484 61.5381 36.4051 61.5793C36.3618 61.5793 36.3618 61.6205 36.3186 61.6205H36.232H36.1887H36.1454C36.0588 61.5793 35.9722 61.4969 35.929 61.3732C35.8424 61.1671 35.8424 60.961 35.8857 60.7549C35.8857 60.7137 35.929 60.6313 35.929 60.5901C35.929 60.5076 35.929 60.384 35.929 60.3015C35.929 60.2191 35.8857 60.0955 35.8424 60.013C35.7558 59.8482 35.7558 59.8069 35.6259 59.7657H35.929C35.8857 59.7245 35.7991 59.7245 35.7558 59.6833L35.7125 59.6421C35.7125 59.6008 35.7125 59.5596 35.7125 59.5184C35.7991 59.065 35.7991 58.6116 35.7558 58.1582C35.7558 57.9934 35.7125 57.8285 35.8424 57.746C36.1887 57.4575 36.7514 57.7048 37.0977 57.8285C37.5739 57.9934 38.0068 58.0758 38.4829 58.1582C39.2621 58.2407 40.0413 58.0346 40.6473 57.5812C40.6906 57.54 40.6906 57.4987 40.7772 57.54C41.0369 57.6636 41.2101 57.8697 41.4265 57.9933C41.9893 58.3643 42.6386 58.6528 43.2879 58.8177C44.1537 58.9001 45.0627 58.9001 45.9285 58.8177C46.1449 58.8177 46.3614 58.8589 46.5778 58.9414C46.6211 58.9414 46.6644 58.9826 46.6644 59.065C46.6644 59.3948 46.5345 59.6833 46.5345 59.9718C46.5778 60.1367 46.6211 60.3016 46.7077 60.4252C46.7942 60.5489 46.8375 60.7549 46.9241 60.9198L47.0107 61.0847C47.5301 61.703 47.5301 62.5273 47.054 63.1456C46.7077 63.4341 46.3614 63.7226 45.9718 63.9699C45.6255 64.2172 45.1926 64.3821 44.7164 64.4233C44.4134 64.4233 44.1104 64.547 43.8939 64.7531C43.6342 65.0004 43.3312 65.2065 43.0282 65.3713C42.8983 65.4126 42.8117 65.5362 42.7685 65.6599C42.5953 65.9896 42.5087 66.3606 42.4221 66.7315C42.3789 66.9376 42.552 67.0201 42.7252 66.9788C43.0715 66.9376 43.3745 66.8552 43.6775 66.7315C43.8507 66.6903 43.9372 66.5254 43.8939 66.3606C43.8939 66.3194 43.8939 66.3193 43.8507 66.3193L43.7641 66.0308C43.7641 65.9896 43.7641 65.9896 43.7641 65.9484V65.9072V65.866C43.7641 65.8247 43.8074 65.8247 43.8074 65.7835C43.8507 65.7011 43.9372 65.6599 44.0238 65.6186C44.1104 65.5774 44.2402 65.5362 44.3268 65.5362L44.5433 65.5774C44.9328 65.7011 45.3657 65.5774 45.6255 65.2065L45.712 65.0828C45.7986 64.9592 45.8852 64.8355 46.015 64.7531C46.8808 64.2172 47.8331 63.8051 48.7855 63.4753C48.8721 63.4753 48.9153 63.3929 48.9586 63.3105C49.0019 63.1868 49.0019 63.1044 48.9586 62.9807C48.9153 62.651 48.9153 62.3624 48.9586 62.0327C48.9586 61.8266 49.0452 61.4144 49.3482 61.4144C49.4781 61.4144 49.5647 61.4969 49.6512 61.5793C49.9543 61.9503 50.3438 62.2388 50.82 62.3624C50.9499 62.4037 51.0797 62.4449 51.2096 62.5273C51.5559 62.6922 51.8156 62.9807 51.8589 63.3517C51.9022 63.5578 51.8589 63.7638 51.7291 63.9287C51.3828 64.3409 51.0797 64.7531 50.82 65.1653C50.6901 65.3713 50.4737 65.5774 50.2573 65.7423C49.911 65.9484 49.5647 66.1957 49.2616 66.4842C49.0019 66.6491 48.7855 66.8552 48.6123 67.1025C48.4392 67.5559 48.266 67.9681 48.1362 68.4215C48.0496 68.6688 48.2227 68.7512 48.4825 68.71C48.8288 68.6275 49.1751 68.4627 49.5214 68.2978C49.5647 68.2566 49.6079 68.2566 49.6512 68.2154C49.6945 68.1742 49.7378 68.0917 49.7378 68.0093C49.7378 67.8856 49.6512 67.762 49.6079 67.6795C49.4781 67.5559 49.4781 67.391 49.5647 67.2261C49.6079 67.1437 49.6945 67.1025 49.7811 67.1025C50.0408 67.0201 50.3006 66.9788 50.5603 66.8964C50.9066 66.8552 51.2096 66.6903 51.4693 66.4842C51.5126 66.443 51.5559 66.3606 51.5559 66.2781V66.2369C51.8589 65.2065 52.5948 64.3821 53.5471 63.8463C53.677 63.7638 53.7203 63.6814 53.7636 63.5165C53.8069 63.3929 53.7636 63.2692 53.7203 63.1456L52.9844 62.0739C52.768 61.7854 52.6381 61.4556 52.5948 61.1259C52.5948 60.7549 52.6814 60.4252 52.8545 60.0955C52.8978 60.013 52.9844 59.8894 53.0277 59.8069C53.1576 59.5184 53.4173 59.436 53.5904 59.1887C53.8069 58.9414 53.98 58.6941 54.1532 58.4467C54.3263 58.117 54.4562 57.746 54.5428 57.3751C54.6293 57.0866 54.4995 56.798 54.5428 56.5095C54.5428 56.3859 54.6293 56.3034 54.6726 56.221C54.8025 56.0561 54.9757 55.9325 55.1921 55.85C55.4085 55.8088 55.625 55.8088 55.8414 55.8912C56.231 56.0149 56.4907 56.1385 56.837 56.221C57.0535 56.2622 57.2266 56.2622 57.4431 56.1798C57.6595 56.1385 57.8327 56.0149 58.0058 55.8912C58.0924 55.6439 58.0924 55.5203 58.0058 55.5615ZM44.7164 49.6673C44.7164 49.9559 44.5433 50.2032 44.3268 50.3268C44.197 50.368 44.0671 50.4093 43.9372 50.4093C43.8074 50.4093 43.7208 50.2032 43.7208 49.8734V49.5025C43.7208 49.3376 43.7208 49.2139 43.7208 49.0491C43.7208 48.8842 43.7208 48.843 43.7208 48.7193C43.7208 48.5957 43.7208 48.472 43.7208 48.3484C43.7208 48.1011 43.7208 47.8125 43.6775 47.5652C43.6342 47.2355 43.5476 46.947 43.4611 46.6172C43.4178 46.4111 43.3312 46.2463 43.2446 46.0402C43.2013 45.9577 43.1148 45.8341 43.0715 45.7929C43.0282 45.7104 42.9849 45.628 42.8983 45.5868C42.8117 45.5043 42.6386 45.4631 42.552 45.3395C42.5087 45.2983 42.552 45.257 42.5953 45.2158C42.9849 45.0097 43.4611 45.0922 43.8074 45.3395C44.3268 45.7516 44.6731 46.3287 44.7164 46.9882C44.803 47.9362 44.803 48.8018 44.7164 49.6673ZM4.32877 67.6383H31.3837C28.873 65.0416 27.4445 61.6617 27.4012 58.1582V57.746H2.72711C2.85698 61.0847 3.37643 64.4233 4.32877 67.6383ZM43.4178 80.0861H9.78305C10.6921 81.6112 11.6444 83.1362 12.6833 84.6613C13.982 86.5161 15.4105 88.3297 16.9688 90.0196H43.4178V80.0861ZM86.749 35.6945H61.945V44.4327H86.5759C86.6191 41.5474 86.7057 38.621 86.749 35.6945ZM87.052 21.0209L86.9654 20.9797C82.5501 19.2898 78.0048 17.8472 73.373 16.7343C67.0097 15.2505 60.5165 14.2612 53.9367 13.7254C50.82 13.4781 48.0063 13.3544 44.8896 13.3132V22.9994H87.0087C87.0087 22.3399 87.0087 21.6392 87.052 21.0209ZM60.4299 35.3648H28.6999C28.6566 35.3648 28.6133 35.406 28.6133 35.4472L28.6566 57.8285C28.7432 61.8678 30.6478 65.7011 33.8944 68.2978C36.8813 70.7709 40.6906 72.1311 44.6298 72.2135C47.5301 72.1723 50.3871 71.4304 52.8978 69.9877C56.0578 68.2154 58.482 65.4538 59.7373 62.1564C60.1702 61.0435 60.3866 59.8894 60.4299 58.694V35.4472C60.4732 35.406 60.4732 35.406 60.4299 35.3648C60.4299 35.406 60.4299 35.406 60.4299 35.3648ZM59.7373 58.5292C59.694 59.6833 59.4776 60.7962 59.088 61.8678C57.8759 65.0004 55.5817 67.6795 52.5515 69.3695C50.1707 70.7297 47.4436 71.4716 44.6731 71.5128C40.9071 71.4716 37.2709 70.1526 34.4139 67.762C31.2971 65.2477 29.4791 61.5793 29.3925 57.7048L29.3492 36.1891C29.3492 36.1479 29.3492 36.1067 29.4358 36.1067H59.6508C59.694 36.1067 59.7373 36.1479 59.7373 36.1479V58.5292ZM50.6036 72.3784C49.5214 72.7493 48.4392 73.0379 47.3137 73.2027C47.357 73.2852 47.357 73.3676 47.4003 73.45C47.4868 73.6973 47.7466 73.8622 48.0063 73.821C48.3526 73.8622 48.6556 73.6149 48.9153 73.0791C48.9586 73.0379 49.1318 72.9554 49.1318 73.0379C49.4348 73.4913 50.0841 73.9034 50.517 73.6561C50.8633 73.45 50.9932 72.9966 50.7767 72.6669L50.7334 72.6257L50.6036 72.3784Z" fill="black"/>
<defs>
<linearGradient id="paint0_linear_96_6398" x1="-0.0899142" y1="54.3354" x2="88.8798" y2="54.3354" gradientUnits="userSpaceOnUse">
<stop stop-color="#E1BE78"/>
<stop offset="1" stop-color="#E3AB36"/>
</linearGradient>
<linearGradient id="paint1_linear_96_6398" x1="-6.61523" y1="18.9799" x2="84.6284" y2="74.3056" gradientUnits="userSpaceOnUse">
<stop stop-color="#E1BE78"/>
<stop offset="0.34" stop-color="#FFFAD1"/>
<stop offset="0.75" stop-color="#C69632"/>
<stop offset="0.99" stop-color="#FCDC99"/>
</linearGradient>
<linearGradient id="paint2_linear_96_6398" x1="3.22942" y1="10.3569" x2="85.1971" y2="10.3569" gradientUnits="userSpaceOnUse">
<stop stop-color="#FFE3A8"/>
<stop offset="1" stop-color="#D2A249"/>
</linearGradient>
</defs>
</svg>
