<svg width="44" height="29" viewBox="0 0 44 29" fill="none" xmlns="http://www.w3.org/2000/svg">
<path d="M1.11647 28.2686C0.820801 28.2688 0.537119 28.1521 0.327768 27.944C0.118417 27.7359 0.000525058 27.4535 0 27.1588L0 1.38125C0 1.08614 0.117628 0.803126 0.327008 0.594455C0.536388 0.385785 0.820367 0.268555 1.11647 0.268555L42.2388 0.268555C42.5349 0.268555 42.8189 0.385785 43.0283 0.594455C43.2377 0.803126 43.3553 1.08614 43.3553 1.38125V27.1618C43.3535 27.4557 43.235 27.7369 43.0258 27.9441C42.8167 28.1513 42.5337 28.2676 42.2388 28.2676L1.11647 28.2686Z" fill="white"/>
<path fill-rule="evenodd" clip-rule="evenodd" d="M18.6423 8.86408L16.97 19.1015H19.6448L21.317 8.86408H18.6423ZM14.7202 8.86408L12.1703 15.9026L11.8731 14.3861L11.8067 14.0465C11.253 12.8803 10.4399 11.8551 9.42912 11.049C9.05187 10.7491 8.6547 10.475 8.24033 10.2285L10.5575 19.0985H13.3442L17.604 8.86508L14.7202 8.86408ZM25.1598 11.7065C25.1598 10.5494 27.7643 10.6975 28.9085 11.3245L29.2919 9.12572C28.519 8.85015 27.7071 8.69917 26.8865 8.67847C25.5591 8.67847 22.4078 9.25703 22.4078 12.0679C22.4078 14.7129 26.1069 14.7455 26.1069 16.1346C26.1069 17.5237 22.7892 17.2749 21.6945 16.3992L21.2982 18.6947C22.2538 19.0935 23.2819 19.2905 24.3178 19.2733C26.1426 19.2733 28.8956 18.3304 28.8956 15.7683C28.8877 13.1144 25.1588 12.8666 25.1588 11.7095L25.1598 11.7065ZM36.0779 8.86408H33.9282C33.6675 8.84412 33.4072 8.90755 33.1852 9.04517C32.9632 9.18278 32.7911 9.38741 32.6938 9.62926L28.7024 19.1074H31.4901L32.0479 17.5869H35.4478L35.7619 19.1074H38.2187L36.0779 8.86408ZM32.8206 15.479L34.2263 11.6483L35.0189 15.479H32.8206Z" fill="#005BAC"/>
<path fill-rule="evenodd" clip-rule="evenodd" d="M11.0112 9.83171C10.9545 9.54344 10.7898 9.28749 10.5506 9.11585C10.3114 8.94421 10.0156 8.86974 9.72334 8.90759H5.42387L5.37335 9.08135C6.84846 9.4489 8.22739 10.1273 9.41723 11.0708C10.5402 11.9522 11.4065 13.1165 11.9266 14.4434L11.0112 9.83171Z" fill="#F6AC1D"/>
</svg>
