<svg width="46" height="25" viewBox="0 0 46 25" fill="none" xmlns="http://www.w3.org/2000/svg">
<path d="M19.8437 24.8047H17.8948C17.7208 24.8047 17.5538 24.7356 17.4308 24.6125C17.3077 24.4894 17.2386 24.3225 17.2386 24.1485C17.2386 23.9745 17.3077 23.8075 17.4308 23.6845C17.5538 23.5614 17.7208 23.4923 17.8948 23.4923H19.8437C20.0178 23.4923 20.1847 23.5614 20.3077 23.6845C20.4308 23.8075 20.4999 23.9745 20.4999 24.1485C20.4999 24.3225 20.4308 24.4894 20.3077 24.6125C20.1847 24.7356 20.0178 24.8047 19.8437 24.8047Z" fill="white"/>
<path d="M36.1768 24.8047H24.4372C24.2632 24.8047 24.0963 24.7356 23.9732 24.6125C23.8502 24.4894 23.781 24.3225 23.781 24.1485C23.781 23.9745 23.8502 23.8075 23.9732 23.6845C24.0963 23.5614 24.2632 23.4923 24.4372 23.4923H35.682C36.6663 20.6568 40.7112 16.8567 40.893 16.6867C44.115 13.7738 44.5678 9.27158 44.6183 7.53787C41.6352 7.95785 38.5851 8.47231 35.5423 9.06946C25.388 11.0688 15.3947 13.8128 5.6434 17.2793C3.48644 18.0497 1.98831 18.6363 1.31242 18.9021V23.4923H6.80489C6.97893 23.4923 7.14584 23.5614 7.2689 23.6845C7.39196 23.8075 7.4611 23.9745 7.4611 24.1485C7.4611 24.3225 7.39196 24.4894 7.2689 24.6125C7.14584 24.7356 6.97893 24.8047 6.80489 24.8047H0.656209C0.482172 24.8047 0.315262 24.7356 0.192199 24.6125C0.0691361 24.4894 0 24.3225 0 24.1485V18.4592C7.47207e-05 18.3292 0.0387164 18.2023 0.111028 18.0943C0.18334 17.9864 0.286068 17.9023 0.406193 17.8528C0.423911 17.8449 2.17796 17.1251 5.19652 16.0437C15.0114 12.5548 25.0699 9.79325 35.2903 7.78133C38.6107 7.12971 41.9396 6.57587 45.1833 6.1349C45.2728 6.12272 45.364 6.12918 45.4509 6.15386C45.5379 6.17854 45.6188 6.22092 45.6886 6.27834C45.7584 6.33576 45.8156 6.40698 45.8566 6.48754C45.8975 6.5681 45.9214 6.65626 45.9268 6.74648C45.9432 7.02406 46.2746 13.5907 41.7815 17.6527C40.555 18.7997 37.2537 22.2409 36.8186 24.2856C36.7872 24.4326 36.7063 24.5642 36.5895 24.6587C36.4727 24.7532 36.327 24.8047 36.1768 24.8047Z" fill="white"/>
<path d="M13.3013 24.8047H11.3983C11.2243 24.8047 11.0574 24.7356 10.9343 24.6125C10.8113 24.4894 10.7421 24.3225 10.7421 24.1485C10.7421 23.9745 10.8113 23.8075 10.9343 23.6845C11.0574 23.5614 11.2243 23.4923 11.3983 23.4923H13.3013C13.4754 23.4923 13.6423 23.5614 13.7654 23.6845C13.8884 23.8075 13.9576 23.9745 13.9576 24.1485C13.9576 24.3225 13.8884 24.4894 13.7654 24.6125C13.6423 24.7356 13.4754 24.8047 13.3013 24.8047Z" fill="white"/>
<path d="M5.41964 17.3141C5.2456 17.3141 5.07869 17.2449 4.95563 17.1219C4.83256 16.9988 4.76343 16.8319 4.76343 16.6579V7.09559C4.76339 6.95031 4.81156 6.80913 4.90039 6.69417C4.98922 6.57921 5.11368 6.49699 5.25427 6.46038C12.5034 4.57509 27.4689 3.60915 28.1028 3.56781C28.2319 3.55915 28.3605 3.58932 28.4723 3.65443L35.7444 7.85416C35.8196 7.89694 35.8856 7.95417 35.9387 8.02256C35.9917 8.09096 36.0307 8.16917 36.0533 8.25269C36.076 8.3362 36.0819 8.42338 36.0708 8.5092C36.0596 8.59502 36.0316 8.67778 35.9883 8.75273C35.9451 8.82768 35.8874 8.89332 35.8186 8.94589C35.7499 8.99846 35.6714 9.03691 35.5878 9.05903C35.5041 9.08115 35.4169 9.0865 35.3311 9.07478C35.2454 9.06305 35.1628 9.03449 35.0882 8.99072L27.9886 4.89072C26.2103 5.01015 12.928 5.94591 6.07585 7.60677V16.6579C6.07585 16.8319 6.00671 16.9988 5.88365 17.1219C5.76058 17.2449 5.59367 17.3141 5.41964 17.3141Z" fill="white"/>
<path d="M5.41963 12.3728C5.26493 12.3734 5.11501 12.3193 4.99633 12.22C4.87765 12.1208 4.79785 11.9828 4.771 11.8305C4.74416 11.6781 4.772 11.5212 4.84962 11.3874C4.92724 11.2536 5.04963 11.1515 5.1952 11.0991C13.7102 8.00641 31.0498 5.43407 31.2257 5.40848C31.3979 5.38316 31.5731 5.42729 31.7128 5.53115C31.8525 5.63502 31.9452 5.79011 31.9705 5.96232C31.9958 6.13453 31.9517 6.30975 31.8478 6.44943C31.744 6.5891 31.5889 6.6818 31.4167 6.70712C31.2441 6.73271 14.033 9.28537 5.6434 12.3328C5.5717 12.3591 5.49598 12.3726 5.41963 12.3728Z" fill="white"/>
<path d="M16.2215 5.96494C16.0788 5.96498 15.9399 5.91849 15.826 5.83252C15.7121 5.74655 15.6293 5.62579 15.5902 5.48853L14.2647 0.836011C14.2369 0.738355 14.2321 0.635574 14.2507 0.535757C14.2694 0.43594 14.3109 0.34181 14.3721 0.260775C14.4333 0.17974 14.5124 0.114012 14.6033 0.0687615C14.6942 0.0235107 14.7944 -2.74248e-05 14.8959 2.39792e-08H19.5944C19.7341 -8.46623e-06 19.8701 0.0445322 19.9826 0.127145C20.0952 0.209757 20.1785 0.326132 20.2204 0.459346L21.5197 4.61315C21.54 4.6768 21.5502 4.74322 21.5499 4.81001C21.5517 4.97198 21.4935 5.12888 21.3866 5.25053C21.2796 5.37219 21.1315 5.44999 20.9706 5.46896C20.8098 5.48794 20.6476 5.44675 20.5153 5.35333C20.3829 5.25991 20.2898 5.12085 20.2539 4.96291L19.1121 1.31242H15.7654L16.8528 5.12893C16.8806 5.22659 16.8854 5.32937 16.8667 5.42918C16.8481 5.529 16.8065 5.62313 16.7454 5.70417C16.6842 5.7852 16.605 5.85093 16.5141 5.89618C16.4232 5.94143 16.323 5.96497 16.2215 5.96494Z" fill="white"/>
<path d="M8.72758 7.04178C8.58224 7.0416 8.44108 6.99317 8.32623 6.9041C8.21139 6.81503 8.12936 6.69035 8.09303 6.54962L6.61 0.820917C6.58486 0.723972 6.58224 0.622558 6.60235 0.524446C6.62246 0.426334 6.66476 0.334127 6.72601 0.254889C6.78726 0.17565 6.86584 0.111482 6.95572 0.0673008C7.0456 0.02312 7.1444 9.88458e-05 7.24455 0H11.943C12.0838 3.75196e-06 12.2209 0.0453008 12.334 0.1292C12.4471 0.213099 12.5302 0.331149 12.571 0.465908L14.0868 5.459C14.1119 5.54147 14.1204 5.62807 14.112 5.71384C14.1036 5.79961 14.0783 5.88288 14.0377 5.95889C13.9971 6.03491 13.9419 6.10218 13.8753 6.15687C13.8087 6.21156 13.7319 6.25259 13.6495 6.27762C13.567 6.30266 13.4804 6.3112 13.3946 6.30277C13.3089 6.29434 13.2256 6.2691 13.1496 6.22849C13.0736 6.18787 13.0063 6.13268 12.9516 6.06607C12.8969 5.99946 12.8559 5.92273 12.8309 5.84026L11.4528 1.31242H8.09237L9.36279 6.22086C9.38451 6.30437 9.38955 6.39134 9.37761 6.47679C9.36568 6.56224 9.33701 6.64451 9.29325 6.71887C9.24949 6.79323 9.19149 6.85823 9.12257 6.91015C9.05366 6.96207 8.97518 6.99988 8.89164 7.02144C8.83804 7.03518 8.78291 7.04202 8.72758 7.04178Z" fill="white"/>
<path d="M32.5283 14.516C32.7023 14.516 32.8692 14.4469 32.9923 14.3238C33.1154 14.2007 33.1845 14.0338 33.1845 13.8598C33.1845 13.6858 33.1154 13.5189 32.9923 13.3958C32.8692 13.2727 32.7023 13.2036 32.5283 13.2036C32.3542 13.2036 32.1873 13.2727 32.0643 13.3958C31.9412 13.5189 31.8721 13.6858 31.8721 13.8598C31.8721 14.0338 31.9412 14.2007 32.0643 14.3238C32.1873 14.4469 32.3542 14.516 32.5283 14.516Z" fill="white"/>
<path d="M28.6796 15.4071C28.8536 15.4071 29.0205 15.338 29.1436 15.2149C29.2667 15.0919 29.3358 14.925 29.3358 14.7509C29.3358 14.5769 29.2667 14.41 29.1436 14.2869C29.0205 14.1639 28.8536 14.0947 28.6796 14.0947C28.5055 14.0947 28.3386 14.1639 28.2156 14.2869C28.0925 14.41 28.0234 14.5769 28.0234 14.7509C28.0234 14.925 28.0925 15.0919 28.2156 15.2149C28.3386 15.338 28.5055 15.4071 28.6796 15.4071Z" fill="white"/>
<path d="M24.8309 16.2983C25.0049 16.2983 25.1718 16.2291 25.2949 16.1061C25.418 15.983 25.4871 15.8161 25.4871 15.6421C25.4871 15.468 25.418 15.3011 25.2949 15.1781C25.1718 15.055 25.0049 14.9859 24.8309 14.9859C24.6569 14.9859 24.4899 15.055 24.3669 15.1781C24.2438 15.3011 24.1747 15.468 24.1747 15.6421C24.1747 15.8161 24.2438 15.983 24.3669 16.1061C24.4899 16.2291 24.6569 16.2983 24.8309 16.2983Z" fill="white"/>
</svg>
